<svg width="30" height="31" viewBox="0 0 30 31" fill="none" xmlns="http://www.w3.org/2000/svg">
<path d="M15 28.3497C11.519 28.3497 8.18064 26.9588 5.71922 24.4828C3.25781 22.0069 1.875 18.6489 1.875 15.1474C1.875 11.6459 3.25781 8.28781 5.71922 5.81189C8.18064 3.33597 11.519 1.94501 15 1.94501C18.481 1.94501 21.8194 3.33597 24.2808 5.81189C26.7422 8.28781 28.125 11.6459 28.125 15.1474C28.125 18.6489 26.7422 22.0069 24.2808 24.4828C21.8194 26.9588 18.481 28.3497 15 28.3497ZM15 30.2358C18.9782 30.2358 22.7936 28.6461 25.6066 25.8165C28.4196 22.9869 30 19.1491 30 15.1474C30 11.1457 28.4196 7.30788 25.6066 4.47825C22.7936 1.64863 18.9782 0.05896 15 0.05896C11.0218 0.05896 7.20644 1.64863 4.3934 4.47825C1.58035 7.30788 0 11.1457 0 15.1474C0 19.1491 1.58035 22.9869 4.3934 25.8165C7.20644 28.6461 11.0218 30.2358 15 30.2358Z" fill="white"/>
<path d="M16.7437 12.4843L12.4499 13.0256L12.2962 13.7423L13.1399 13.8988C13.6912 14.0308 13.7999 14.2308 13.6799 14.7834L12.2962 21.3242C11.9324 23.016 12.493 23.8119 13.8112 23.8119C14.833 23.8119 16.0199 23.3366 16.558 22.684L16.723 21.8994C16.348 22.2314 15.8005 22.3634 15.4368 22.3634C14.9212 22.3634 14.7337 21.9994 14.8668 21.3582L16.7437 12.4843ZM16.8749 8.54621C16.8749 9.04642 16.6774 9.52614 16.3257 9.87985C15.9741 10.2335 15.4972 10.4323 14.9999 10.4323C14.5026 10.4323 14.0257 10.2335 13.6741 9.87985C13.3225 9.52614 13.1249 9.04642 13.1249 8.54621C13.1249 8.046 13.3225 7.56627 13.6741 7.21257C14.0257 6.85886 14.5026 6.66016 14.9999 6.66016C15.4972 6.66016 15.9741 6.85886 16.3257 7.21257C16.6774 7.56627 16.8749 8.046 16.8749 8.54621Z" fill="white"/>
</svg>
