<?xml version="1.0" encoding="utf-8"?>
<!-- Generator: Adobe Illustrator 16.0.0, SVG Export Plug-In . SVG Version: 6.00 Build 0)  -->
<!DOCTYPE svg PUBLIC "-//W3C//DTD SVG 1.1//EN" "http://www.w3.org/Graphics/SVG/1.1/DTD/svg11.dtd">
<svg version="1.1" id="Layer_1" xmlns="http://www.w3.org/2000/svg" xmlns:xlink="http://www.w3.org/1999/xlink" x="0px" y="0px"
	 width="1320.5px" height="840.5px" viewBox="0 17.5 1320.5 840.5" enable-background="new 0 17.5 1320.5 840.5"
	 xml:space="preserve">
<g opacity="0.1">
	<line fill="none" stroke="#FFFFFF" x1="1" y1="17.5" x2="1320" y2="17.5"/>
	<line fill="none" stroke="#FFFFFF" x1="1" y1="137.5" x2="1320" y2="137.5"/>
	<line fill="none" stroke="#FFFFFF" x1="1" y1="257.5" x2="1320" y2="257.5"/>
	<line fill="none" stroke="#FFFFFF" x1="1" y1="377.5" x2="1320" y2="377.5"/>
	<line fill="none" stroke="#FFFFFF" x1="1" y1="497.5" x2="1320" y2="497.5"/>
	<line fill="none" stroke="#FFFFFF" x1="1" y1="617.5" x2="1320" y2="617.5"/>
	<line fill="none" stroke="#FFFFFF" x1="1" y1="737.5" x2="1320" y2="737.5"/>
	<line fill="none" stroke="#FFFFFF" x1="1" y1="857.5" x2="1320" y2="857.5"/>
	<line fill="none" stroke="#FFFFFF" x1="0.5" y1="858" x2="0.5" y2="18"/>
	<line fill="none" stroke="#FFFFFF" x1="120.5" y1="858" x2="120.5" y2="18"/>
	<line fill="none" stroke="#FFFFFF" x1="240.5" y1="858" x2="240.5" y2="18"/>
	<line fill="none" stroke="#FFFFFF" x1="360.5" y1="858" x2="360.5" y2="18"/>
	<line fill="none" stroke="#FFFFFF" x1="480.5" y1="858" x2="480.5" y2="18"/>
	<line fill="none" stroke="#FFFFFF" x1="600.5" y1="858" x2="600.5" y2="18"/>
	<line fill="none" stroke="#FFFFFF" x1="720.5" y1="858" x2="720.5" y2="18"/>
	<line fill="none" stroke="#FFFFFF" x1="840.5" y1="858" x2="840.5" y2="18"/>
	<line fill="none" stroke="#FFFFFF" x1="960.5" y1="858" x2="960.5" y2="18"/>
	<line fill="none" stroke="#FFFFFF" x1="1080.5" y1="858" x2="1080.5" y2="18"/>
	<line fill="none" stroke="#FFFFFF" x1="1200.5" y1="858" x2="1200.5" y2="18"/>
	<line fill="none" stroke="#FFFFFF" x1="1320.5" y1="858" x2="1320.5" y2="18"/>
</g>
</svg>
