<svg width="40" height="40" viewBox="0 0 40 40" fill="none" xmlns="http://www.w3.org/2000/svg">
<rect x="0.5" y="0.5" width="39" height="39" rx="19.5" stroke="white" stroke-opacity="0.4"/>
<path d="M28.1567 17.4386L23.3948 12.6768C23.2769 12.5589 23.1375 12.5 22.9763 12.5C22.8151 12.5 22.6755 12.5589 22.5578 12.6768C22.4399 12.7946 22.3809 12.9342 22.3809 13.0954V15.4763H20.2976C15.8766 15.4763 13.164 16.7257 12.1594 19.2245C11.8309 20.0552 11.6667 21.0877 11.6667 22.3216C11.6667 23.3508 12.0604 24.7489 12.8478 26.5161C12.8664 26.5596 12.8988 26.6338 12.9454 26.7392C12.992 26.8445 13.0338 26.9375 13.071 27.0182C13.1083 27.0987 13.1486 27.1669 13.192 27.2227C13.2663 27.3281 13.3532 27.381 13.4524 27.381C13.5454 27.381 13.6183 27.35 13.671 27.288C13.7236 27.226 13.75 27.1484 13.75 27.0557C13.75 26.9997 13.7422 26.9177 13.7267 26.8091C13.7112 26.7005 13.7034 26.6278 13.7034 26.5906C13.6724 26.1691 13.6569 25.7875 13.6569 25.4467C13.6569 24.8205 13.7112 24.2593 13.8196 23.7633C13.9282 23.2673 14.0785 22.838 14.2708 22.4752C14.463 22.1123 14.7109 21.7994 15.0148 21.5359C15.3186 21.2723 15.6456 21.057 15.996 20.8895C16.3463 20.722 16.7587 20.5903 17.233 20.4942C17.7073 20.3981 18.1847 20.3314 18.6653 20.2942C19.1459 20.257 19.69 20.2384 20.2976 20.2384H22.3809V22.6194C22.3809 22.7806 22.4398 22.9202 22.5575 23.038C22.6755 23.1556 22.8149 23.2146 22.976 23.2146C23.1372 23.2146 23.2768 23.1556 23.3948 23.038L28.1566 18.2759C28.2745 18.1581 28.3333 18.0186 28.3333 17.8574C28.3333 17.6962 28.2745 17.5567 28.1567 17.4386Z" fill="white"/>
</svg>
