<svg width="87" height="40" viewBox="0 0 87 40" fill="none" xmlns="http://www.w3.org/2000/svg">
<rect width="87" height="40" rx="20" fill="url(#paint0_linear_19_366)" fill-opacity="0.8"/>
<rect x="0.5" y="0.5" width="86" height="39" rx="19.5" stroke="white" stroke-opacity="0.4"/>
<path d="M28.1567 17.4386L23.3948 12.6768C23.2769 12.5589 23.1375 12.5 22.9763 12.5C22.8151 12.5 22.6755 12.5589 22.5578 12.6768C22.4399 12.7946 22.3809 12.9342 22.3809 13.0954V15.4763H20.2976C15.8766 15.4763 13.164 16.7257 12.1594 19.2245C11.8309 20.0552 11.6667 21.0877 11.6667 22.3216C11.6667 23.3508 12.0604 24.7489 12.8478 26.5161C12.8664 26.5596 12.8988 26.6338 12.9454 26.7392C12.992 26.8445 13.0338 26.9375 13.071 27.0182C13.1083 27.0987 13.1486 27.1669 13.192 27.2227C13.2663 27.3281 13.3532 27.381 13.4524 27.381C13.5454 27.381 13.6183 27.35 13.671 27.288C13.7236 27.226 13.75 27.1484 13.75 27.0557C13.75 26.9997 13.7422 26.9177 13.7267 26.8091C13.7112 26.7005 13.7034 26.6278 13.7034 26.5906C13.6724 26.1691 13.6569 25.7875 13.6569 25.4467C13.6569 24.8205 13.7112 24.2593 13.8196 23.7633C13.9282 23.2673 14.0785 22.838 14.2708 22.4752C14.463 22.1123 14.7109 21.7994 15.0148 21.5359C15.3186 21.2723 15.6456 21.057 15.996 20.8895C16.3463 20.722 16.7587 20.5903 17.233 20.4942C17.7073 20.3981 18.1847 20.3314 18.6653 20.2942C19.1459 20.257 19.69 20.2384 20.2976 20.2384H22.3809V22.6194C22.3809 22.7806 22.4398 22.9202 22.5575 23.038C22.6755 23.1556 22.8149 23.2146 22.976 23.2146C23.1372 23.2146 23.2768 23.1556 23.3948 23.038L28.1566 18.2759C28.2745 18.1581 28.3333 18.0186 28.3333 17.8574C28.3333 17.6962 28.2745 17.5567 28.1567 17.4386Z" fill="white"/>
<path d="M44.8011 17.8636C44.7415 17.3598 44.4995 16.9688 44.0753 16.6903C43.651 16.4119 43.1307 16.2727 42.5142 16.2727C42.0634 16.2727 41.669 16.3456 41.331 16.4915C40.9962 16.6373 40.7344 16.8378 40.5455 17.093C40.3598 17.3482 40.267 17.6383 40.267 17.9631C40.267 18.2348 40.3317 18.4685 40.4609 18.6641C40.5935 18.8563 40.7625 19.017 40.968 19.1463C41.1735 19.2723 41.389 19.3767 41.6143 19.4595C41.8397 19.5391 42.0469 19.6037 42.2358 19.6534L43.2699 19.9318C43.535 20.0014 43.83 20.0975 44.1548 20.2202C44.483 20.3428 44.7962 20.5102 45.0945 20.7223C45.3961 20.9311 45.6446 21.1996 45.8402 21.5277C46.0357 21.8558 46.1335 22.2585 46.1335 22.7358C46.1335 23.286 45.9893 23.7831 45.701 24.2273C45.416 24.6714 44.9983 25.0244 44.4482 25.2862C43.9013 25.5481 43.2367 25.679 42.4545 25.679C41.7254 25.679 41.094 25.5613 40.5604 25.326C40.0301 25.0907 39.6125 24.7625 39.3075 24.3416C39.0059 23.9207 38.8352 23.4318 38.7955 22.875H40.0682C40.1013 23.2595 40.2306 23.5777 40.456 23.8295C40.6847 24.0781 40.973 24.2637 41.321 24.3864C41.6723 24.5057 42.0502 24.5653 42.4545 24.5653C42.9252 24.5653 43.3478 24.4891 43.7223 24.3366C44.0968 24.1809 44.3935 23.9654 44.6122 23.6903C44.831 23.4119 44.9403 23.0871 44.9403 22.7159C44.9403 22.3778 44.8459 22.1027 44.657 21.8906C44.468 21.6785 44.2195 21.5062 43.9112 21.3736C43.603 21.241 43.2699 21.125 42.9119 21.0256L41.6591 20.6676C40.8636 20.4389 40.2339 20.1125 39.7699 19.6882C39.3059 19.264 39.0739 18.7088 39.0739 18.0227C39.0739 17.4527 39.228 16.9555 39.5362 16.5312C39.8478 16.1037 40.2654 15.7723 40.7891 15.5369C41.3161 15.2983 41.9044 15.179 42.554 15.179C43.2102 15.179 43.7936 15.2966 44.304 15.532C44.8144 15.764 45.2188 16.0821 45.517 16.4865C45.8187 16.8909 45.9777 17.3499 45.9943 17.8636H44.8011ZM49.1749 20.9062V25.5H48.0016V15.3182H49.1749V19.0568H49.2743C49.4533 18.6624 49.7218 18.3492 50.0797 18.1172C50.441 17.8819 50.9216 17.7642 51.5215 17.7642C52.0418 17.7642 52.4976 17.8686 52.8887 18.0774C53.2798 18.2829 53.583 18.5994 53.7985 19.027C54.0172 19.4512 54.1266 19.9915 54.1266 20.6477V25.5H52.9533V20.7273C52.9533 20.1207 52.7959 19.6518 52.481 19.3203C52.1694 18.9856 51.7369 18.8182 51.1834 18.8182C50.7989 18.8182 50.4542 18.8994 50.1493 19.0618C49.8477 19.2242 49.6091 19.4612 49.4334 19.7727C49.2611 20.0843 49.1749 20.4621 49.1749 20.9062ZM58.5202 25.679C58.0363 25.679 57.5972 25.5878 57.2028 25.4055C56.8084 25.2199 56.4951 24.9531 56.2631 24.6051C56.0311 24.2538 55.9151 23.8295 55.9151 23.3324C55.9151 22.8949 56.0013 22.5402 56.1737 22.2685C56.346 21.9934 56.5763 21.7779 56.8647 21.6222C57.1531 21.4664 57.4712 21.3504 57.8192 21.2741C58.1706 21.1946 58.5236 21.1316 58.8782 21.0852C59.3422 21.0256 59.7184 20.9808 60.0067 20.951C60.2984 20.9179 60.5105 20.8632 60.6431 20.7869C60.779 20.7107 60.8469 20.5781 60.8469 20.3892V20.3494C60.8469 19.8589 60.7127 19.4777 60.4442 19.206C60.1791 18.9342 59.7764 18.7983 59.2362 18.7983C58.676 18.7983 58.2369 18.9209 57.9187 19.1662C57.6005 19.4115 57.3768 19.6733 57.2475 19.9517L56.1339 19.554C56.3327 19.09 56.5979 18.7287 56.9293 18.4702C57.2641 18.2083 57.6287 18.026 58.0231 17.9233C58.4208 17.8172 58.8119 17.7642 59.1964 17.7642C59.4416 17.7642 59.7234 17.794 60.0415 17.8537C60.363 17.91 60.6729 18.0277 60.9712 18.2067C61.2728 18.3857 61.5231 18.6558 61.7219 19.017C61.9208 19.3783 62.0202 19.8622 62.0202 20.4688V25.5H60.8469V24.4659H60.7873C60.7077 24.6316 60.5752 24.8089 60.3896 24.9979C60.204 25.1868 59.957 25.3475 59.6488 25.4801C59.3406 25.6127 58.9644 25.679 58.5202 25.679ZM58.6992 24.625C59.1632 24.625 59.5543 24.5339 59.8725 24.3516C60.194 24.1693 60.436 23.9339 60.5984 23.6456C60.7641 23.3572 60.8469 23.054 60.8469 22.7358V21.6619C60.7972 21.7216 60.6879 21.7763 60.5188 21.826C60.3531 21.8724 60.1609 21.9138 59.9421 21.9503C59.7267 21.9834 59.5162 22.0133 59.3107 22.0398C59.1085 22.063 58.9445 22.0829 58.8185 22.0994C58.5136 22.1392 58.2286 22.2038 57.9634 22.2933C57.7016 22.3795 57.4895 22.5104 57.3271 22.6861C57.168 22.8584 57.0884 23.0937 57.0884 23.392C57.0884 23.7997 57.2392 24.108 57.5408 24.3168C57.8458 24.5223 58.2319 24.625 58.6992 24.625ZM64.1618 25.5V17.8636H65.2953V19.017H65.3748C65.514 18.6392 65.7659 18.3326 66.1305 18.0973C66.4951 17.862 66.9061 17.7443 67.3635 17.7443C67.4496 17.7443 67.5574 17.746 67.6866 17.7493C67.8159 17.7526 67.9136 17.7576 67.9799 17.7642V18.9574C67.9402 18.9474 67.849 18.9325 67.7065 18.9126C67.5673 18.8894 67.4198 18.8778 67.264 18.8778C66.8928 18.8778 66.5614 18.9557 66.2697 19.1115C65.9814 19.264 65.7527 19.4761 65.5836 19.7479C65.4179 20.0163 65.335 20.3229 65.335 20.6676V25.5H64.1618ZM72.34 25.6591C71.6042 25.6591 70.9695 25.4967 70.4359 25.1719C69.9056 24.8438 69.4963 24.3864 69.2079 23.7997C68.9229 23.2098 68.7804 22.5237 68.7804 21.7415C68.7804 20.9593 68.9229 20.2699 69.2079 19.6733C69.4963 19.0734 69.8973 18.6061 70.411 18.2713C70.9281 17.9332 71.5313 17.7642 72.2207 17.7642C72.6184 17.7642 73.0112 17.8305 73.399 17.9631C73.7868 18.0956 74.1397 18.3111 74.4579 18.6094C74.7761 18.9044 75.0297 19.2955 75.2186 19.7827C75.4075 20.2699 75.502 20.8698 75.502 21.5824V22.0795H69.6156V21.0653H74.3088C74.3088 20.6345 74.2226 20.25 74.0502 19.9119C73.8812 19.5739 73.6393 19.3071 73.3244 19.1115C73.0128 18.916 72.6449 18.8182 72.2207 18.8182C71.7534 18.8182 71.349 18.9342 71.0076 19.1662C70.6696 19.3949 70.4094 19.6932 70.2271 20.0611C70.0448 20.429 69.9537 20.8234 69.9537 21.2443V21.9205C69.9537 22.4972 70.0531 22.986 70.252 23.3871C70.4541 23.7848 70.7342 24.0881 71.0922 24.2969C71.4501 24.5024 71.8661 24.6051 72.34 24.6051C72.6483 24.6051 72.9267 24.562 73.1752 24.4759C73.4271 24.3864 73.6442 24.2538 73.8265 24.0781C74.0088 23.8991 74.1497 23.6771 74.2491 23.4119L75.3826 23.7301C75.2633 24.1146 75.0628 24.4527 74.7811 24.7443C74.4993 25.0327 74.1513 25.258 73.737 25.4205C73.3227 25.5795 72.8571 25.6591 72.34 25.6591Z" fill="white"/>
<defs>
<linearGradient id="paint0_linear_19_366" x1="43.5" y1="0" x2="43.5" y2="40" gradientUnits="userSpaceOnUse">
<stop stop-color="#131313"/>
<stop offset="1" stop-color="#131313" stop-opacity="0.85"/>
</linearGradient>
</defs>
</svg>
