<svg width="41" height="41" viewBox="0 0 41 41" fill="none" xmlns="http://www.w3.org/2000/svg">
<g clip-path="url(#clip0_151_196)">
<path d="M38.9375 18.9375H22.0625V2.0625C22.0625 1.19953 21.363 0.5 20.5 0.5C19.637 0.5 18.9375 1.19953 18.9375 2.0625V18.9375H2.0625C1.19953 18.9375 0.5 19.637 0.5 20.5C0.5 21.363 1.19953 22.0625 2.0625 22.0625H18.9375V38.9375C18.9375 39.8005 19.637 40.5 20.5 40.5C21.363 40.5 22.0625 39.8005 22.0625 38.9375V22.0625H38.9375C39.8005 22.0625 40.5 21.363 40.5 20.5C40.5 19.637 39.8005 18.9375 38.9375 18.9375Z" fill="white"/>
</g>
<defs>
<clipPath id="clip0_151_196">
<rect width="40" height="40" fill="white" transform="translate(0.5 0.5)"/>
</clipPath>
</defs>
</svg>
