<svg width="20" height="21" viewBox="0 0 20 21" fill="none" xmlns="http://www.w3.org/2000/svg">
<g clip-path="url(#clip0_471_991)">
<path d="M10.0053 5.56256C9.82937 5.56256 9.65542 5.57153 9.48402 5.58909C9.31263 5.60665 9.14361 5.63266 8.97747 5.66681C8.81133 5.70096 8.64814 5.74325 8.48821 5.79316L8.01882 5.96551L7.57192 6.18131L7.15019 6.43792L6.75615 6.73265L6.39254 7.06294L6.06193 7.42623L5.76688 7.81983L5.50995 8.24117L5.29402 8.68756C5.22912 8.84024 5.17139 8.99677 5.12141 9.15657C5.07144 9.31636 5.02915 9.47949 4.99493 9.64544C4.96072 9.81138 4.93471 9.98021 4.91709 10.1515C4.89947 10.3227 4.89062 10.4965 4.89062 10.6722C4.89062 10.8479 4.8996 11.0216 4.91709 11.1929C4.93448 11.3628 4.96046 11.5317 4.99493 11.699C5.02915 11.8656 5.07144 12.0281 5.12141 12.1879C5.17139 12.3477 5.22905 12.5041 5.29402 12.6569L5.50995 13.1033L5.76688 13.5246L6.06193 13.9182L6.39254 14.2815L6.75615 14.6118L7.15019 14.9065L7.57192 15.1631L8.01882 15.3789L8.48821 15.5513L8.97747 15.6776C9.1449 15.7121 9.31397 15.738 9.48402 15.7554C9.6572 15.7731 9.83117 15.7819 10.0053 15.7819C10.1811 15.7819 10.3551 15.7729 10.5264 15.7554C10.6965 15.738 10.8655 15.7121 11.033 15.6776L11.5223 15.5513L11.9917 15.3789L12.4385 15.1631L12.8603 14.9065L13.2544 14.6118L13.618 14.2815L13.9486 13.9182L14.2437 13.5246L14.5006 13.1033L14.7165 12.6569L14.8892 12.1879C14.9391 12.0281 14.9814 11.865 15.0156 11.699L15.0935 11.1928C15.111 11.0216 15.12 10.8478 15.12 10.6721C15.12 10.4964 15.111 10.3227 15.0935 10.1514C15.0761 9.98153 15.0501 9.81263 15.0156 9.64537C14.9814 9.47878 14.9391 9.31636 14.8892 9.1565L14.7165 8.68749L14.5006 8.2411L14.2437 7.81976L13.9486 7.42617L13.618 7.06288L13.2544 6.73259L12.8603 6.43785L12.4385 6.18124L11.9917 5.96545L11.5223 5.7931L11.033 5.66675L10.5264 5.58903C10.3533 5.57134 10.1793 5.56249 10.0053 5.5625V5.56256ZM10.0053 7.32622C10.1215 7.32622 10.2363 7.33198 10.3493 7.34339L10.6825 7.39381L11.0043 7.47582L11.3125 7.58776L11.6055 7.72808L11.881 7.89498L12.1386 8.08701L12.3761 8.30242L12.5917 8.53961L12.7839 8.79693L12.951 9.07282L13.0913 9.36563C13.1334 9.46584 13.1709 9.56855 13.2034 9.67356C13.236 9.77858 13.2633 9.8859 13.2854 9.99521C13.3075 10.1045 13.3239 10.2157 13.3359 10.3287L13.353 10.6725C13.353 10.7887 13.3473 10.9034 13.3359 11.0164C13.3244 11.1294 13.3077 11.2406 13.2854 11.3499C13.2632 11.4591 13.2358 11.5664 13.2034 11.6715L13.0913 11.9795L12.951 12.2723L12.7839 12.5481L12.5917 12.8055L12.3761 13.0427L12.1386 13.2581L11.881 13.4501L11.6055 13.617L11.3125 13.7573L11.0043 13.8693L10.6825 13.9513L10.3493 14.0016C10.235 14.0131 10.1201 14.0188 10.0052 14.0188C9.89024 14.0188 9.77537 14.0131 9.66099 14.0016L9.32782 13.9513C9.21845 13.9291 9.11106 13.9017 9.00592 13.8693L8.69773 13.7573L8.40473 13.617L8.12922 13.4501L7.87165 13.2581L7.6342 13.0427L7.41859 12.8055L7.22638 12.5481L7.05928 12.2723L6.91896 11.9795L6.80683 11.6715L6.72482 11.3499L6.67439 11.0164C6.66293 10.9021 6.6572 10.7874 6.65722 10.6725C6.6572 10.5577 6.66293 10.4429 6.67439 10.3287C6.68574 10.2157 6.70259 10.1044 6.72482 9.99521C6.74683 9.88672 6.77422 9.77939 6.8069 9.67363L6.91902 9.3657L7.05934 9.07289L7.22644 8.79699L7.41866 8.53968L7.63426 8.30248L7.87171 8.08707L8.12928 7.89505L8.40479 7.72814L8.69779 7.58782C8.79864 7.54547 8.90152 7.50811 9.00605 7.47589L9.32794 7.39388C9.43732 7.37171 9.54867 7.35479 9.66112 7.34345C9.77549 7.33199 9.89037 7.32626 10.0053 7.32628L10.0053 7.32622Z" fill="white"/>
<path d="M15.3274 4.10938C15.2868 4.10938 15.2462 4.11144 15.2058 4.11553C15.1654 4.11961 15.1252 4.12573 15.0854 4.13385C15.0456 4.14197 15.0062 4.15208 14.9674 4.16416C14.9286 4.17624 14.8905 4.19027 14.8531 4.20619C14.8157 4.22213 14.7791 4.23994 14.7434 4.25956C14.7078 4.27914 14.6732 4.3005 14.6396 4.32357C14.6061 4.34666 14.5738 4.37142 14.5427 4.39776C14.5116 4.42408 14.4819 4.45194 14.4536 4.48125C14.4253 4.51057 14.3985 4.5413 14.3733 4.57332C14.3481 4.60534 14.3244 4.63862 14.3025 4.67302C14.2806 4.70739 14.2604 4.74285 14.2419 4.77925C14.2235 4.81568 14.2069 4.85302 14.1922 4.89112C14.1774 4.92922 14.1646 4.96803 14.1538 5.00741C14.1429 5.04679 14.134 5.08669 14.1271 5.12697C14.1202 5.16723 14.1153 5.20782 14.1124 5.24858C14.1104 5.27745 14.1094 5.30639 14.1094 5.33533C14.1094 5.37622 14.1114 5.41709 14.1155 5.45777C14.1195 5.49844 14.1256 5.53888 14.1337 5.57894C14.1417 5.61899 14.1518 5.65862 14.1638 5.69766C14.1758 5.73672 14.1897 5.77514 14.2055 5.8128C14.2214 5.85046 14.2391 5.88731 14.2585 5.9232C14.278 5.95907 14.2992 5.99395 14.3222 6.0277C14.3451 6.06142 14.3697 6.09397 14.3958 6.12521C14.422 6.15649 14.4497 6.18643 14.4788 6.21492C14.508 6.24339 14.5385 6.27037 14.5703 6.29577C14.6021 6.32119 14.6352 6.34499 14.6694 6.36709C14.7036 6.38918 14.7388 6.40954 14.775 6.42808C14.8112 6.44664 14.8483 6.46336 14.8861 6.47819C14.924 6.493 14.9625 6.50589 15.0016 6.51682C15.0408 6.52774 15.0804 6.53668 15.1204 6.54361C15.1604 6.55056 15.2008 6.5555 15.2413 6.55841C15.27 6.56046 15.2987 6.56148 15.3274 6.56148C15.3681 6.56149 15.4086 6.55946 15.4491 6.55539C15.4895 6.55131 15.5296 6.5452 15.5695 6.53707C15.6092 6.52895 15.6486 6.51884 15.6874 6.50676C15.7262 6.49468 15.7644 6.48065 15.8018 6.46473C15.8392 6.44881 15.8758 6.43102 15.9114 6.41142C15.947 6.39182 15.9817 6.37044 16.0152 6.34735C16.0487 6.32428 16.0811 6.29954 16.1121 6.27322C16.1432 6.24688 16.1729 6.219 16.2012 6.18967C16.2295 6.16035 16.2563 6.12962 16.2815 6.0976C16.3068 6.06558 16.3304 6.0323 16.3523 5.9979C16.3743 5.96351 16.3945 5.92803 16.4129 5.89161C16.4313 5.85518 16.4479 5.81784 16.4627 5.77974C16.4774 5.74164 16.4902 5.70283 16.5011 5.66345C16.5119 5.62407 16.5208 5.58416 16.5277 5.54389C16.5346 5.50362 16.5395 5.46304 16.5424 5.42228C16.5444 5.39341 16.5455 5.36447 16.5455 5.33552C16.5455 5.29465 16.5434 5.25381 16.5394 5.21315C16.5353 5.17248 16.5292 5.13204 16.5212 5.09199C16.5131 5.05193 16.5031 5.01231 16.4911 4.97326C16.4791 4.9342 16.4651 4.89578 16.4493 4.85812C16.4335 4.82046 16.4158 4.78361 16.3963 4.74773C16.3768 4.71185 16.3556 4.67697 16.3327 4.64322C16.3097 4.60948 16.2851 4.57691 16.2589 4.54564C16.2328 4.51437 16.2051 4.48443 16.176 4.45594C16.1469 4.42747 16.1163 4.40048 16.0845 4.37508C16.0527 4.34969 16.0196 4.32591 15.9855 4.30383C15.9513 4.28174 15.916 4.26138 15.8798 4.24284C15.8436 4.22428 15.8066 4.20756 15.7687 4.19273C15.7309 4.17792 15.6923 4.16503 15.6532 4.1541C15.6141 4.14316 15.5744 4.1342 15.5344 4.12725C15.4944 4.12032 15.4541 4.1154 15.4136 4.11251C15.3849 4.11047 15.3561 4.10944 15.3274 4.10944V4.10938Z" fill="white"/>
<path d="M9.03873 0.679874C8.48245 0.678977 7.98602 0.681283 7.54008 0.687562L6.34449 0.719598C5.9903 0.734976 5.67737 0.755029 5.39648 0.780978C5.25603 0.793921 5.12353 0.808401 4.99795 0.824355C4.87845 0.839417 4.75927 0.856956 4.64049 0.876959C4.52741 0.896181 4.42008 0.916939 4.31718 0.939492C4.21428 0.962046 4.116 0.986394 4.02117 1.01254C3.92847 1.0381 3.83649 1.06622 3.74534 1.09686C3.65602 1.12697 3.56889 1.15888 3.48284 1.19296C3.31074 1.26114 3.14287 1.33764 2.97 1.42337C2.83699 1.48936 2.7141 1.55619 2.59736 1.62692C2.48062 1.69766 2.37003 1.77237 2.26175 1.85374C2.15024 1.93795 2.04275 2.02736 1.93966 2.12169C1.83189 2.21985 1.72181 2.32781 1.60744 2.44846C1.46373 2.59922 1.33885 2.73979 1.22801 2.87774C1.17259 2.94668 1.12069 3.01486 1.0718 3.08341C1.02345 3.15098 0.977234 3.22004 0.933212 3.29049C0.889642 3.36033 0.84838 3.43145 0.808912 3.50462C0.768828 3.57905 0.730944 3.65465 0.695311 3.73131C0.622397 3.8879 0.554353 4.05654 0.486436 4.24479C0.436051 4.38395 0.390933 4.52497 0.35118 4.66753C0.310622 4.81323 0.274549 4.96566 0.242385 5.13052C0.210221 5.29538 0.182157 5.47266 0.157489 5.66873C0.130907 5.88364 0.109671 6.09918 0.0938016 6.31515C0.0758614 6.5526 0.0609967 6.81389 0.048823 7.10471L0.0199905 8.07169L0.00448503 9.25043L0 10.6752L0.0131348 12.7471L0.054141 14.3169L0.0857285 14.93L0.125197 15.4381C0.137849 15.5751 0.153679 15.7117 0.172675 15.8479C0.189974 15.9689 0.208555 16.0748 0.228545 16.1664C0.269108 16.3527 0.317072 16.5372 0.372323 16.7197C0.425226 16.8944 0.485725 17.0667 0.553648 17.2361C0.620411 17.4021 0.693453 17.5621 0.772903 17.7162C0.852352 17.8702 0.938209 18.0182 1.03047 18.1604C1.12274 18.3025 1.22141 18.4389 1.32674 18.5694C1.43196 18.6999 1.54387 18.8249 1.66203 18.9438C1.78037 19.063 1.90519 19.1764 2.03673 19.2842C2.16982 19.3932 2.30817 19.4956 2.45127 19.5911C2.5841 19.6799 2.71551 19.7612 2.84788 19.8359C2.98025 19.9105 3.11378 19.9782 3.25102 20.0398C3.38827 20.1014 3.52897 20.1568 3.67595 20.2066C3.82293 20.2565 3.97606 20.3008 4.13791 20.3402C4.29976 20.3795 4.47109 20.414 4.65241 20.4442C4.83373 20.4743 5.02755 20.5001 5.23463 20.5223C5.44172 20.5446 5.66264 20.5629 5.90002 20.5783C6.13741 20.5937 6.39114 20.606 6.66376 20.6159C7.08491 20.6311 7.72243 20.64 8.45759 20.6434L10.8376 20.6386L13.0912 20.607L13.9481 20.5829L14.5064 20.5542C14.6262 20.5445 14.7435 20.533 14.8566 20.5194C14.9698 20.5059 15.0814 20.4905 15.19 20.4729C15.2987 20.4554 15.4049 20.4358 15.5093 20.414C15.6125 20.3925 15.7151 20.3685 15.8171 20.342C15.9181 20.3164 16.0177 20.2872 16.1162 20.2563C16.2147 20.2253 16.3123 20.1919 16.4092 20.156C16.5067 20.1199 16.6033 20.0814 16.6989 20.0406C16.7952 19.9996 16.8914 19.9558 16.9879 19.9093C17.1361 19.8379 17.2554 19.7784 17.3602 19.7203C17.4587 19.6662 17.5536 19.6058 17.6443 19.5393C17.7337 19.4735 17.8226 19.3985 17.9252 19.3041C18.0277 19.2096 18.1438 19.0958 18.2877 18.9519C18.4141 18.8256 18.5207 18.7157 18.6127 18.6159C18.7046 18.516 18.7821 18.4261 18.85 18.3394C18.9147 18.2573 18.975 18.1717 19.0307 18.083C19.0849 17.9965 19.1349 17.9067 19.1858 17.8071C19.2625 17.6571 19.3306 17.5183 19.3917 17.3843C19.451 17.2552 19.5052 17.1238 19.5541 16.9904C19.6022 16.8581 19.644 16.7235 19.6791 16.5871C19.7152 16.4468 19.7463 16.2986 19.7733 16.1361C19.8002 15.9736 19.8229 15.7968 19.8426 15.5993C19.8624 15.4019 19.8792 15.1836 19.8939 14.9384L19.933 14.1153L19.9666 13.0916L19.9905 11.9511L19.9997 10.7586L19.9783 8.41646L19.9497 7.36741L19.9106 6.46668L19.8619 5.76445C19.8442 5.56903 19.8252 5.41513 19.8049 5.31107C19.7825 5.1961 19.7575 5.08166 19.7298 4.96784C19.7029 4.85708 19.6733 4.747 19.6411 4.63768C19.6096 4.53117 19.5755 4.42548 19.5387 4.32071C19.5023 4.21723 19.4637 4.11594 19.4234 4.01682C19.383 3.9177 19.3393 3.82088 19.2938 3.72612C19.2483 3.63136 19.2006 3.5389 19.1506 3.44856C19.1006 3.35822 19.0484 3.27012 18.9939 3.1842C18.9394 3.09828 18.8826 3.01453 18.8234 2.93304C18.7646 2.8518 18.7033 2.77241 18.6396 2.69501C18.5761 2.61802 18.5103 2.54307 18.4421 2.47024C18.374 2.39751 18.3036 2.32695 18.2311 2.25868C18.1585 2.19038 18.0837 2.12425 18.0066 2.06031C17.9292 1.99615 17.8498 1.93442 17.7685 1.8752C17.6864 1.81538 17.6024 1.75807 17.5168 1.70336C17.43 1.64787 17.3416 1.59497 17.2517 1.54472C17.1602 1.49363 17.0673 1.44517 16.973 1.3994C16.8165 1.32335 16.6718 1.25588 16.5298 1.19604C16.3902 1.13665 16.2478 1.0839 16.1032 1.03797C15.9578 0.992161 15.8064 0.952885 15.6398 0.918991C15.4732 0.885097 15.2915 0.856841 15.0859 0.832814C14.8803 0.808787 14.6507 0.789373 14.3882 0.773227C14.1256 0.757081 13.8303 0.744394 13.4931 0.734142L12.3471 0.708514L10.8967 0.691406L9.03937 0.680001L9.03873 0.679874ZM10.0033 2.44199L12.6817 2.45724L13.6922 2.47671C13.9704 2.48453 14.1828 2.49369 14.3073 2.50426C14.4694 2.51791 14.6238 2.53502 14.7715 2.55552C14.9132 2.57509 15.0542 2.59943 15.1943 2.6285C15.3289 2.65669 15.4572 2.68873 15.5801 2.72487C15.7029 2.761 15.8202 2.80149 15.9328 2.84628C16.0453 2.89107 16.153 2.94034 16.2566 2.99429C16.3594 3.04783 16.4592 3.10675 16.5558 3.17081C16.6519 3.23456 16.7446 3.30324 16.8345 3.37725C16.9245 3.45125 17.0117 3.53057 17.0968 3.6154C17.1867 3.70491 17.2696 3.79609 17.3461 3.89015C17.4222 3.98362 17.4927 4.08159 17.5571 4.18353C17.6222 4.28692 17.6809 4.39423 17.7327 4.50485C17.7858 4.61762 17.8335 4.7368 17.8763 4.86347C17.9191 4.99014 17.9572 5.12475 17.991 5.26859C18.0263 5.42109 18.0559 5.57487 18.0798 5.72959C18.1054 5.89362 18.1273 6.06854 18.1459 6.25582C18.1645 6.4431 18.1798 6.64281 18.1925 6.8565C18.2027 7.02789 18.2115 7.25406 18.219 7.52118L18.2378 8.43197L18.2521 10.663L18.2358 12.8918L18.2162 13.8L18.1892 14.4605C18.1705 14.7698 18.1508 15.0298 18.1272 15.2561C18.1153 15.3693 18.1025 15.4739 18.0883 15.5722C18.075 15.665 18.0592 15.7574 18.0409 15.8493C18.0243 15.9332 18.0049 16.0166 17.983 16.0992C17.9619 16.1781 17.9382 16.2563 17.9119 16.3335C17.8854 16.4112 17.8566 16.488 17.8255 16.5639C17.7926 16.6441 17.7579 16.7235 17.7213 16.8021C17.6889 16.8723 17.6547 16.9405 17.6186 17.0069C17.5828 17.0727 17.5449 17.1372 17.5048 17.2004C17.4651 17.263 17.4234 17.3238 17.3798 17.3827C17.3365 17.4414 17.2911 17.4985 17.2436 17.5539C17.1963 17.6091 17.147 17.6625 17.0958 17.7141C17.0445 17.7657 16.9914 17.8155 16.9363 17.8635C16.8812 17.9116 16.824 17.9577 16.7649 18.0022C16.7057 18.0466 16.6445 18.0893 16.5813 18.1302C16.5181 18.1711 16.4528 18.2103 16.3855 18.2477C16.3182 18.2851 16.2487 18.3209 16.1773 18.3549C16.1046 18.3894 16.0309 18.4218 15.9563 18.4519C15.8792 18.483 15.8012 18.512 15.7224 18.5387C15.5622 18.5933 15.3933 18.6412 15.2154 18.6826C15.03 18.7254 14.843 18.7604 14.6547 18.7875C14.5823 18.7981 14.4159 18.808 14.1775 18.8172L13.2692 18.8425L10.6942 18.8759L7.9989 18.8802L6.94043 18.8689L6.25313 18.8475L5.74632 18.8119C5.58895 18.7986 5.44261 18.7839 5.3055 18.7671C5.16838 18.7504 5.04069 18.7318 4.92055 18.7107C4.80671 18.6911 4.69356 18.6676 4.58129 18.6403C4.47893 18.6154 4.37761 18.5863 4.27759 18.5533C4.18116 18.5212 4.08896 18.486 3.99926 18.4472C3.90956 18.4085 3.82242 18.366 3.73611 18.3196C3.64981 18.2732 3.5644 18.2228 3.47803 18.1679C3.41287 18.1265 3.34989 18.0846 3.28927 18.0402C3.22866 17.9958 3.1701 17.9516 3.11372 17.9052C3.05733 17.8588 3.00319 17.811 2.95097 17.7618C2.8991 17.7128 2.84901 17.662 2.80079 17.6094C2.75273 17.557 2.70679 17.503 2.66271 17.4472C2.61846 17.3911 2.57629 17.3334 2.5363 17.2742C2.49571 17.2141 2.45731 17.1525 2.42116 17.0897C2.38464 17.0262 2.34991 16.9606 2.31691 16.893C2.28336 16.824 2.25206 16.754 2.22305 16.683C2.19358 16.6107 2.16564 16.5361 2.13937 16.4591C2.08683 16.305 2.0407 16.141 2.00059 15.9661C1.96048 15.7912 1.92627 15.6054 1.89731 15.4074C1.86835 15.2094 1.84502 14.9995 1.82644 14.7764C1.81273 14.612 1.80184 14.3561 1.79351 14.0332L1.77608 12.8847L1.78249 9.95688L1.83291 7.15924L1.87136 6.17355L1.89314 5.84774C1.9007 5.76073 1.90852 5.69628 1.91653 5.65758C1.94293 5.53026 1.96952 5.4118 1.997 5.30089C2.02268 5.19626 2.05125 5.09236 2.08267 4.9893C2.11252 4.89204 2.14398 4.80093 2.17762 4.71463C2.21006 4.63102 2.24621 4.54891 2.28597 4.46852C2.3248 4.39036 2.36651 4.31552 2.41181 4.24267C2.4571 4.16982 2.50599 4.09915 2.5593 4.02886C2.61261 3.95857 2.67002 3.88918 2.73249 3.81883C2.79496 3.74848 2.86243 3.67743 2.9356 3.60419C3.02087 3.51843 3.10967 3.43624 3.20175 3.35783C3.2887 3.28386 3.37937 3.21438 3.47342 3.14966C3.56587 3.08559 3.6607 3.02857 3.75944 2.97616C3.85817 2.92374 3.96081 2.8764 4.06878 2.83379C4.17674 2.79118 4.29015 2.75306 4.41028 2.71846C4.53649 2.68306 4.6641 2.65285 4.79279 2.62792C4.92811 2.6014 5.07183 2.57827 5.22528 2.55808C5.37873 2.5379 5.54199 2.52047 5.71652 2.50535C5.83826 2.49485 6.04803 2.48549 6.32425 2.47761L7.32954 2.45775L10.0038 2.44141L10.0033 2.44199Z" fill="white"/>
</g>
<defs>
<clipPath id="clip0_471_991">
<rect width="20" height="20" fill="white" transform="translate(0 0.664062)"/>
</clipPath>
</defs>
</svg>
