<svg width="183" height="55" viewBox="0 0 183 55" fill="none" xmlns="http://www.w3.org/2000/svg">
<path d="M160.083 5.60055C160.083 5.60055 160.898 4.26631 161.024 3.76481C161.149 3.26357 161.087 2.98067 160.835 2.82414C160.584 2.66761 157.512 4.04647 157.512 4.04647C157.512 4.04647 157.857 1.5071 156.258 2.04C154.66 2.5729 152.495 4.10953 152.495 4.10953C152.495 4.10953 140.769 1.23567 137.3 0.483177C133.831 -0.269311 130.654 -0.35281 125.804 1.65366C120.955 3.66013 112.594 4.65564 109.751 6.83384C109.751 6.83384 107.076 6.76081 103.899 7.80317C100.722 8.84454 85.0031 11.6035 82.4954 11.52C79.9877 11.4365 77.73 13.3951 67.8636 8.69499C57.9983 3.99462 58.9175 6.08534 45.0382 2.40615C31.1599 -1.27205 23.2166 3.15864 19.8729 10.433C16.5292 17.7072 20.7973 17.0167 24.9728 10.6628C24.9728 10.6628 30.5742 1.57041 43.8687 7.75731C57.162 13.9445 70.0376 13.5265 65.6901 18.9611C61.3427 24.3958 60.2557 29.997 56.744 30.6662C53.2323 31.3354 51.9786 32.7559 49.0519 32.4224C46.1252 32.0877 45.7072 34.0942 45.206 35.8506C44.7045 37.6068 43.952 40.7838 44.37 42.0375C44.788 43.2915 44.3109 48.7259 45.762 50.3979C47.2132 52.0696 47.7979 51.3171 47.7979 51.3171C47.7979 51.3171 48.0489 54.6618 50.4734 53.4069C50.4734 53.4069 54.3196 55.7481 52.8143 51.0659C52.8143 51.0659 55.7411 52.8221 55.9078 52.2364C56.0745 51.6504 55.1137 50.1048 54.424 49.7284C53.7346 49.352 53.17 47.6589 51.4769 47.4707C51.4769 47.4707 51.7281 43.3947 51.7281 42.454C51.7281 41.5136 52.6688 41.7644 53.1703 41.7013C53.6715 41.6382 55.3647 40.5727 55.3647 40.5727C55.3647 40.5727 68.3449 41.5134 72.7342 37.1243C77.1235 32.7352 84.3974 31.9194 84.3974 31.9194C84.3974 31.9194 94.3674 34.2392 98.1925 31.5431C98.1925 31.5431 112.928 34.5533 125.031 26.4015C125.031 26.4015 129.859 30.3524 131.238 30.8536C132.618 31.3549 133.997 34.1138 132.43 35.1176C130.862 36.1211 129.608 38.629 130.235 39.1305C130.235 39.1305 129.294 41.3882 130.925 41.7641C130.925 41.7641 132.555 43.8339 133.872 41.8892C133.872 41.8892 135.565 41.5131 136.506 39.5064C137.446 37.4999 138.136 38.6911 138.324 36.8728C138.324 36.8728 140.142 33.0655 139.201 29.7958C139.201 29.7958 140.958 29.4733 141.835 30.6652C142.713 31.8569 143.341 30.6652 144.281 32.1071C145.222 33.549 147.479 35.6186 148.357 35.4935C149.235 35.3686 150.489 36.5592 151.179 35.3055C151.87 34.0515 154.001 34.2397 153.499 32.4835C153.499 32.4835 154.752 30.6021 152.746 30.1007C150.74 29.5992 153.875 26.5892 148.106 26.5892C148.106 26.5892 147.165 26.401 146.601 25.4604C146.036 24.5197 140.707 20.8831 139.264 20.6949C139.264 20.6949 143.215 15.2391 148.044 16.682C152.872 18.1242 154.063 18.8136 155.882 18.9397C157.701 19.0648 159.269 22.8908 162.09 19.6294C162.09 19.6294 163.72 18.8766 163.658 18.1875C163.658 18.1875 164.598 17.3719 164.723 16.7453C164.849 16.1179 163.281 14.0497 163.219 12.9205C163.155 11.7917 164.096 10.258 160.083 5.60055Z" fill="white"/>
</svg>
