<svg width="183" height="55" viewBox="0 0 183 55" fill="none" xmlns="http://www.w3.org/2000/svg">
<path fill-rule="evenodd" clip-rule="evenodd" d="M113.571 42.8493C103.034 50.6406 87.708 54.7912 74.489 54.7912C55.9696 54.7912 39.3662 47.9582 26.722 36.5913C25.7641 35.6975 26.5943 34.4839 27.8075 35.1863C41.4096 43.1048 58.2048 47.8305 75.5745 47.8305C87.2609 47.8305 100.16 45.404 112.038 40.3589C113.826 39.6565 115.295 41.5722 113.571 42.8493H113.571Z" fill="#FF9900"/>
<path fill-rule="evenodd" clip-rule="evenodd" d="M117.978 37.8053C116.637 36.0812 109.037 36.9751 105.653 37.4222C104.631 37.5498 104.44 36.6559 105.397 36.0172C111.464 31.7386 121.362 33.0157 122.512 34.4207C123.661 35.8257 122.193 45.787 116.508 50.5133C115.614 51.2157 114.784 50.8325 115.167 49.8746C116.445 46.6816 119.319 39.5929 117.978 37.8053Z" fill="#FF9900"/>
<path fill-rule="evenodd" clip-rule="evenodd" d="M105.84 6.00376V1.85184C105.833 1.71575 105.855 1.57965 105.903 1.45239C105.952 1.32513 106.027 1.20957 106.124 1.1132C106.22 1.01683 106.336 0.941814 106.463 0.89303C106.59 0.844245 106.726 0.822782 106.862 0.830035H125.382C125.66 0.824166 125.93 0.927934 126.133 1.11902C126.336 1.3101 126.456 1.57324 126.467 1.85184V5.36414C126.467 5.93887 125.957 6.70478 125.062 7.98247L115.484 21.6485C119.06 21.5846 122.828 22.0954 126.02 23.8829C126.723 24.2661 126.914 24.9047 126.978 25.4795V29.8857C126.978 30.5244 126.34 31.2264 125.638 30.8436C119.954 27.8421 112.355 27.5229 106.097 30.9075C105.458 31.2267 104.756 30.5883 104.756 29.9496V25.7353C104.756 25.0967 104.756 23.9478 105.458 22.9256L116.57 7.02459H106.926C106.648 7.03047 106.378 6.92684 106.175 6.73596C105.972 6.54508 105.852 6.28219 105.84 6.00376ZM38.3409 31.7381H32.7212C32.4694 31.7127 32.2329 31.6052 32.0482 31.4321C31.8636 31.259 31.741 31.0299 31.6994 30.7802V1.91576C31.7105 1.6372 31.8304 1.37409 32.0334 1.18301C32.2364 0.99193 32.5062 0.888137 32.785 0.893955H38.0214C38.2804 0.897871 38.5286 0.998195 38.7176 1.17533C38.9065 1.35245 39.0226 1.59367 39.0432 1.85184V5.61964H39.1709C40.5115 1.97969 43.1303 0.2555 46.5786 0.2555C50.0909 0.2555 52.3259 1.97969 53.8587 5.61964C55.1994 1.97969 58.3289 0.2555 61.65 0.2555C64.0129 0.2555 66.5673 1.21338 68.1638 3.44857C69.9513 5.87513 69.5688 9.38743 69.5688 12.5166V30.7804C69.5577 31.059 69.4378 31.3221 69.2348 31.5132C69.0318 31.7043 68.762 31.8081 68.4832 31.8022H62.9268C62.352 31.7383 61.9049 31.2914 61.9049 30.7804V15.4539C61.9049 14.2406 62.0326 11.1753 61.7773 10.0259C61.3304 8.11012 60.117 7.5354 58.4566 7.5354C57.7234 7.55627 57.0124 7.79108 56.4111 8.2109C55.8097 8.63072 55.3442 9.21724 55.0719 9.89824C54.4972 11.3669 54.5611 13.7937 54.5611 15.4539V30.7804C54.5501 31.059 54.4302 31.3221 54.2272 31.5132C54.0242 31.7043 53.7543 31.8081 53.4756 31.8022H47.8559C47.2812 31.7383 46.8341 31.2914 46.8341 30.7804V15.4539C46.8341 12.2609 47.3449 7.47147 43.3858 7.47147C39.3627 7.47147 39.4903 12.0693 39.4903 15.4539V30.7804C39.4502 31.0536 39.3107 31.3023 39.0986 31.479C38.8866 31.6558 38.6168 31.7481 38.3409 31.7383V31.7381ZM142.432 0.2555C150.798 0.2555 155.332 7.40775 155.332 16.5397C155.332 25.3524 150.351 32.3768 142.432 32.3768C134.258 32.3768 129.788 25.2245 129.788 16.2842C129.724 7.2799 134.258 0.254724 142.432 0.254724V0.2555ZM142.432 6.19436C138.281 6.19436 138.026 11.8779 138.026 15.3902C138.026 18.9025 137.962 26.4379 142.368 26.4379C146.711 26.4379 146.966 20.3712 146.966 16.6673C146.966 14.2406 146.839 11.3032 146.136 9.00408C145.497 6.96047 144.22 6.19436 142.432 6.19436ZM166.124 31.7381H160.504C159.93 31.6742 159.483 31.2273 159.483 30.7163V1.78752C159.518 1.52382 159.647 1.2817 159.846 1.1057C160.046 0.929694 160.302 0.831665 160.568 0.829644H165.805C166.042 0.838017 166.27 0.923615 166.455 1.07345C166.639 1.22328 166.77 1.42916 166.827 1.65987V6.06613H166.954C168.551 2.10676 170.722 0.254913 174.617 0.254913C177.108 0.254913 179.598 1.14868 181.195 3.63956C182.664 5.93848 182.664 9.83392 182.664 12.6438V30.8438C182.625 31.1006 182.493 31.334 182.292 31.4991C182.092 31.6641 181.837 31.7491 181.578 31.7375H175.958C175.447 31.6736 175 31.2907 174.936 30.8438V15.1347C174.936 11.9417 175.319 7.34343 171.424 7.34343C170.083 7.34343 168.806 8.23719 168.167 9.64235C167.401 11.4299 167.273 13.1546 167.273 15.1343V30.7169C167.238 30.9974 167.101 31.2555 166.89 31.4433C166.679 31.6312 166.407 31.7361 166.124 31.7387L166.124 31.7381ZM91.0892 17.9446C91.0892 20.1159 91.1532 21.9677 90.0674 23.9484C89.1737 25.5449 87.7685 26.5028 86.172 26.5028C84.0007 26.5028 82.7236 24.8425 82.7236 22.4158C82.7236 17.6264 87.0022 16.7322 91.0892 16.7322V17.9446ZM96.7728 31.6744C96.5908 31.8333 96.3635 31.931 96.123 31.9539C95.8825 31.9768 95.6409 31.9237 95.4322 31.8021C93.5803 30.2694 93.1977 29.5031 92.1753 28.0343C89.1101 31.1624 86.8749 32.1213 82.9158 32.1213C78.1901 32.1213 74.4862 29.1837 74.4862 23.3725C74.4862 18.7747 76.9767 15.7094 80.49 14.1766C83.5552 12.836 87.8344 12.5801 91.0906 12.197V11.4946C91.0906 10.1539 91.2182 8.55701 90.3882 7.40755C89.6858 6.38575 88.4085 5.93886 87.26 5.93886C85.0888 5.93886 83.173 7.0244 82.7259 9.32351C82.5983 9.83431 82.2791 10.3453 81.7681 10.3453L76.34 9.77058C75.8931 9.64293 75.3821 9.3237 75.5098 8.62113C76.7869 1.97969 82.7259 0 88.0901 0C90.8361 0 94.4121 0.702381 96.5834 2.80972C99.3293 5.36414 99.0738 8.81348 99.0738 12.5164V21.2652C99.0738 23.8835 100.159 25.033 101.181 26.5016C101.564 27.0124 101.628 27.6511 101.181 27.9703C99.9678 28.9282 97.9244 30.7163 96.7749 31.6742L96.7728 31.6744ZM17.331 17.9446C17.331 20.1159 17.3949 21.9677 16.3092 23.9484C15.4154 25.5449 14.0103 26.5028 12.4138 26.5028C10.2425 26.5028 8.96538 24.8425 8.96538 22.4158C8.96538 17.6264 13.244 16.7322 17.331 16.7322V17.9446ZM22.9506 31.6744C22.7686 31.8333 22.5414 31.931 22.3009 31.9539C22.0604 31.9768 21.8187 31.9237 21.61 31.8021C19.7582 30.2694 19.3756 29.5031 18.3532 28.0343C15.288 31.1624 13.0528 32.1213 9.09361 32.1213C4.36793 32.1213 0.664062 29.1837 0.664062 23.3725C0.664062 18.7747 3.15455 15.7094 6.66782 14.1766C9.73304 12.836 14.0122 12.5801 17.2684 12.197V11.4946C17.2684 10.1539 17.3961 8.55701 16.5661 7.40755C15.8637 6.38575 14.5864 5.93886 13.4379 5.93886C11.2666 5.93886 9.35086 7.0244 8.90379 9.32351C8.77613 9.83431 8.4569 10.3453 7.9459 10.3453L2.51784 9.77058C2.07096 9.64293 1.55996 9.3237 1.68762 8.62113C2.96473 1.97969 8.90379 0 14.2679 0C17.0139 0 20.5899 0.702381 22.7612 2.80972C25.5072 5.36414 25.2517 8.81348 25.2517 12.5164V21.2652C25.2517 23.8835 26.3372 25.033 27.359 26.5016C27.7422 27.0124 27.8059 27.6511 27.359 27.9703C26.1456 28.9282 24.1022 30.7163 22.9528 31.6742L22.9506 31.6744Z" fill="white"/>
</svg>
