<svg width="41" height="42" viewBox="0 0 41 42" fill="none" xmlns="http://www.w3.org/2000/svg">
<path d="M20.9766 2.84898C20.6707 2.72506 20.3293 2.72506 20.0234 2.84898L4.73037 9.03142L20.5 15.4055L36.2696 9.03142L20.9766 2.84898ZM38.4375 10.9455L21.7812 17.6796V38.1979L38.4375 31.4638V10.948V10.9455ZM19.2188 38.2005V17.677L2.5625 10.9455V31.4664L19.2188 38.2005ZM19.0727 0.442823C19.9889 0.0724444 21.0111 0.0724444 21.9273 0.442823L40.1954 7.82963C40.4329 7.92584 40.6365 8.09173 40.7799 8.30592C40.9233 8.52011 40.9999 8.77279 41 9.03142V31.4664C40.9997 31.9839 40.846 32.4895 40.5587 32.9179C40.2714 33.3464 39.8637 33.6779 39.3882 33.87L20.9766 41.3137C20.6707 41.4377 20.3293 41.4377 20.0234 41.3137L1.61437 33.87C1.13839 33.6784 0.730165 33.3469 0.442395 32.9185C0.154626 32.49 0.000528719 31.9842 0 31.4664L0 9.03142C5.95524e-05 8.77279 0.0767308 8.52011 0.220137 8.30592C0.363543 8.09173 0.567114 7.92584 0.804625 7.82963L19.0727 0.442823Z" fill="white"/>
</svg>
