<svg width="456" height="109" viewBox="0 0 456 109" fill="none" xmlns="http://www.w3.org/2000/svg">
<mask id="path-1-outside-1_765_2443" maskUnits="userSpaceOnUse" x="0.460938" y="0" width="456" height="109" fill="black">
<rect fill="white" x="0.460938" width="456" height="109"/>
<path d="M2.46094 84.2639V6.44567H33.1626C39.0649 6.44567 44.0932 7.57292 48.2475 9.82742C52.4019 12.0566 55.5683 15.1597 57.7468 19.1367C59.9506 23.0884 61.0526 27.6481 61.0526 32.8157C61.0526 37.9833 59.938 42.543 57.7088 46.4947C55.4796 50.4464 52.2499 53.5241 48.0195 55.728C43.8145 57.9318 38.7229 59.0337 32.7447 59.0337H13.1761V45.8487H30.0849C33.2513 45.8487 35.8604 45.3041 37.9123 44.2148C39.9895 43.1003 41.5347 41.5677 42.5479 39.6172C43.5865 37.6413 44.1058 35.3742 44.1058 32.8157C44.1058 30.2319 43.5865 27.9774 42.5479 26.0522C41.5347 24.1017 39.9895 22.5945 37.9123 21.5305C35.8351 20.4413 33.2006 19.8967 30.0089 19.8967H18.9137V84.2639H2.46094ZM71.4353 84.2639V25.9002H87.1281V36.0835H87.7361C88.8 32.4611 90.5858 29.7253 93.0937 27.8761C95.6015 26.0015 98.4893 25.0643 101.757 25.0643C102.568 25.0643 103.442 25.1149 104.379 25.2163C105.316 25.3176 106.139 25.4569 106.849 25.6342V39.9972C106.089 39.7692 105.037 39.5665 103.695 39.3892C102.352 39.2119 101.124 39.1232 100.009 39.1232C97.628 39.1232 95.5002 39.6425 93.6256 40.6811C91.7764 41.6944 90.3072 43.1129 89.2179 44.9368C88.154 46.7607 87.6221 48.8632 87.6221 51.2443V84.2639H71.4353ZM138.871 85.4038C132.969 85.4038 127.864 84.1499 123.558 81.6421C119.277 79.1089 115.971 75.5878 113.641 71.0788C111.31 66.5445 110.145 61.2882 110.145 55.31C110.145 49.2811 111.31 44.0122 113.641 39.5032C115.971 34.9689 119.277 31.4478 123.558 28.94C127.864 26.4068 132.969 25.1403 138.871 25.1403C144.773 25.1403 149.865 26.4068 154.146 28.94C158.452 31.4478 161.77 34.9689 164.101 39.5032C166.431 44.0122 167.597 49.2811 167.597 55.31C167.597 61.2882 166.431 66.5445 164.101 71.0788C161.77 75.5878 158.452 79.1089 154.146 81.6421C149.865 84.1499 144.773 85.4038 138.871 85.4038ZM138.947 72.8647C141.632 72.8647 143.874 72.1048 145.672 70.5849C147.471 69.0397 148.826 66.9371 149.738 64.2773C150.675 61.6175 151.144 58.5904 151.144 55.196C151.144 51.8016 150.675 48.7745 149.738 46.1147C148.826 43.4549 147.471 41.3524 145.672 39.8072C143.874 38.262 141.632 37.4893 138.947 37.4893C136.236 37.4893 133.956 38.262 132.107 39.8072C130.283 41.3524 128.903 43.4549 127.966 46.1147C127.054 48.7745 126.598 51.8016 126.598 55.196C126.598 58.5904 127.054 61.6175 127.966 64.2773C128.903 66.9371 130.283 69.0397 132.107 70.5849C133.956 72.1048 136.236 72.8647 138.947 72.8647ZM178.122 25.9002H194.309V87.1516C194.309 91.6606 193.422 95.3084 191.649 98.0948C189.876 100.881 187.33 102.92 184.011 104.212C180.718 105.504 176.779 106.15 172.194 106.15C171.637 106.15 171.105 106.138 170.598 106.112C170.066 106.112 169.509 106.1 168.926 106.074V93.4212C169.357 93.4465 169.737 93.4592 170.066 93.4592C170.37 93.4845 170.7 93.4972 171.054 93.4972C173.663 93.4972 175.487 92.9399 176.526 91.8253C177.59 90.736 178.122 89.0895 178.122 86.8857V25.9002ZM186.177 18.3768C183.796 18.3768 181.744 17.5788 180.022 15.983C178.299 14.3617 177.438 12.4239 177.438 10.1694C177.438 7.94022 178.299 6.0277 180.022 4.43182C181.744 2.81061 183.796 2 186.177 2C188.609 2 190.674 2.81061 192.371 4.43182C194.093 6.0277 194.955 7.94022 194.955 10.1694C194.955 12.4239 194.093 14.3617 192.371 15.983C190.674 17.5788 188.609 18.3768 186.177 18.3768ZM233.873 85.4038C227.87 85.4038 222.702 84.1879 218.37 81.756C214.064 79.2989 210.746 75.8285 208.415 71.3448C206.085 66.8358 204.919 61.5036 204.919 55.348C204.919 49.3445 206.085 44.0755 208.415 39.5412C210.746 35.0069 214.026 31.4731 218.256 28.94C222.512 26.4068 227.502 25.1403 233.227 25.1403C237.078 25.1403 240.662 25.7609 243.98 27.0021C247.324 28.218 250.237 30.0546 252.72 32.5117C255.228 34.9689 257.178 38.0593 258.571 41.783C259.965 45.4814 260.661 49.8131 260.661 54.7781V59.2237H211.379V49.1925H245.424C245.424 46.862 244.918 44.7975 243.904 42.9989C242.891 41.2004 241.485 39.7945 239.687 38.7813C237.914 37.7427 235.849 37.2234 233.493 37.2234C231.036 37.2234 228.858 37.7933 226.958 38.9332C225.083 40.0478 223.614 41.555 222.55 43.4549C221.486 45.3294 220.941 47.4193 220.916 49.7244V59.2617C220.916 62.1495 221.448 64.6447 222.512 66.7472C223.601 68.8497 225.134 70.4709 227.11 71.6108C229.085 72.7507 231.429 73.3207 234.139 73.3207C235.938 73.3207 237.584 73.0674 239.079 72.5607C240.573 72.0541 241.853 71.2942 242.916 70.2809C243.98 69.2676 244.791 68.0264 245.348 66.5572L260.319 67.5451C259.559 71.1422 258.001 74.2833 255.646 76.9684C253.315 79.6282 250.301 81.7054 246.602 83.1999C242.929 84.6692 238.686 85.4038 233.873 85.4038ZM297.594 85.4038C291.616 85.4038 286.474 84.1372 282.168 81.604C277.887 79.0456 274.593 75.4992 272.288 70.9649C270.008 66.4305 268.869 61.2122 268.869 55.31C268.869 49.3318 270.021 44.0882 272.326 39.5792C274.657 35.0449 277.963 31.5111 282.244 28.978C286.525 26.4195 291.616 25.1403 297.518 25.1403C302.61 25.1403 307.068 26.0649 310.893 27.9141C314.718 29.7633 317.746 32.3597 319.975 35.7035C322.204 39.0472 323.432 42.9736 323.66 47.4826H308.386C307.955 44.5695 306.815 42.2263 304.966 40.4531C303.142 38.6546 300.748 37.7553 297.784 37.7553C295.277 37.7553 293.085 38.4393 291.211 39.8072C289.362 41.1497 287.918 43.1129 286.879 45.6967C285.841 48.2805 285.321 51.409 285.321 55.082C285.321 58.8058 285.828 61.9722 286.841 64.5813C287.88 67.1905 289.336 69.179 291.211 70.5469C293.085 71.9148 295.277 72.5987 297.784 72.5987C299.634 72.5987 301.293 72.2188 302.762 71.4588C304.257 70.6989 305.485 69.597 306.448 68.1531C307.436 66.6838 308.082 64.9233 308.386 62.8715H323.66C323.407 67.3298 322.191 71.2562 320.013 74.6506C317.86 78.0197 314.883 80.6541 311.083 82.554C307.284 84.4538 302.787 85.4038 297.594 85.4038ZM365.068 25.9002V38.0593H329.92V25.9002H365.068ZM337.9 11.9173H354.087V66.3292C354.087 67.8237 354.315 68.989 354.771 69.8249C355.227 70.6355 355.86 71.2055 356.67 71.5348C357.506 71.8641 358.469 72.0288 359.558 72.0288C360.318 72.0288 361.078 71.9654 361.838 71.8388C362.598 71.6868 363.181 71.5728 363.586 71.4968L366.132 83.5419C365.321 83.7952 364.181 84.0865 362.712 84.4158C361.243 84.7705 359.457 84.9858 357.354 85.0618C353.453 85.2138 350.034 84.6945 347.095 83.5039C344.182 82.3133 341.915 80.4641 340.294 77.9563C338.672 75.4485 337.875 72.2821 337.9 68.457V11.9173ZM423.441 42.543L408.622 43.4549C408.369 42.1883 407.824 41.0484 406.988 40.0352C406.152 38.9966 405.05 38.1733 403.682 37.5653C402.34 36.9321 400.731 36.6154 398.857 36.6154C396.349 36.6154 394.234 37.1474 392.511 38.2113C390.789 39.2499 389.927 40.6431 389.927 42.391C389.927 43.7842 390.485 44.9621 391.599 45.9247C392.714 46.8873 394.626 47.6599 397.337 48.2425L407.9 50.3704C413.574 51.5356 417.805 53.4102 420.591 55.994C423.378 58.5778 424.771 61.9722 424.771 66.1772C424.771 70.0023 423.644 73.3587 421.389 76.2465C419.16 79.1342 416.095 81.3887 412.194 83.0099C408.318 84.6058 403.847 85.4038 398.781 85.4038C391.055 85.4038 384.899 83.7952 380.314 80.5781C375.755 77.3357 373.082 72.928 372.297 67.3551L388.218 66.5192C388.699 68.875 389.864 70.6735 391.713 71.9148C393.563 73.1307 395.931 73.7386 398.819 73.7386C401.656 73.7386 403.936 73.194 405.658 72.1048C407.406 70.9902 408.293 69.559 408.318 67.8111C408.293 66.3419 407.672 65.1386 406.456 64.2014C405.24 63.2388 403.366 62.5041 400.833 61.9975L390.725 59.9837C385.026 58.8438 380.783 56.8679 377.996 54.0561C375.235 51.2443 373.855 47.6599 373.855 43.3029C373.855 39.5539 374.868 36.3241 376.894 33.6136C378.946 30.9032 381.821 28.8133 385.52 27.3441C389.244 25.8749 393.601 25.1403 398.591 25.1403C405.962 25.1403 411.763 26.6982 415.994 29.8139C420.249 32.9297 422.732 37.1727 423.441 42.543ZM444.425 85.2518C441.917 85.2518 439.764 84.3652 437.965 82.592C436.192 80.7934 435.306 78.6403 435.306 76.1325C435.306 73.65 436.192 71.5221 437.965 69.7489C439.764 67.9757 441.917 67.0891 444.425 67.0891C446.857 67.0891 448.985 67.9757 450.808 69.7489C452.632 71.5221 453.544 73.65 453.544 76.1325C453.544 77.8043 453.114 79.3369 452.252 80.7301C451.416 82.098 450.314 83.1999 448.947 84.0359C447.579 84.8465 446.071 85.2518 444.425 85.2518Z"/>
</mask>
<path d="M2.46094 84.2639V6.44567H33.1626C39.0649 6.44567 44.0932 7.57292 48.2475 9.82742C52.4019 12.0566 55.5683 15.1597 57.7468 19.1367C59.9506 23.0884 61.0526 27.6481 61.0526 32.8157C61.0526 37.9833 59.938 42.543 57.7088 46.4947C55.4796 50.4464 52.2499 53.5241 48.0195 55.728C43.8145 57.9318 38.7229 59.0337 32.7447 59.0337H13.1761V45.8487H30.0849C33.2513 45.8487 35.8604 45.3041 37.9123 44.2148C39.9895 43.1003 41.5347 41.5677 42.5479 39.6172C43.5865 37.6413 44.1058 35.3742 44.1058 32.8157C44.1058 30.2319 43.5865 27.9774 42.5479 26.0522C41.5347 24.1017 39.9895 22.5945 37.9123 21.5305C35.8351 20.4413 33.2006 19.8967 30.0089 19.8967H18.9137V84.2639H2.46094ZM71.4353 84.2639V25.9002H87.1281V36.0835H87.7361C88.8 32.4611 90.5858 29.7253 93.0937 27.8761C95.6015 26.0015 98.4893 25.0643 101.757 25.0643C102.568 25.0643 103.442 25.1149 104.379 25.2163C105.316 25.3176 106.139 25.4569 106.849 25.6342V39.9972C106.089 39.7692 105.037 39.5665 103.695 39.3892C102.352 39.2119 101.124 39.1232 100.009 39.1232C97.628 39.1232 95.5002 39.6425 93.6256 40.6811C91.7764 41.6944 90.3072 43.1129 89.2179 44.9368C88.154 46.7607 87.6221 48.8632 87.6221 51.2443V84.2639H71.4353ZM138.871 85.4038C132.969 85.4038 127.864 84.1499 123.558 81.6421C119.277 79.1089 115.971 75.5878 113.641 71.0788C111.31 66.5445 110.145 61.2882 110.145 55.31C110.145 49.2811 111.31 44.0122 113.641 39.5032C115.971 34.9689 119.277 31.4478 123.558 28.94C127.864 26.4068 132.969 25.1403 138.871 25.1403C144.773 25.1403 149.865 26.4068 154.146 28.94C158.452 31.4478 161.77 34.9689 164.101 39.5032C166.431 44.0122 167.597 49.2811 167.597 55.31C167.597 61.2882 166.431 66.5445 164.101 71.0788C161.77 75.5878 158.452 79.1089 154.146 81.6421C149.865 84.1499 144.773 85.4038 138.871 85.4038ZM138.947 72.8647C141.632 72.8647 143.874 72.1048 145.672 70.5849C147.471 69.0397 148.826 66.9371 149.738 64.2773C150.675 61.6175 151.144 58.5904 151.144 55.196C151.144 51.8016 150.675 48.7745 149.738 46.1147C148.826 43.4549 147.471 41.3524 145.672 39.8072C143.874 38.262 141.632 37.4893 138.947 37.4893C136.236 37.4893 133.956 38.262 132.107 39.8072C130.283 41.3524 128.903 43.4549 127.966 46.1147C127.054 48.7745 126.598 51.8016 126.598 55.196C126.598 58.5904 127.054 61.6175 127.966 64.2773C128.903 66.9371 130.283 69.0397 132.107 70.5849C133.956 72.1048 136.236 72.8647 138.947 72.8647ZM178.122 25.9002H194.309V87.1516C194.309 91.6606 193.422 95.3084 191.649 98.0948C189.876 100.881 187.33 102.92 184.011 104.212C180.718 105.504 176.779 106.15 172.194 106.15C171.637 106.15 171.105 106.138 170.598 106.112C170.066 106.112 169.509 106.1 168.926 106.074V93.4212C169.357 93.4465 169.737 93.4592 170.066 93.4592C170.37 93.4845 170.7 93.4972 171.054 93.4972C173.663 93.4972 175.487 92.9399 176.526 91.8253C177.59 90.736 178.122 89.0895 178.122 86.8857V25.9002ZM186.177 18.3768C183.796 18.3768 181.744 17.5788 180.022 15.983C178.299 14.3617 177.438 12.4239 177.438 10.1694C177.438 7.94022 178.299 6.0277 180.022 4.43182C181.744 2.81061 183.796 2 186.177 2C188.609 2 190.674 2.81061 192.371 4.43182C194.093 6.0277 194.955 7.94022 194.955 10.1694C194.955 12.4239 194.093 14.3617 192.371 15.983C190.674 17.5788 188.609 18.3768 186.177 18.3768ZM233.873 85.4038C227.87 85.4038 222.702 84.1879 218.37 81.756C214.064 79.2989 210.746 75.8285 208.415 71.3448C206.085 66.8358 204.919 61.5036 204.919 55.348C204.919 49.3445 206.085 44.0755 208.415 39.5412C210.746 35.0069 214.026 31.4731 218.256 28.94C222.512 26.4068 227.502 25.1403 233.227 25.1403C237.078 25.1403 240.662 25.7609 243.98 27.0021C247.324 28.218 250.237 30.0546 252.72 32.5117C255.228 34.9689 257.178 38.0593 258.571 41.783C259.965 45.4814 260.661 49.8131 260.661 54.7781V59.2237H211.379V49.1925H245.424C245.424 46.862 244.918 44.7975 243.904 42.9989C242.891 41.2004 241.485 39.7945 239.687 38.7813C237.914 37.7427 235.849 37.2234 233.493 37.2234C231.036 37.2234 228.858 37.7933 226.958 38.9332C225.083 40.0478 223.614 41.555 222.55 43.4549C221.486 45.3294 220.941 47.4193 220.916 49.7244V59.2617C220.916 62.1495 221.448 64.6447 222.512 66.7472C223.601 68.8497 225.134 70.4709 227.11 71.6108C229.085 72.7507 231.429 73.3207 234.139 73.3207C235.938 73.3207 237.584 73.0674 239.079 72.5607C240.573 72.0541 241.853 71.2942 242.916 70.2809C243.98 69.2676 244.791 68.0264 245.348 66.5572L260.319 67.5451C259.559 71.1422 258.001 74.2833 255.646 76.9684C253.315 79.6282 250.301 81.7054 246.602 83.1999C242.929 84.6692 238.686 85.4038 233.873 85.4038ZM297.594 85.4038C291.616 85.4038 286.474 84.1372 282.168 81.604C277.887 79.0456 274.593 75.4992 272.288 70.9649C270.008 66.4305 268.869 61.2122 268.869 55.31C268.869 49.3318 270.021 44.0882 272.326 39.5792C274.657 35.0449 277.963 31.5111 282.244 28.978C286.525 26.4195 291.616 25.1403 297.518 25.1403C302.61 25.1403 307.068 26.0649 310.893 27.9141C314.718 29.7633 317.746 32.3597 319.975 35.7035C322.204 39.0472 323.432 42.9736 323.66 47.4826H308.386C307.955 44.5695 306.815 42.2263 304.966 40.4531C303.142 38.6546 300.748 37.7553 297.784 37.7553C295.277 37.7553 293.085 38.4393 291.211 39.8072C289.362 41.1497 287.918 43.1129 286.879 45.6967C285.841 48.2805 285.321 51.409 285.321 55.082C285.321 58.8058 285.828 61.9722 286.841 64.5813C287.88 67.1905 289.336 69.179 291.211 70.5469C293.085 71.9148 295.277 72.5987 297.784 72.5987C299.634 72.5987 301.293 72.2188 302.762 71.4588C304.257 70.6989 305.485 69.597 306.448 68.1531C307.436 66.6838 308.082 64.9233 308.386 62.8715H323.66C323.407 67.3298 322.191 71.2562 320.013 74.6506C317.86 78.0197 314.883 80.6541 311.083 82.554C307.284 84.4538 302.787 85.4038 297.594 85.4038ZM365.068 25.9002V38.0593H329.92V25.9002H365.068ZM337.9 11.9173H354.087V66.3292C354.087 67.8237 354.315 68.989 354.771 69.8249C355.227 70.6355 355.86 71.2055 356.67 71.5348C357.506 71.8641 358.469 72.0288 359.558 72.0288C360.318 72.0288 361.078 71.9654 361.838 71.8388C362.598 71.6868 363.181 71.5728 363.586 71.4968L366.132 83.5419C365.321 83.7952 364.181 84.0865 362.712 84.4158C361.243 84.7705 359.457 84.9858 357.354 85.0618C353.453 85.2138 350.034 84.6945 347.095 83.5039C344.182 82.3133 341.915 80.4641 340.294 77.9563C338.672 75.4485 337.875 72.2821 337.9 68.457V11.9173ZM423.441 42.543L408.622 43.4549C408.369 42.1883 407.824 41.0484 406.988 40.0352C406.152 38.9966 405.05 38.1733 403.682 37.5653C402.34 36.9321 400.731 36.6154 398.857 36.6154C396.349 36.6154 394.234 37.1474 392.511 38.2113C390.789 39.2499 389.927 40.6431 389.927 42.391C389.927 43.7842 390.485 44.9621 391.599 45.9247C392.714 46.8873 394.626 47.6599 397.337 48.2425L407.9 50.3704C413.574 51.5356 417.805 53.4102 420.591 55.994C423.378 58.5778 424.771 61.9722 424.771 66.1772C424.771 70.0023 423.644 73.3587 421.389 76.2465C419.16 79.1342 416.095 81.3887 412.194 83.0099C408.318 84.6058 403.847 85.4038 398.781 85.4038C391.055 85.4038 384.899 83.7952 380.314 80.5781C375.755 77.3357 373.082 72.928 372.297 67.3551L388.218 66.5192C388.699 68.875 389.864 70.6735 391.713 71.9148C393.563 73.1307 395.931 73.7386 398.819 73.7386C401.656 73.7386 403.936 73.194 405.658 72.1048C407.406 70.9902 408.293 69.559 408.318 67.8111C408.293 66.3419 407.672 65.1386 406.456 64.2014C405.24 63.2388 403.366 62.5041 400.833 61.9975L390.725 59.9837C385.026 58.8438 380.783 56.8679 377.996 54.0561C375.235 51.2443 373.855 47.6599 373.855 43.3029C373.855 39.5539 374.868 36.3241 376.894 33.6136C378.946 30.9032 381.821 28.8133 385.52 27.3441C389.244 25.8749 393.601 25.1403 398.591 25.1403C405.962 25.1403 411.763 26.6982 415.994 29.8139C420.249 32.9297 422.732 37.1727 423.441 42.543ZM444.425 85.2518C441.917 85.2518 439.764 84.3652 437.965 82.592C436.192 80.7934 435.306 78.6403 435.306 76.1325C435.306 73.65 436.192 71.5221 437.965 69.7489C439.764 67.9757 441.917 67.0891 444.425 67.0891C446.857 67.0891 448.985 67.9757 450.808 69.7489C452.632 71.5221 453.544 73.65 453.544 76.1325C453.544 77.8043 453.114 79.3369 452.252 80.7301C451.416 82.098 450.314 83.1999 448.947 84.0359C447.579 84.8465 446.071 85.2518 444.425 85.2518Z" stroke="white" stroke-width="4" mask="url(#path-1-outside-1_765_2443)"/>
</svg>
