<svg width="452" height="105" viewBox="0 0 452 105" fill="none" xmlns="http://www.w3.org/2000/svg">
<mask id="path-1-outside-1_279_6890" maskUnits="userSpaceOnUse" x="-2.5" y="-2" width="456" height="109" fill="black">
<rect fill="white" x="-2.5" y="-2" width="456" height="109"/>
<path d="M0.263494 83V5.18182H30.9652C36.8674 5.18182 41.8957 6.30907 46.0501 8.56356C50.2044 10.7927 53.3709 13.8958 55.5494 17.8729C57.7532 21.8246 58.8551 26.3842 58.8551 31.5518C58.8551 36.7195 57.7405 41.2791 55.5114 45.2308C53.2822 49.1825 50.0524 52.2603 45.8221 54.4641C41.6171 56.668 36.5255 57.7699 30.5472 57.7699H10.9787V44.5849H27.8874C31.0539 44.5849 33.663 44.0402 35.7148 42.951C37.792 41.8364 39.3372 40.3039 40.3505 38.3533C41.3891 36.3775 41.9084 34.1103 41.9084 31.5518C41.9084 28.968 41.3891 26.7135 40.3505 24.7883C39.3372 22.8378 37.792 21.3306 35.7148 20.2667C33.6377 19.1774 31.0032 18.6328 27.8114 18.6328H16.7163V83H0.263494ZM69.2378 83V24.6364H84.9307V34.8196H85.5386C86.6025 31.1972 88.3884 28.4614 90.8962 26.6122C93.404 24.7377 96.2918 23.8004 99.5596 23.8004C100.37 23.8004 101.244 23.8511 102.181 23.9524C103.119 24.0537 103.942 24.1931 104.651 24.3704V38.7333C103.891 38.5053 102.84 38.3027 101.497 38.1254C100.155 37.948 98.9263 37.8594 97.8117 37.8594C95.4305 37.8594 93.3027 38.3787 91.4282 39.4173C89.579 40.4305 88.1098 41.8491 87.0205 43.6729C85.9566 45.4968 85.4246 47.5993 85.4246 49.9805V83H69.2378ZM136.673 84.1399C130.771 84.1399 125.667 82.886 121.36 80.3782C117.079 77.8451 113.774 74.324 111.443 69.815C109.113 65.2807 107.947 60.0244 107.947 54.0462C107.947 48.0173 109.113 42.7483 111.443 38.2393C113.774 33.705 117.079 30.1839 121.36 27.6761C125.667 25.143 130.771 23.8764 136.673 23.8764C142.576 23.8764 147.667 25.143 151.948 27.6761C156.254 30.1839 159.573 33.705 161.903 38.2393C164.234 42.7483 165.399 48.0173 165.399 54.0462C165.399 60.0244 164.234 65.2807 161.903 69.815C159.573 74.324 156.254 77.8451 151.948 80.3782C147.667 82.886 142.576 84.1399 136.673 84.1399ZM136.749 71.6009C139.434 71.6009 141.676 70.8409 143.475 69.321C145.273 67.7758 146.629 65.6733 147.54 63.0135C148.478 60.3537 148.946 57.3266 148.946 53.9322C148.946 50.5378 148.478 47.5107 147.54 44.8509C146.629 42.1911 145.273 40.0885 143.475 38.5433C141.676 36.9981 139.434 36.2255 136.749 36.2255C134.039 36.2255 131.759 36.9981 129.91 38.5433C128.086 40.0885 126.705 42.1911 125.768 44.8509C124.856 47.5107 124.4 50.5378 124.4 53.9322C124.4 57.3266 124.856 60.3537 125.768 63.0135C126.705 65.6733 128.086 67.7758 129.91 69.321C131.759 70.8409 134.039 71.6009 136.749 71.6009ZM175.924 24.6364H192.111V85.8878C192.111 90.3968 191.225 94.0445 189.451 96.831C187.678 99.6174 185.132 101.657 181.814 102.949C178.521 104.24 174.582 104.886 169.997 104.886C169.44 104.886 168.908 104.874 168.401 104.848C167.869 104.848 167.312 104.836 166.729 104.81V92.1573C167.16 92.1826 167.54 92.1953 167.869 92.1953C168.173 92.2206 168.502 92.2333 168.857 92.2333C171.466 92.2333 173.29 91.676 174.328 90.5614C175.392 89.4722 175.924 87.8256 175.924 85.6218V24.6364ZM183.98 17.1129C181.599 17.1129 179.547 16.315 177.824 14.7191C176.102 13.0979 175.24 11.16 175.24 8.90554C175.24 6.67637 176.102 4.76385 177.824 3.16797C179.547 1.54675 181.599 0.736147 183.98 0.736147C186.412 0.736147 188.476 1.54675 190.173 3.16797C191.896 4.76385 192.757 6.67637 192.757 8.90554C192.757 11.16 191.896 13.0979 190.173 14.7191C188.476 16.315 186.412 17.1129 183.98 17.1129ZM231.676 84.1399C225.672 84.1399 220.505 82.924 216.173 80.4922C211.867 78.035 208.548 74.5646 206.218 70.081C203.887 65.572 202.722 60.2397 202.722 54.0842C202.722 48.0806 203.887 42.8117 206.218 38.2773C208.548 33.743 211.829 30.2093 216.059 27.6761C220.315 25.143 225.305 23.8764 231.03 23.8764C234.88 23.8764 238.465 24.497 241.783 25.7383C245.127 26.9542 248.04 28.7907 250.522 31.2479C253.03 33.705 254.981 36.7955 256.374 40.5192C257.767 44.2176 258.464 48.5492 258.464 53.5142V57.9599H209.181V47.9286H243.227C243.227 45.5981 242.72 43.5336 241.707 41.7351C240.694 39.9366 239.288 38.5307 237.489 37.5174C235.716 36.4788 233.652 35.9595 231.296 35.9595C228.839 35.9595 226.66 36.5295 224.76 37.6694C222.886 38.784 221.416 40.2912 220.353 42.191C219.289 44.0656 218.744 46.1554 218.719 48.4606V57.9979C218.719 60.8857 219.251 63.3808 220.315 65.4833C221.404 67.5858 222.936 69.207 224.912 70.3469C226.888 71.4869 229.231 72.0568 231.942 72.0568C233.74 72.0568 235.387 71.8035 236.881 71.2969C238.376 70.7902 239.655 70.0303 240.719 69.017C241.783 68.0038 242.594 66.7625 243.151 65.2933L258.122 66.2812C257.362 69.8783 255.804 73.0194 253.448 75.7045C251.118 78.3643 248.103 80.4415 244.405 81.9361C240.732 83.4053 236.489 84.1399 231.676 84.1399ZM295.397 84.1399C289.419 84.1399 284.276 82.8733 279.97 80.3402C275.689 77.7817 272.396 74.2353 270.091 69.701C267.811 65.1667 266.671 59.9484 266.671 54.0462C266.671 48.0679 267.824 42.8243 270.129 38.3153C272.459 33.781 275.765 30.2473 280.046 27.7141C284.327 25.1557 289.419 23.8764 295.321 23.8764C300.413 23.8764 304.871 24.801 308.696 26.6502C312.521 28.4994 315.548 31.0959 317.777 34.4396C320.006 37.7834 321.235 41.7098 321.463 46.2188H306.188C305.757 43.3056 304.618 40.9625 302.768 39.1893C300.945 37.3907 298.551 36.4915 295.587 36.4915C293.079 36.4915 290.888 37.1754 289.013 38.5433C287.164 39.8859 285.72 41.8491 284.682 44.4329C283.643 47.0167 283.124 50.1451 283.124 53.8182C283.124 57.5419 283.63 60.7083 284.644 63.3175C285.682 65.9266 287.139 67.9151 289.013 69.283C290.888 70.6509 293.079 71.3349 295.587 71.3349C297.436 71.3349 299.095 70.9549 300.565 70.195C302.059 69.435 303.288 68.3331 304.25 66.8892C305.238 65.42 305.884 63.6594 306.188 61.6076H321.463C321.21 66.0659 319.994 69.9923 317.815 73.3867C315.662 76.7558 312.686 79.3903 308.886 81.2901C305.086 83.19 300.59 84.1399 295.397 84.1399ZM362.87 24.6364V36.7955H327.723V24.6364H362.87ZM335.702 10.6534H351.889V65.0653C351.889 66.5599 352.117 67.7251 352.573 68.5611C353.029 69.3717 353.662 69.9416 354.473 70.271C355.309 70.6003 356.272 70.7649 357.361 70.7649C358.121 70.7649 358.881 70.7016 359.641 70.5749C360.401 70.4229 360.983 70.3089 361.388 70.233L363.934 82.2781C363.124 82.5314 361.984 82.8227 360.515 83.152C359.045 83.5066 357.259 83.7219 355.157 83.7979C351.256 83.9499 347.836 83.4306 344.898 82.2401C341.985 81.0495 339.717 79.2003 338.096 76.6925C336.475 74.1847 335.677 71.0182 335.702 67.1932V10.6534ZM421.244 41.2791L406.425 42.191C406.171 40.9245 405.627 39.7846 404.791 38.7713C403.955 37.7327 402.853 36.9094 401.485 36.3015C400.142 35.6682 398.534 35.3516 396.659 35.3516C394.152 35.3516 392.036 35.8835 390.314 36.9474C388.591 37.986 387.73 39.3793 387.73 41.1271C387.73 42.5204 388.287 43.6983 389.402 44.6609C390.516 45.6235 392.429 46.3961 395.139 46.9787L405.703 49.1065C411.377 50.2718 415.607 52.1463 418.394 54.7301C421.18 57.3139 422.573 60.7083 422.573 64.9134C422.573 68.7384 421.446 72.0948 419.192 74.9826C416.963 77.8704 413.897 80.1249 409.996 81.7461C406.121 83.342 401.65 84.1399 396.583 84.1399C388.857 84.1399 382.702 82.5314 378.117 79.3143C373.557 76.0719 370.885 71.6642 370.099 66.0913L386.02 65.2553C386.501 67.6112 387.667 69.4097 389.516 70.6509C391.365 71.8668 393.734 72.4748 396.621 72.4748C399.458 72.4748 401.738 71.9302 403.461 70.8409C405.209 69.7263 406.095 68.2951 406.121 66.5472C406.095 65.078 405.475 63.8748 404.259 62.9375C403.043 61.9749 401.168 61.2403 398.635 60.7337L388.528 58.7198C382.828 57.5799 378.585 55.604 375.799 52.7923C373.038 49.9805 371.657 46.3961 371.657 42.0391C371.657 38.29 372.67 35.0602 374.697 32.3498C376.749 29.6393 379.624 27.5495 383.322 26.0803C387.046 24.611 391.403 23.8764 396.393 23.8764C403.765 23.8764 409.566 25.4343 413.796 28.5501C418.052 31.6658 420.534 35.9089 421.244 41.2791ZM442.227 83.9879C439.72 83.9879 437.566 83.1013 435.768 81.3281C433.995 79.5296 433.108 77.3764 433.108 74.8686C433.108 72.3861 433.995 70.2583 435.768 68.4851C437.566 66.7119 439.72 65.8253 442.227 65.8253C444.659 65.8253 446.787 66.7119 448.611 68.4851C450.435 70.2583 451.347 72.3861 451.347 74.8686C451.347 76.5405 450.916 78.073 450.055 79.4663C449.219 80.8342 448.117 81.9361 446.749 82.772C445.381 83.5826 443.874 83.9879 442.227 83.9879Z"/>
</mask>
<path d="M0.263494 83H-1.73651V85H0.263494V83ZM0.263494 5.18182V3.18182H-1.73651V5.18182H0.263494ZM46.0501 8.56356L45.0961 10.3214L45.1044 10.3259L46.0501 8.56356ZM55.5494 17.8729L53.7953 18.8337L53.7989 18.8404L53.8026 18.847L55.5494 17.8729ZM45.8221 54.4641L44.898 52.6904L44.8937 52.6927L45.8221 54.4641ZM10.9787 57.7699H8.97869V59.7699H10.9787V57.7699ZM10.9787 44.5849V42.5849H8.97869V44.5849H10.9787ZM35.7148 42.951L36.6526 44.7175L36.6605 44.7133L35.7148 42.951ZM40.3505 38.3533L38.5802 37.4228L38.5757 37.4314L40.3505 38.3533ZM40.3505 24.7883L38.5757 25.7103L38.5829 25.7242L38.5903 25.7379L40.3505 24.7883ZM35.7148 20.2667L34.786 22.0379L34.7945 22.0424L34.8031 22.0468L35.7148 20.2667ZM16.7163 18.6328V16.6328H14.7163V18.6328H16.7163ZM16.7163 83V85H18.7163V83H16.7163ZM2.26349 83V5.18182H-1.73651V83H2.26349ZM0.263494 7.18182H30.9652V3.18182H0.263494V7.18182ZM30.9652 7.18182C36.6157 7.18182 41.2987 8.26062 45.0961 10.3214L47.004 6.80573C42.4927 4.35751 37.1191 3.18182 30.9652 3.18182V7.18182ZM45.1044 10.3259C48.9317 12.3795 51.8106 15.2105 53.7953 18.8337L57.3034 16.912C54.9311 12.5812 51.4772 9.20594 46.9957 6.80124L45.1044 10.3259ZM53.8026 18.847C55.818 22.4608 56.8551 26.6761 56.8551 31.5518H60.8551C60.8551 26.0923 59.6884 21.1884 57.2961 16.8987L53.8026 18.847ZM56.8551 31.5518C56.8551 36.4237 55.8071 40.636 53.7694 44.2482L57.2533 46.2135C59.674 41.9222 60.8551 37.0152 60.8551 31.5518H56.8551ZM53.7694 44.2482C51.7406 47.8448 48.8035 50.6558 44.898 52.6904L46.7461 56.2379C51.3014 53.8648 54.8238 50.5203 57.2533 46.2135L53.7694 44.2482ZM44.8937 52.6927C41.0398 54.7125 36.284 55.7699 30.5472 55.7699V59.7699C36.7669 59.7699 42.1943 58.6235 46.7505 56.2356L44.8937 52.6927ZM30.5472 55.7699H10.9787V59.7699H30.5472V55.7699ZM12.9787 57.7699V44.5849H8.97869V57.7699H12.9787ZM10.9787 46.5849H27.8874V42.5849H10.9787V46.5849ZM27.8874 46.5849C31.2677 46.5849 34.2263 46.0055 36.6526 44.7175L34.7771 41.1845C33.0997 42.0749 30.84 42.5849 27.8874 42.5849V46.5849ZM36.6605 44.7133C39.0653 43.4229 40.9129 41.6093 42.1253 39.2753L38.5757 37.4314C37.7616 38.9984 36.5188 40.2499 34.7692 41.1887L36.6605 44.7133ZM42.1208 39.2839C43.331 36.9816 43.9084 34.3868 43.9084 31.5518H39.9084C39.9084 33.8338 39.4472 35.7734 38.5802 37.4228L42.1208 39.2839ZM43.9084 31.5518C43.9084 28.6966 43.3329 26.1044 42.1107 23.8388L38.5903 25.7379C39.4452 27.3227 39.9084 29.2395 39.9084 31.5518H43.9084ZM42.1253 23.8664C40.9083 21.5237 39.0494 19.7276 36.6266 18.4866L34.8031 22.0468C36.5346 22.9337 37.7662 24.152 38.5757 25.7103L42.1253 23.8664ZM36.6437 18.4954C34.1954 17.2116 31.2155 16.6328 27.8114 16.6328V20.6328C30.7908 20.6328 33.0799 21.1433 34.786 22.0379L36.6437 18.4954ZM27.8114 16.6328H16.7163V20.6328H27.8114V16.6328ZM14.7163 18.6328V83H18.7163V18.6328H14.7163ZM16.7163 81H0.263494V85H16.7163V81ZM69.2378 83H67.2378V85H69.2378V83ZM69.2378 24.6364V22.6364H67.2378V24.6364H69.2378ZM84.9307 24.6364H86.9307V22.6364H84.9307V24.6364ZM84.9307 34.8196H82.9307V36.8196H84.9307V34.8196ZM85.5386 34.8196V36.8196H87.0357L87.4576 35.3832L85.5386 34.8196ZM90.8962 26.6122L92.0832 28.222L92.0936 28.2142L90.8962 26.6122ZM102.181 23.9524L102.396 21.964H102.396L102.181 23.9524ZM104.651 24.3704H106.651V22.8088L105.136 22.4301L104.651 24.3704ZM104.651 38.7333L104.076 40.649L106.651 41.4214V38.7333H104.651ZM91.4282 39.4173L92.3893 41.1712L92.3975 41.1667L91.4282 39.4173ZM87.0205 43.6729L85.3034 42.6475L85.2981 42.6563L85.293 42.6652L87.0205 43.6729ZM85.4246 83V85H87.4246V83H85.4246ZM71.2378 83V24.6364H67.2378V83H71.2378ZM69.2378 26.6364H84.9307V22.6364H69.2378V26.6364ZM82.9307 24.6364V34.8196H86.9307V24.6364H82.9307ZM84.9307 36.8196H85.5386V32.8196H84.9307V36.8196ZM87.4576 35.3832C88.4251 32.089 89.9966 29.7605 92.0832 28.2219L89.7093 25.0025C86.7802 27.1623 84.78 30.3054 83.6197 34.256L87.4576 35.3832ZM92.0936 28.2142C94.2399 26.6099 96.7033 25.8004 99.5596 25.8004V21.8004C95.8804 21.8004 92.5682 22.8655 89.6988 25.0103L92.0936 28.2142ZM99.5596 25.8004C100.288 25.8004 101.089 25.846 101.966 25.9408L102.396 21.964C101.399 21.8562 100.452 21.8004 99.5596 21.8004V25.8004ZM101.966 25.9408C102.837 26.035 103.567 26.1608 104.166 26.3107L105.136 22.4301C104.317 22.2253 103.4 22.0725 102.396 21.964L101.966 25.9408ZM102.651 24.3704V38.7333H106.651V24.3704H102.651ZM105.226 36.8177C104.317 36.545 103.145 36.3256 101.759 36.1426L101.236 40.1081C102.535 40.2798 103.466 40.4657 104.076 40.649L105.226 36.8177ZM101.759 36.1426C100.348 35.9561 99.0301 35.8594 97.8117 35.8594V39.8594C98.8225 39.8594 99.9621 39.9399 101.236 40.1081L101.759 36.1426ZM97.8117 35.8594C95.1299 35.8594 92.662 36.4472 90.4589 37.6678L92.3975 41.1667C93.9434 40.3101 95.7312 39.8594 97.8117 39.8594V35.8594ZM90.4671 37.6633C88.3031 38.8491 86.5739 40.5202 85.3034 42.6475L88.7376 44.6984C89.6456 43.178 90.8549 42.012 92.3892 41.1712L90.4671 37.6633ZM85.293 42.6652C84.0287 44.8325 83.4246 47.2914 83.4246 49.9805H87.4246C87.4246 47.9073 87.8845 46.1611 88.7481 44.6807L85.293 42.6652ZM83.4246 49.9805V83H87.4246V49.9805H83.4246ZM85.4246 81H69.2378V85H85.4246V81ZM121.36 80.3782L120.342 82.0995L120.354 82.1065L121.36 80.3782ZM111.443 69.815L109.664 70.7292L109.666 70.7333L111.443 69.815ZM111.443 38.2393L113.22 39.1576L113.222 39.1536L111.443 38.2393ZM121.36 27.6761L122.371 29.4018L122.374 29.4L121.36 27.6761ZM151.948 27.6761L150.93 29.3974L150.942 29.4044L151.948 27.6761ZM161.903 38.2393L160.125 39.1536L160.127 39.1576L161.903 38.2393ZM161.903 69.815L163.68 70.7333L163.682 70.7292L161.903 69.815ZM151.948 80.3782L152.959 82.1039L152.962 82.1021L151.948 80.3782ZM143.475 69.321L144.766 70.8486L144.772 70.8433L144.778 70.838L143.475 69.321ZM147.54 63.0135L145.654 62.3488L145.651 62.3568L145.649 62.3648L147.54 63.0135ZM147.54 44.8509L145.649 45.4995L145.651 45.5075L145.654 45.5156L147.54 44.8509ZM129.91 38.5433L128.627 37.0086L128.617 37.0174L129.91 38.5433ZM125.768 44.8509L123.882 44.1862L123.879 44.1942L123.876 44.2022L125.768 44.8509ZM125.768 63.0135L123.876 63.6621L123.879 63.6702L123.882 63.6782L125.768 63.0135ZM129.91 69.321L128.617 70.847L128.628 70.8566L128.64 70.8661L129.91 69.321ZM136.673 82.1399C131.059 82.1399 126.316 80.9494 122.367 78.6499L120.354 82.1065C125.018 84.8226 130.483 86.1399 136.673 86.1399V82.1399ZM122.379 78.657C118.428 76.3191 115.382 73.0793 113.22 68.8967L109.666 70.7333C112.166 75.5686 115.731 79.371 120.342 82.0994L122.379 78.657ZM113.222 68.9007C111.06 64.6943 109.947 59.7612 109.947 54.0462H105.947C105.947 60.2876 107.165 65.867 109.664 70.7292L113.222 68.9007ZM109.947 54.0462C109.947 48.2771 111.061 43.3341 113.22 39.1576L109.666 37.321C107.164 42.1626 105.947 47.7575 105.947 54.0462H109.947ZM113.222 39.1536C115.384 34.9474 118.428 31.7121 122.371 29.4018L120.35 25.9504C115.731 28.6558 112.164 32.4627 109.664 37.3251L113.222 39.1536ZM122.374 29.4C126.322 27.0781 131.062 25.8764 136.673 25.8764V21.8764C130.48 21.8764 125.012 23.2079 120.346 25.9523L122.374 29.4ZM136.673 25.8764C142.284 25.8764 147.01 27.0782 150.93 29.3974L152.967 25.9549C148.324 23.2078 142.867 21.8764 136.673 21.8764V25.8764ZM150.942 29.4044C154.91 31.7155 157.964 34.9505 160.125 39.1536L163.682 37.3251C161.181 32.4596 157.599 28.6524 152.955 25.9478L150.942 29.4044ZM160.127 39.1576C162.285 43.3341 163.399 48.2771 163.399 54.0462H167.399C167.399 47.7575 166.183 42.1626 163.68 37.321L160.127 39.1576ZM163.399 54.0462C163.399 59.7612 162.287 64.6943 160.125 68.9007L163.682 70.7292C166.181 65.867 167.399 60.2876 167.399 54.0462H163.399ZM160.127 68.8967C157.966 73.0763 154.91 76.3156 150.934 78.6543L152.962 82.1021C157.599 79.3745 161.179 75.5717 163.68 70.7333L160.127 68.8967ZM150.937 78.6525C147.016 80.9493 142.288 82.1399 136.673 82.1399V86.1399C142.863 86.1399 148.318 84.8227 152.959 82.1039L150.937 78.6525ZM136.749 73.6009C139.837 73.6009 142.556 72.7161 144.766 70.8486L142.184 67.7934C140.797 68.9658 139.032 69.6009 136.749 69.6009V73.6009ZM144.778 70.838C146.893 69.021 148.427 66.5957 149.432 63.6621L145.649 62.3648C144.831 64.7509 143.654 66.5306 142.171 67.804L144.778 70.838ZM149.427 63.6782C150.453 60.7664 150.946 57.5083 150.946 53.9322H146.946C146.946 57.1449 146.503 59.941 145.654 62.3488L149.427 63.6782ZM150.946 53.9322C150.946 50.3561 150.453 47.0979 149.427 44.1861L145.654 45.5156C146.503 47.9234 146.946 50.7194 146.946 53.9322H150.946ZM149.432 44.2022C148.427 41.2687 146.893 38.8433 144.778 37.0263L142.171 40.0603C143.654 41.3338 144.831 43.1134 145.649 45.4995L149.432 44.2022ZM144.778 37.0263C142.569 35.1281 139.845 34.2255 136.749 34.2255V38.2255C139.024 38.2255 140.784 38.8681 142.171 40.0603L144.778 37.0263ZM136.749 34.2255C133.632 34.2255 130.881 35.1252 128.627 37.0086L131.192 40.078C132.637 38.871 134.445 38.2255 136.749 38.2255V34.2255ZM128.617 37.0174C126.477 38.8302 124.916 41.2523 123.882 44.1862L127.654 45.5156C128.495 43.1298 129.695 41.3469 131.203 40.0693L128.617 37.0174ZM123.876 44.2022C122.88 47.1089 122.4 50.3613 122.4 53.9322H126.4C126.4 50.7142 126.833 47.9124 127.66 45.4995L123.876 44.2022ZM122.4 53.9322C122.4 57.503 122.88 60.7554 123.876 63.6621L127.66 62.3648C126.833 59.9519 126.4 57.1502 126.4 53.9322H122.4ZM123.882 63.6782C124.916 66.6121 126.477 69.0342 128.617 70.847L131.203 67.7951C129.695 66.5174 128.495 64.7345 127.654 62.3488L123.882 63.6782ZM128.64 70.8661C130.894 72.7189 133.641 73.6009 136.749 73.6009V69.6009C134.437 69.6009 132.624 68.963 131.18 67.7759L128.64 70.8661ZM175.924 24.6364V22.6364H173.924V24.6364H175.924ZM192.111 24.6364H194.111V22.6364H192.111V24.6364ZM189.451 96.831L191.139 97.9047L189.451 96.831ZM181.814 102.949L181.088 101.085L181.083 101.087L181.814 102.949ZM168.401 104.848L168.501 102.851L168.451 102.848H168.401V104.848ZM166.729 104.81H164.729V106.725L166.642 106.808L166.729 104.81ZM166.729 92.1573L166.846 90.1608L164.729 90.0362V92.1573H166.729ZM167.869 92.1953L168.035 90.2022L167.952 90.1953H167.869V92.1953ZM174.328 90.5614L172.898 89.164L172.881 89.1808L172.865 89.198L174.328 90.5614ZM177.824 14.7191L176.453 16.1755L176.459 16.1809L176.465 16.1862L177.824 14.7191ZM177.824 3.16797L179.183 4.63509L179.189 4.62975L179.195 4.62437L177.824 3.16797ZM190.173 3.16797L188.792 4.61419L188.803 4.62473L188.814 4.63509L190.173 3.16797ZM190.173 14.7191L191.543 16.1761L191.544 16.1755L190.173 14.7191ZM175.924 26.6364H192.111V22.6364H175.924V26.6364ZM190.111 24.6364V85.8878H194.111V24.6364H190.111ZM190.111 85.8878C190.111 90.1508 189.271 93.3888 187.764 95.7572L191.139 97.9047C193.178 94.7002 194.111 90.6428 194.111 85.8878H190.111ZM187.764 95.7572C186.237 98.1562 184.043 99.9344 181.088 101.085L182.54 104.812C186.222 103.379 189.119 101.079 191.139 97.9047L187.764 95.7572ZM181.083 101.087C178.081 102.265 174.402 102.886 169.997 102.886V106.886C174.761 106.886 178.961 106.216 182.544 104.81L181.083 101.087ZM169.997 102.886C169.47 102.886 168.971 102.874 168.501 102.851L168.301 106.846C168.844 106.873 169.409 106.886 169.997 106.886V102.886ZM168.401 102.848C167.901 102.848 167.372 102.836 166.816 102.812L166.642 106.808C167.251 106.835 167.837 106.848 168.401 106.848V102.848ZM168.729 104.81V92.1573H164.729V104.81H168.729ZM166.612 94.1539C167.07 94.1808 167.491 94.1953 167.869 94.1953V90.1953C167.589 90.1953 167.249 90.1845 166.846 90.1608L166.612 94.1539ZM167.703 94.1884C168.07 94.219 168.455 94.2333 168.857 94.2333V90.2333C168.549 90.2333 168.276 90.2223 168.035 90.2022L167.703 94.1884ZM168.857 94.2333C171.648 94.2333 174.179 93.6554 175.792 91.9249L172.865 89.198C172.401 89.6966 171.285 90.2333 168.857 90.2333V94.2333ZM175.759 91.9589C177.324 90.357 177.924 88.1146 177.924 85.6218H173.924C173.924 87.5367 173.461 88.5873 172.898 89.164L175.759 91.9589ZM177.924 85.6218V24.6364H173.924V85.6218H177.924ZM183.98 15.1129C182.095 15.1129 180.531 14.5 179.183 13.252L176.465 16.1862C178.563 18.13 181.102 19.1129 183.98 19.1129V15.1129ZM179.195 13.2627C177.852 11.9985 177.24 10.5788 177.24 8.90554H173.24C173.24 11.7413 174.352 14.1973 176.453 16.1755L179.195 13.2627ZM177.24 8.90554C177.24 7.26591 177.845 5.87522 179.183 4.63509L176.465 1.70085C174.358 3.65247 173.24 6.08683 173.24 8.90554H177.24ZM179.195 4.62437C180.544 3.3549 182.104 2.73615 183.98 2.73615V-1.26385C181.093 -1.26385 178.55 -0.261389 176.453 1.71157L179.195 4.62437ZM183.98 2.73615C185.918 2.73615 187.481 3.36239 188.792 4.61419L191.555 1.72175C189.471 -0.268884 186.906 -1.26385 183.98 -1.26385V2.73615ZM188.814 4.63509C190.153 5.87522 190.757 7.26591 190.757 8.90554H194.757C194.757 6.08683 193.639 3.65247 191.533 1.70084L188.814 4.63509ZM190.757 8.90554C190.757 10.5788 190.146 11.9985 188.803 13.2627L191.544 16.1755C193.646 14.1973 194.757 11.7413 194.757 8.90554H190.757ZM188.803 13.2621C187.495 14.4926 185.927 15.1129 183.98 15.1129V19.1129C186.896 19.1129 189.458 18.1373 191.543 16.1761L188.803 13.2621ZM216.173 80.4922L215.182 82.2293L215.194 82.2362L216.173 80.4922ZM206.218 70.081L204.441 70.9993L204.443 71.0034L206.218 70.081ZM206.218 38.2773L204.439 37.3631L206.218 38.2773ZM216.059 27.6761L215.036 25.9575L215.031 25.9602L216.059 27.6761ZM241.783 25.7383L241.082 27.6115L241.091 27.6147L241.099 27.6179L241.783 25.7383ZM250.522 31.2479L249.115 32.6693L249.123 32.6764L250.522 31.2479ZM256.374 40.5192L254.501 41.22L254.502 41.2242L256.374 40.5192ZM258.464 57.9599V59.9599H260.464V57.9599H258.464ZM209.181 57.9599H207.181V59.9599H209.181V57.9599ZM209.181 47.9286V45.9286H207.181V47.9286H209.181ZM243.227 47.9286V49.9286H245.227V47.9286H243.227ZM241.707 41.7351L239.964 42.7168V42.7168L241.707 41.7351ZM237.489 37.5174L236.478 39.2432L236.493 39.2517L236.508 39.2599L237.489 37.5174ZM224.76 37.6694L225.782 39.3885L225.789 39.3844L224.76 37.6694ZM220.353 42.191L222.092 43.1783L222.098 43.1683L220.353 42.191ZM218.719 48.4606L216.719 48.4386L216.719 48.4496V48.4606H218.719ZM220.315 65.4833L218.53 66.3863L218.534 66.3948L218.539 66.4033L220.315 65.4833ZM236.881 71.2969L236.239 69.4027L236.881 71.2969ZM240.719 69.017L239.34 67.5688L240.719 69.017ZM243.151 65.2933L243.283 63.2977L241.806 63.2002L241.281 64.584L243.151 65.2933ZM258.122 66.2812L260.079 66.6947L260.555 64.4375L258.253 64.2856L258.122 66.2812ZM253.448 75.7045L251.945 74.3855L251.944 74.3865L253.448 75.7045ZM244.405 81.9361L245.148 83.793L245.154 83.7904L244.405 81.9361ZM231.676 82.1399C225.944 82.1399 221.128 80.9804 217.152 78.7482L215.194 82.2362C219.881 84.8676 225.4 86.1399 231.676 86.1399V82.1399ZM217.164 78.7551C213.198 76.4924 210.149 73.3079 207.992 69.1586L204.443 71.0034C206.947 75.8213 210.535 79.5777 215.182 82.2293L217.164 78.7551ZM207.994 69.1627C205.839 64.9918 204.722 59.9874 204.722 54.0842H200.722C200.722 60.492 201.936 66.1522 204.441 70.9993L207.994 69.1627ZM204.722 54.0842C204.722 48.3423 205.835 43.3969 207.996 39.1916L204.439 37.3631C201.939 42.2264 200.722 47.8189 200.722 54.0842H204.722ZM207.996 39.1916C210.162 34.9775 213.188 31.7266 217.086 29.392L215.031 25.9602C210.469 28.692 206.934 32.5085 204.439 37.3631L207.996 39.1916ZM217.082 29.3947C220.982 27.0729 225.608 25.8764 231.03 25.8764V21.8764C225.002 21.8764 219.647 23.2131 215.036 25.9575L217.082 29.3947ZM231.03 25.8764C234.662 25.8764 238.007 26.4611 241.082 27.6115L242.484 23.865C238.922 22.533 235.099 21.8764 231.03 21.8764V25.8764ZM241.099 27.6179C244.177 28.737 246.842 30.4192 249.115 32.6693L251.929 29.8264C249.238 27.1623 246.076 25.1714 242.466 23.8587L241.099 27.6179ZM249.123 32.6764C251.395 34.903 253.196 37.7342 254.501 41.22L258.247 39.8183C256.765 35.8567 254.665 32.507 251.922 29.8193L249.123 32.6764ZM254.502 41.2242C255.792 44.6478 256.464 48.7308 256.464 53.5142H260.464C260.464 48.3676 259.742 43.7874 258.245 39.8141L254.502 41.2242ZM256.464 53.5142V57.9599H260.464V53.5142H256.464ZM258.464 55.9599H209.181V59.9599H258.464V55.9599ZM211.181 57.9599V47.9286H207.181V57.9599H211.181ZM209.181 49.9286H243.227V45.9286H209.181V49.9286ZM245.227 47.9286C245.227 45.2993 244.652 42.8886 243.449 40.7534L239.964 42.7168C240.788 44.1787 241.227 45.8969 241.227 47.9286H245.227ZM243.449 40.7534C242.257 38.6365 240.588 36.9675 238.471 35.7749L236.508 39.2599C237.988 40.0938 239.131 41.2366 239.964 42.7168L243.449 40.7534ZM238.5 35.7916C236.378 34.5485 233.954 33.9595 231.296 33.9595V37.9595C233.349 37.9595 235.054 38.4091 236.478 39.2432L238.5 35.7916ZM231.296 33.9595C228.517 33.9595 225.975 34.6081 223.731 35.9544L225.789 39.3844C227.345 38.4508 229.16 37.9595 231.296 37.9595V33.9595ZM223.738 35.9503C221.562 37.2441 219.843 39.007 218.608 41.2138L222.098 43.1683C222.99 41.5754 224.209 40.3238 225.782 39.3885L223.738 35.9503ZM218.613 41.2038C217.37 43.3933 216.748 45.8191 216.719 48.4386L220.719 48.4826C220.74 46.4917 221.207 44.7379 222.092 43.1783L218.613 41.2038ZM216.719 48.4606V57.9979H220.719V48.4606H216.719ZM216.719 57.9979C216.719 61.1298 217.296 63.9477 218.53 66.3863L222.099 64.5803C221.205 62.8139 220.719 60.6415 220.719 57.9979H216.719ZM218.539 66.4033C219.797 68.8316 221.593 70.7409 223.913 72.0793L225.912 68.6146C224.28 67.6732 223.011 66.34 222.09 64.5633L218.539 66.4033ZM223.913 72.0793C226.245 73.425 228.947 74.0568 231.942 74.0568V70.0568C229.516 70.0568 227.531 69.5488 225.912 68.6146L223.913 72.0793ZM231.942 74.0568C233.929 74.0568 235.795 73.7768 237.523 73.191L236.239 69.4027C234.978 69.8302 233.552 70.0568 231.942 70.0568V74.0568ZM237.523 73.191C239.272 72.5981 240.809 71.6936 242.098 70.4653L239.34 67.5688C238.502 68.367 237.479 68.9824 236.239 69.4027L237.523 73.191ZM242.098 70.4653C243.394 69.2314 244.365 67.7319 245.021 66.0026L241.281 64.584C240.822 65.7932 240.172 66.7762 239.34 67.5688L242.098 70.4653ZM243.019 67.289L257.99 68.2769L258.253 64.2856L243.283 63.2977L243.019 67.289ZM256.165 65.8678C255.474 69.1394 254.067 71.9661 251.945 74.3855L254.951 77.0236C257.54 74.0727 259.25 70.6173 260.079 66.6947L256.165 65.8678ZM251.944 74.3865C249.845 76.7823 247.101 78.6893 243.655 80.0818L245.154 83.7904C249.105 82.1937 252.391 79.9464 254.952 77.0226L251.944 74.3865ZM243.662 80.0791C240.27 81.4358 236.288 82.1399 231.676 82.1399V86.1399C236.69 86.1399 241.193 85.3748 245.148 83.793L243.662 80.0791ZM279.97 80.3402L278.944 82.057L278.956 82.0641L279.97 80.3402ZM270.091 69.701L268.304 70.5994L268.308 70.6074L270.091 69.701ZM270.129 38.3153L268.35 37.4011L268.348 37.4049L270.129 38.3153ZM280.046 27.7141L281.065 29.4354L281.072 29.4309L280.046 27.7141ZM308.696 26.6502L309.566 24.8496L308.696 26.6502ZM317.777 34.4396L316.113 35.549L317.777 34.4396ZM321.463 46.2188V48.2188H323.567L323.46 46.1178L321.463 46.2188ZM306.188 46.2188L304.21 46.5112L304.462 48.2188H306.188V46.2188ZM302.768 39.1893L301.364 40.6133L301.374 40.6232L301.384 40.6328L302.768 39.1893ZM289.013 38.5433L290.188 40.1618L290.192 40.1589L289.013 38.5433ZM284.644 63.3175L282.779 64.0415L282.782 64.0493L282.786 64.0571L284.644 63.3175ZM289.013 69.283L290.192 67.6674L289.013 69.283ZM300.565 70.195L299.658 68.4121L299.646 68.4185L300.565 70.195ZM304.25 66.8892L302.591 65.7732L302.586 65.7798L304.25 66.8892ZM306.188 61.6076V59.6076H304.463L304.21 61.3145L306.188 61.6076ZM321.463 61.6076L323.46 61.7211L323.58 59.6076H321.463V61.6076ZM317.815 73.3867L316.132 72.3065L316.13 72.3097L317.815 73.3867ZM308.886 81.2901L307.991 79.5013L308.886 81.2901ZM295.397 82.1399C289.705 82.1399 284.928 80.9361 280.984 78.6163L278.956 82.0641C283.625 84.8106 289.132 86.1399 295.397 86.1399V82.1399ZM280.996 78.6234C277.045 76.2624 274.012 73 271.874 68.7946L268.308 70.6074C270.78 75.4707 274.333 79.3011 278.944 82.057L280.996 78.6234ZM271.878 68.8026C269.759 64.5891 268.671 59.6872 268.671 54.0462H264.671C264.671 60.2096 265.863 65.7442 268.304 70.5994L271.878 68.8026ZM268.671 54.0462C268.671 48.3276 269.772 43.4062 271.91 39.2257L268.348 37.4049C265.875 42.2424 264.671 47.8083 264.671 54.0462H268.671ZM271.908 39.2296C274.07 35.0217 277.116 31.7716 281.065 29.4354L279.028 25.9929C274.414 28.723 270.848 32.5403 268.35 37.4011L271.908 39.2296ZM281.072 29.4309C284.99 27.0893 289.713 25.8764 295.321 25.8764V21.8764C289.124 21.8764 283.664 23.222 279.02 25.9974L281.072 29.4309ZM295.321 25.8764C300.17 25.8764 304.32 26.7564 307.825 28.4508L309.566 24.8496C305.421 22.8457 300.655 21.8764 295.321 21.8764V25.8764ZM307.825 28.4508C311.348 30.1539 314.094 32.5196 316.113 35.549L319.441 33.3302C317.003 29.6722 313.694 26.845 309.566 24.8496L307.825 28.4508ZM316.113 35.549C318.118 38.5571 319.253 42.1253 319.466 46.3197L323.46 46.1178C323.217 41.2942 321.894 37.0097 319.441 33.3302L316.113 35.549ZM321.463 44.2188H306.188V48.2188H321.463V44.2188ZM308.167 45.9263C307.681 42.6428 306.369 39.8708 304.153 37.7457L301.384 40.6328C302.866 42.0541 303.834 43.9685 304.21 46.5112L308.167 45.9263ZM304.173 37.7652C301.916 35.5394 298.987 34.4915 295.587 34.4915V38.4915C298.114 38.4915 299.973 39.2421 301.364 40.6133L304.173 37.7652ZM295.587 34.4915C292.691 34.4915 290.079 35.2895 287.834 36.9277L290.192 40.1589C291.696 39.0613 293.467 38.4915 295.587 38.4915V34.4915ZM287.838 36.9249C285.624 38.5324 283.974 40.8307 282.826 43.687L286.537 45.1788C287.466 42.8675 288.704 41.2393 290.188 40.1618L287.838 36.9249ZM282.826 43.687C281.667 46.5703 281.124 49.9668 281.124 53.8182H285.124C285.124 50.3235 285.619 47.463 286.537 45.1788L282.826 43.687ZM281.124 53.8182C281.124 57.7124 281.652 61.1391 282.779 64.0415L286.508 62.5935C285.609 60.2776 285.124 57.3714 285.124 53.8182H281.124ZM282.786 64.0571C283.934 66.9424 285.597 69.2658 287.834 70.8986L290.192 67.6674C288.681 66.5644 287.431 64.9109 286.502 62.5778L282.786 64.0571ZM287.834 70.8986C290.079 72.5368 292.691 73.3349 295.587 73.3349V69.3349C293.467 69.3349 291.696 68.765 290.192 67.6674L287.834 70.8986ZM295.587 73.3349C297.718 73.3349 299.698 72.8948 301.483 71.9714L299.646 68.4185C298.493 69.015 297.155 69.3349 295.587 69.3349V73.3349ZM301.471 71.9777C303.283 71.0565 304.768 69.7179 305.914 67.9986L302.586 65.7798C301.807 66.9483 300.835 67.8135 299.658 68.4122L301.471 71.9777ZM305.91 68.0052C307.09 66.2499 307.826 64.1969 308.167 61.9007L304.21 61.3145C303.942 63.122 303.386 64.5901 302.591 65.7732L305.91 68.0052ZM306.188 63.6076H321.463V59.6076H306.188V63.6076ZM319.466 61.4941C319.23 65.6463 318.105 69.2321 316.132 72.3065L319.498 74.467C321.882 70.7525 323.189 66.4856 323.46 61.7211L319.466 61.4941ZM316.13 72.3097C314.184 75.3553 311.489 77.7524 307.991 79.5013L309.78 83.079C313.882 81.0281 317.141 78.1563 319.5 74.4637L316.13 72.3097ZM307.991 79.5013C304.524 81.2348 300.347 82.1399 295.397 82.1399V86.1399C300.832 86.1399 305.648 85.1452 309.78 83.079L307.991 79.5013ZM362.87 24.6364H364.87V22.6364H362.87V24.6364ZM362.87 36.7955V38.7955H364.87V36.7955H362.87ZM327.723 36.7955H325.723V38.7955H327.723V36.7955ZM327.723 24.6364V22.6364H325.723V24.6364H327.723ZM335.702 10.6534V8.65341H333.702V10.6534H335.702ZM351.889 10.6534H353.889V8.65341H351.889V10.6534ZM352.573 68.5611L350.817 69.5188L350.824 69.5302L350.83 69.5416L352.573 68.5611ZM354.473 70.271L353.72 72.1239L353.73 72.1279L353.74 72.1318L354.473 70.271ZM359.641 70.5749L359.969 72.5477L360.001 72.5424L360.033 72.5361L359.641 70.5749ZM361.388 70.233L363.345 69.8194L362.941 67.907L361.02 68.2672L361.388 70.233ZM363.934 82.2781L364.531 84.187L366.267 83.6444L365.891 81.8645L363.934 82.2781ZM360.515 83.152L360.077 81.2004L360.061 81.204L360.045 81.2078L360.515 83.152ZM355.157 83.7979L355.085 81.7992L355.079 81.7995L355.157 83.7979ZM344.898 82.2401L344.141 84.0914L344.147 84.0937L344.898 82.2401ZM338.096 76.6925L339.776 75.6067L338.096 76.6925ZM335.702 67.1932L337.702 67.2064V67.1932H335.702ZM360.87 24.6364V36.7955H364.87V24.6364H360.87ZM362.87 34.7955H327.723V38.7955H362.87V34.7955ZM329.723 36.7955V24.6364H325.723V36.7955H329.723ZM327.723 26.6364H362.87V22.6364H327.723V26.6364ZM335.702 12.6534H351.889V8.65341H335.702V12.6534ZM349.889 10.6534V65.0653H353.889V10.6534H349.889ZM349.889 65.0653C349.889 66.722 350.135 68.2678 350.817 69.5188L354.329 67.6034C354.099 67.1825 353.889 66.3978 353.889 65.0653H349.889ZM350.83 69.5416C351.493 70.72 352.463 71.613 353.72 72.1239L355.226 68.418C354.862 68.2702 354.565 68.0233 354.316 67.5806L350.83 69.5416ZM353.74 72.1318C354.853 72.5703 356.072 72.7649 357.361 72.7649V68.7649C356.471 68.7649 355.765 68.6302 355.206 68.4101L353.74 72.1318ZM357.361 72.7649C358.232 72.7649 359.102 72.6922 359.969 72.5477L359.312 68.6021C358.659 68.7109 358.009 68.7649 357.361 68.7649V72.7649ZM360.033 72.5361C360.79 72.3846 361.364 72.2724 361.757 72.1987L361.02 68.2672C360.603 68.3455 360.011 68.4613 359.248 68.6138L360.033 72.5361ZM359.432 70.6465L361.978 82.6916L365.891 81.8645L363.345 69.8194L359.432 70.6465ZM363.338 80.3691C362.605 80.5982 361.527 80.8755 360.077 81.2004L360.952 85.1036C362.441 84.7699 363.643 84.4646 364.531 84.187L363.338 80.3691ZM360.045 81.2078C358.746 81.5215 357.101 81.7264 355.085 81.7992L355.229 85.7966C357.418 85.7175 359.345 85.4917 360.984 85.0962L360.045 81.2078ZM355.079 81.7995C351.398 81.9429 348.271 81.4488 345.649 80.3864L344.147 84.0937C347.402 85.4124 351.114 85.957 355.235 85.7964L355.079 81.7995ZM345.654 80.3887C343.098 79.3441 341.163 77.7518 339.776 75.6067L336.417 77.7783C338.272 80.6487 340.871 82.7549 344.141 84.0914L345.654 80.3887ZM339.776 75.6067C338.418 73.5068 337.679 70.7504 337.702 67.2064L333.702 67.1799C333.675 71.2861 334.532 74.8625 336.417 77.7783L339.776 75.6067ZM337.702 67.1932V10.6534H333.702V67.1932H337.702ZM421.244 41.2791L421.366 43.2753L423.507 43.1436L423.226 41.0172L421.244 41.2791ZM406.425 42.191L404.463 42.5833L404.806 44.2945L406.547 44.1873L406.425 42.191ZM404.791 38.7713L403.233 40.0253L403.24 40.0347L403.248 40.0441L404.791 38.7713ZM401.485 36.3015L400.632 38.1104L400.652 38.12L400.673 38.1291L401.485 36.3015ZM390.314 36.9474L391.347 38.6602L391.356 38.6547L391.365 38.649L390.314 36.9474ZM389.402 44.6609L388.095 46.1745V46.1745L389.402 44.6609ZM395.139 46.9787L394.719 48.934L394.732 48.9368L394.745 48.9393L395.139 46.9787ZM405.703 49.1065L406.105 47.1474L406.098 47.1459L405.703 49.1065ZM418.394 54.7301L417.034 56.1966L418.394 54.7301ZM419.192 74.9826L417.615 73.7518L417.608 73.7605L419.192 74.9826ZM409.996 81.7461L410.758 83.5955L410.764 83.593L409.996 81.7461ZM378.117 79.3143L376.958 80.9442L376.968 80.9515L378.117 79.3143ZM370.099 66.0913L369.994 64.094L367.814 64.2085L368.119 66.3703L370.099 66.0913ZM386.02 65.2553L387.98 64.855L387.635 63.1678L385.915 63.2581L386.02 65.2553ZM389.516 70.6509L388.401 72.3115L388.409 72.3168L388.417 72.322L389.516 70.6509ZM403.461 70.8409L404.53 72.5313L404.536 72.5272L403.461 70.8409ZM406.121 66.5472L408.12 66.5762L408.121 66.5445L408.12 66.5127L406.121 66.5472ZM404.259 62.9375L403.017 64.5056L403.028 64.5136L403.038 64.5215L404.259 62.9375ZM398.635 60.7337L399.027 58.7725L399.026 58.7722L398.635 60.7337ZM388.528 58.7198L388.136 60.681L388.137 60.6813L388.528 58.7198ZM375.799 52.7923L374.372 54.1936L374.378 54.2001L375.799 52.7923ZM374.697 32.3498L373.102 31.1426L373.095 31.1522L374.697 32.3498ZM383.322 26.0803L382.588 24.2198L382.584 24.2215L383.322 26.0803ZM413.796 28.5501L412.61 30.1604L412.615 30.1638L413.796 28.5501ZM421.121 39.2829L406.302 40.1948L406.547 44.1873L421.366 43.2753L421.121 39.2829ZM408.386 41.7988C408.067 40.203 407.376 38.7618 406.333 37.4985L403.248 40.0441C403.878 40.8073 404.276 41.6459 404.463 42.5833L408.386 41.7988ZM406.349 37.5173C405.29 36.2019 403.92 35.195 402.297 34.4739L400.673 38.1291C401.786 38.6239 402.62 39.2636 403.233 40.0253L406.349 37.5173ZM402.338 34.4926C400.668 33.7049 398.754 33.3516 396.659 33.3516V37.3516C398.314 37.3516 399.617 37.6315 400.632 38.1104L402.338 34.4926ZM396.659 33.3516C393.869 33.3516 391.369 33.9451 389.263 35.2458L391.365 38.649C392.704 37.8219 394.434 37.3516 396.659 37.3516V33.3516ZM389.281 35.2347C387.066 36.5705 385.73 38.5614 385.73 41.1271H389.73C389.73 40.1972 390.117 39.4016 391.347 38.6602L389.281 35.2347ZM385.73 41.1271C385.73 43.1383 386.569 44.8567 388.095 46.1745L390.709 43.1472C390.006 42.5399 389.73 41.9024 389.73 41.1271H385.73ZM388.095 46.1745C389.601 47.4753 391.923 48.3329 394.719 48.934L395.56 45.0234C392.935 44.4592 391.432 43.7716 390.709 43.1472L388.095 46.1745ZM394.745 48.9393L405.308 51.0671L406.098 47.1459L395.534 45.0181L394.745 48.9393ZM405.3 51.0657C410.79 52.193 414.621 53.9593 417.034 56.1966L419.754 53.2636C416.594 50.3333 411.964 48.3506 406.105 47.1474L405.3 51.0657ZM417.034 56.1966C419.366 58.3594 420.573 61.1991 420.573 64.9134H424.573C424.573 60.2176 422.994 56.2684 419.754 53.2636L417.034 56.1966ZM420.573 64.9134C420.573 68.3135 419.583 71.2319 417.615 73.7518L420.768 76.2133C423.31 72.9577 424.573 69.1633 424.573 64.9134H420.573ZM417.608 73.7605C415.624 76.3316 412.86 78.3903 409.229 79.8992L410.764 83.593C414.935 81.8594 418.301 79.4092 420.775 76.2047L417.608 73.7605ZM409.235 79.8967C405.645 81.3747 401.442 82.1399 396.583 82.1399V86.1399C401.858 86.1399 406.596 85.3092 410.758 83.5955L409.235 79.8967ZM396.583 82.1399C389.117 82.1399 383.408 80.5837 379.266 77.6771L376.968 80.9515C381.995 84.479 388.598 86.1399 396.583 86.1399V82.1399ZM379.276 77.6844C375.167 74.7624 372.789 70.8448 372.08 65.8122L368.119 66.3703C368.98 72.4836 371.947 77.3813 376.958 80.9442L379.276 77.6844ZM370.204 68.0885L386.125 67.2526L385.915 63.2581L369.994 64.094L370.204 68.0885ZM384.061 65.6557C384.638 68.4811 386.079 70.7527 388.401 72.3115L390.631 68.9903C389.254 68.0666 388.365 66.7412 387.98 64.855L384.061 65.6557ZM388.417 72.322C390.678 73.809 393.46 74.4748 396.621 74.4748V70.4748C394.007 70.4748 392.052 69.9247 390.615 68.9798L388.417 72.322ZM396.621 74.4748C399.694 74.4748 402.385 73.8874 404.53 72.5313L402.392 69.1505C401.091 69.9729 399.223 70.4748 396.621 70.4748V74.4748ZM404.536 72.5272C406.729 71.1286 408.083 69.1296 408.12 66.5762L404.121 66.5182C404.107 67.4605 403.688 68.324 402.386 69.1546L404.536 72.5272ZM408.12 66.5127C408.084 64.4047 407.152 62.6428 405.48 61.3535L403.038 64.5215C403.797 65.1068 404.107 65.7513 404.121 66.5817L408.12 66.5127ZM405.5 61.3694C403.923 60.1211 401.689 59.3049 399.027 58.7725L398.243 62.6948C400.647 63.1757 402.162 63.8287 403.017 64.5056L405.5 61.3694ZM399.026 58.7722L388.919 56.7584L388.137 60.6813L398.244 62.6951L399.026 58.7722ZM388.92 56.7587C383.438 55.6622 379.623 53.8099 377.22 51.3845L374.378 54.2001C377.548 57.3981 382.219 59.4976 388.136 60.681L388.92 56.7587ZM377.226 51.391C374.872 48.9942 373.657 45.9325 373.657 42.0391H369.657C369.657 46.8596 371.203 50.9667 374.372 54.1936L377.226 51.391ZM373.657 42.0391C373.657 38.6727 374.559 35.8748 376.299 33.5474L373.095 31.1522C370.782 34.2457 369.657 37.9073 369.657 42.0391H373.657ZM376.292 33.5569C378.088 31.1843 380.643 29.2966 384.061 27.939L382.584 24.2215C378.605 25.8024 375.41 28.0943 373.102 31.1426L376.292 33.5569ZM384.056 27.9407C387.497 26.5833 391.595 25.8764 396.393 25.8764V21.8764C391.212 21.8764 386.596 22.6387 382.588 24.2198L384.056 27.9407ZM396.393 25.8764C403.505 25.8764 408.837 27.3817 412.61 30.1604L414.982 26.9397C410.294 23.4869 404.024 21.8764 396.393 21.8764V25.8764ZM412.615 30.1638C416.417 32.9475 418.621 36.6953 419.261 41.541L423.226 41.0172C422.448 35.1224 419.687 30.3842 414.978 26.9363L412.615 30.1638ZM435.768 81.3281L434.344 82.7323L434.354 82.7424L434.364 82.7523L435.768 81.3281ZM435.768 68.4851L434.364 67.0609L434.359 67.0659L434.354 67.0709L435.768 68.4851ZM448.611 68.4851L447.217 69.9191L448.611 68.4851ZM450.055 79.4663L448.354 78.4146L448.348 78.4234L450.055 79.4663ZM446.749 82.772L447.769 84.4926L447.78 84.4857L447.792 84.4786L446.749 82.772ZM442.227 81.9879C440.249 81.9879 438.599 81.3111 437.172 79.9039L434.364 82.7523C436.534 84.8915 439.19 85.9879 442.227 85.9879V81.9879ZM437.192 79.924C435.785 78.4967 435.108 76.8467 435.108 74.8686H431.108C431.108 77.9061 432.205 80.5625 434.344 82.7323L437.192 79.924ZM435.108 74.8686C435.108 72.9226 435.78 71.3017 437.182 69.8993L434.354 67.0709C432.21 69.2149 431.108 71.8497 431.108 74.8686H435.108ZM437.172 69.9093C438.599 68.5021 440.249 67.8253 442.227 67.8253V63.8253C439.19 63.8253 436.534 64.9217 434.364 67.0609L437.172 69.9093ZM442.227 67.8253C444.113 67.8253 445.747 68.4903 447.217 69.9191L450.005 67.0511C447.827 64.9335 445.206 63.8253 442.227 63.8253V67.8253ZM447.217 69.9191C448.664 71.3262 449.347 72.9411 449.347 74.8686H453.347C453.347 71.8311 452.206 69.1904 450.005 67.0511L447.217 69.9191ZM449.347 74.8686C449.347 76.1771 449.015 77.3442 448.354 78.4146L451.756 80.5179C452.817 78.8018 453.347 76.9039 453.347 74.8686H449.347ZM448.348 78.4234C447.678 79.5205 446.803 80.395 445.706 81.0655L447.792 84.4786C449.431 83.4772 450.76 82.1478 451.761 80.5092L448.348 78.4234ZM445.73 81.0514C444.682 81.6724 443.529 81.9879 442.227 81.9879V85.9879C444.219 85.9879 446.081 85.4928 447.769 84.4926L445.73 81.0514Z" fill="white" mask="url(#path-1-outside-1_279_6890)"/>
</svg>
