<svg width="484" height="88" viewBox="0 0 484 88" fill="none" xmlns="http://www.w3.org/2000/svg">
<mask id="path-1-outside-1_765_2441" maskUnits="userSpaceOnUse" x="-0.546875" y="0" width="485" height="88" fill="black">
<rect fill="white" x="-0.546875" width="485" height="88"/>
<path d="M47.1758 28.826C46.8718 25.7609 45.5672 23.3797 43.2621 21.6825C40.9569 19.9853 37.8285 19.1367 33.8768 19.1367C31.1916 19.1367 28.9245 19.5167 27.0753 20.2766C25.2261 21.0112 23.8075 22.0372 22.8196 23.3544C21.857 24.6716 21.3757 26.1662 21.3757 27.8381C21.325 29.2313 21.6164 30.4472 22.2496 31.4858C22.9083 32.5244 23.8075 33.4237 24.9474 34.1836C26.0874 34.9182 27.4046 35.5642 28.8991 36.1215C30.3937 36.6534 31.9896 37.1094 33.6868 37.4893L40.6783 39.1612C44.0727 39.9212 47.1884 40.9344 50.0256 42.201C52.8627 43.4676 55.3198 45.0255 57.397 46.8746C59.4742 48.7238 61.0827 50.9023 62.2227 53.4102C63.3879 55.918 63.9832 58.7931 64.0085 62.0355C63.9832 66.7978 62.7673 70.9268 60.3608 74.4226C57.9796 77.893 54.5346 80.5908 50.0256 82.516C45.5419 84.4158 40.1336 85.3658 33.8008 85.3658C27.5186 85.3658 22.047 84.4032 17.386 82.478C12.7504 80.5528 9.12796 77.703 6.51882 73.9286C3.93501 70.1289 2.57978 65.4299 2.45312 59.8317H18.3739C18.5513 62.4408 19.2985 64.6193 20.6158 66.3672C21.9583 68.0897 23.7442 69.3943 25.9734 70.2809C28.2279 71.1422 30.7737 71.5728 33.6108 71.5728C36.3973 71.5728 38.8164 71.1675 40.8683 70.3569C42.9454 69.5463 44.554 68.419 45.6939 66.9751C46.8338 65.5312 47.4038 63.872 47.4038 61.9975C47.4038 60.2496 46.8845 58.7804 45.8459 57.5898C44.8326 56.3993 43.3381 55.386 41.3622 54.5501C39.4117 53.7141 37.0179 52.9542 34.1808 52.2702L25.7074 50.1424C19.1465 48.5465 13.9663 46.0514 10.1665 42.657C6.36683 39.2626 4.47964 34.6902 4.50497 28.94C4.47964 24.2283 5.73355 20.112 8.26669 16.5909C10.8252 13.0698 14.3336 10.3214 18.7919 8.34553C23.2502 6.36967 28.3165 5.38175 33.9908 5.38175C39.7663 5.38175 44.8073 6.36967 49.1136 8.34553C53.4453 10.3214 56.8144 13.0698 59.2209 16.5909C61.6274 20.112 62.8686 24.1903 62.9446 28.826H47.1758ZM101.369 85.4038C95.3657 85.4038 90.1981 84.1879 85.8664 81.756C81.56 79.2989 78.2416 75.8285 75.9111 71.3448C73.5806 66.8358 72.4154 61.5036 72.4154 55.348C72.4154 49.3445 73.5806 44.0755 75.9111 39.5412C78.2416 35.0069 81.522 31.4731 85.7524 28.94C90.0081 26.4068 94.9984 25.1403 100.723 25.1403C104.574 25.1403 108.158 25.7609 111.476 27.0021C114.82 28.218 117.733 30.0546 120.216 32.5117C122.724 34.9689 124.674 38.0593 126.067 41.783C127.461 45.4814 128.157 49.8131 128.157 54.7781V59.2237H78.8749V49.1925H112.92C112.92 46.862 112.414 44.7975 111.4 42.9989C110.387 41.2004 108.981 39.7945 107.183 38.7813C105.41 37.7427 103.345 37.2234 100.989 37.2234C98.5321 37.2234 96.3536 37.7933 94.4538 38.9332C92.5792 40.0478 91.11 41.555 90.0461 43.4549C88.9822 45.3294 88.4375 47.4193 88.4122 49.7244V59.2617C88.4122 62.1495 88.9442 64.6447 90.0081 66.7472C91.0973 68.8497 92.6299 70.4709 94.6057 71.6108C96.5816 72.7507 98.9247 73.3207 101.635 73.3207C103.434 73.3207 105.08 73.0674 106.575 72.5607C108.069 72.0541 109.349 71.2942 110.413 70.2809C111.476 69.2676 112.287 68.0264 112.844 66.5572L127.815 67.5451C127.055 71.1422 125.497 74.2833 123.142 76.9684C120.811 79.6282 117.797 81.7054 114.098 83.1999C110.425 84.6692 106.182 85.4038 101.369 85.4038ZM138.72 84.2639V25.9002H154.413V36.0835H155.021C156.085 32.4611 157.871 29.7253 160.379 27.8761C162.887 26.0015 165.774 25.0643 169.042 25.0643C169.853 25.0643 170.727 25.1149 171.664 25.2163C172.601 25.3176 173.425 25.4569 174.134 25.6342V39.9972C173.374 39.7692 172.323 39.5665 170.98 39.3892C169.637 39.2119 168.409 39.1232 167.294 39.1232C164.913 39.1232 162.785 39.6425 160.911 40.6811C159.062 41.6944 157.592 43.1129 156.503 44.9368C155.439 46.7607 154.907 48.8632 154.907 51.2443V84.2639H138.72ZM238.691 25.9002L218.286 84.2639H200.048L179.643 25.9002H196.742L208.863 67.6591H209.471L221.554 25.9002H238.691ZM246.974 84.2639V25.9002H263.161V84.2639H246.974ZM255.106 18.3768C252.699 18.3768 250.635 17.5788 248.912 15.983C247.215 14.3617 246.366 12.4239 246.366 10.1694C246.366 7.94022 247.215 6.0277 248.912 4.43182C250.635 2.81061 252.699 2 255.106 2C257.512 2 259.564 2.81061 261.261 4.43182C262.984 6.0277 263.845 7.94022 263.845 10.1694C263.845 12.4239 262.984 14.3617 261.261 15.983C259.564 17.5788 257.512 18.3768 255.106 18.3768ZM302.498 85.4038C296.519 85.4038 291.377 84.1372 287.071 81.604C282.79 79.0456 279.497 75.4992 277.192 70.9649C274.912 66.4305 273.772 61.2122 273.772 55.31C273.772 49.3318 274.924 44.0882 277.23 39.5792C279.56 35.0449 282.866 31.5111 287.147 28.978C291.428 26.4195 296.519 25.1403 302.422 25.1403C307.513 25.1403 311.972 26.0649 315.797 27.9141C319.622 29.7633 322.649 32.3597 324.878 35.7035C327.107 39.0472 328.336 42.9736 328.564 47.4826H313.289C312.858 44.5695 311.718 42.2263 309.869 40.4531C308.045 38.6546 305.651 37.7553 302.688 37.7553C300.18 37.7553 297.989 38.4393 296.114 39.8072C294.265 41.1497 292.821 43.1129 291.783 45.6967C290.744 48.2805 290.225 51.409 290.225 55.082C290.225 58.8058 290.731 61.9722 291.745 64.5813C292.783 67.1905 294.24 69.179 296.114 70.5469C297.989 71.9148 300.18 72.5987 302.688 72.5987C304.537 72.5987 306.196 72.2188 307.665 71.4588C309.16 70.6989 310.388 69.597 311.351 68.1531C312.339 66.6838 312.985 64.9233 313.289 62.8715H328.564C328.31 67.3298 327.095 71.2562 324.916 74.6506C322.763 78.0197 319.786 80.6541 315.987 82.554C312.187 84.4538 307.691 85.4038 302.498 85.4038ZM365.525 85.4038C359.522 85.4038 354.354 84.1879 350.023 81.756C345.716 79.2989 342.398 75.8285 340.067 71.3448C337.737 66.8358 336.572 61.5036 336.572 55.348C336.572 49.3445 337.737 44.0755 340.067 39.5412C342.398 35.0069 345.678 31.4731 349.909 28.94C354.164 26.4068 359.155 25.1403 364.88 25.1403C368.73 25.1403 372.314 25.7609 375.633 27.0021C378.976 28.218 381.89 30.0546 384.372 32.5117C386.88 34.9689 388.83 38.0593 390.224 41.783C391.617 45.4814 392.313 49.8131 392.313 54.7781V59.2237H343.031V49.1925H377.077C377.077 46.862 376.57 44.7975 375.557 42.9989C374.543 41.2004 373.138 39.7945 371.339 38.7813C369.566 37.7427 367.501 37.2234 365.146 37.2234C362.688 37.2234 360.51 37.7933 358.61 38.9332C356.735 40.0478 355.266 41.555 354.202 43.4549C353.138 45.3294 352.594 47.4193 352.568 49.7244V59.2617C352.568 62.1495 353.1 64.6447 354.164 66.7472C355.254 68.8497 356.786 70.4709 358.762 71.6108C360.738 72.7507 363.081 73.3207 365.791 73.3207C367.59 73.3207 369.237 73.0674 370.731 72.5607C372.226 72.0541 373.505 71.2942 374.569 70.2809C375.633 69.2676 376.443 68.0264 377.001 66.5572L391.971 67.5451C391.212 71.1422 389.654 74.2833 387.298 76.9684C384.967 79.6282 381.953 81.7054 378.255 83.1999C374.581 84.6692 370.338 85.4038 365.525 85.4038ZM451.437 42.543L436.618 43.4549C436.365 42.1883 435.82 41.0484 434.984 40.0352C434.148 38.9966 433.046 38.1733 431.679 37.5653C430.336 36.9321 428.727 36.6154 426.853 36.6154C424.345 36.6154 422.23 37.1474 420.507 38.2113C418.785 39.2499 417.924 40.6431 417.924 42.391C417.924 43.7842 418.481 44.9621 419.595 45.9247C420.71 46.8873 422.623 47.6599 425.333 48.2425L435.896 50.3704C441.57 51.5356 445.801 53.4102 448.587 55.994C451.374 58.5778 452.767 61.9722 452.767 66.1772C452.767 70.0023 451.64 73.3587 449.385 76.2465C447.156 79.1342 444.091 81.3887 440.19 83.0099C436.314 84.6058 431.843 85.4038 426.777 85.4038C419.051 85.4038 412.895 83.7952 408.31 80.5781C403.751 77.3357 401.078 72.928 400.293 67.3551L416.214 66.5192C416.695 68.875 417.86 70.6735 419.709 71.9148C421.559 73.1307 423.927 73.7386 426.815 73.7386C429.652 73.7386 431.932 73.194 433.654 72.1048C435.402 70.9902 436.289 69.559 436.314 67.8111C436.289 66.3419 435.668 65.1386 434.452 64.2014C433.236 63.2388 431.362 62.5041 428.829 61.9975L418.721 59.9837C413.022 58.8438 408.779 56.8679 405.992 54.0561C403.231 51.2443 401.851 47.6599 401.851 43.3029C401.851 39.5539 402.864 36.3241 404.891 33.6136C406.942 30.9032 409.818 28.8133 413.516 27.3441C417.24 25.8749 421.597 25.1403 426.587 25.1403C433.958 25.1403 439.759 26.6982 443.99 29.8139C448.245 32.9297 450.728 37.1727 451.437 42.543ZM472.421 85.2518C469.913 85.2518 467.76 84.3652 465.961 82.592C464.188 80.7934 463.302 78.6403 463.302 76.1325C463.302 73.65 464.188 71.5221 465.961 69.7489C467.76 67.9757 469.913 67.0891 472.421 67.0891C474.853 67.0891 476.981 67.9757 478.805 69.7489C480.628 71.5221 481.54 73.65 481.54 76.1325C481.54 77.8043 481.11 79.3369 480.248 80.7301C479.412 82.098 478.311 83.1999 476.943 84.0359C475.575 84.8465 474.068 85.2518 472.421 85.2518Z"/>
</mask>
<path d="M47.1758 28.826C46.8718 25.7609 45.5672 23.3797 43.2621 21.6825C40.9569 19.9853 37.8285 19.1367 33.8768 19.1367C31.1916 19.1367 28.9245 19.5167 27.0753 20.2766C25.2261 21.0112 23.8075 22.0372 22.8196 23.3544C21.857 24.6716 21.3757 26.1662 21.3757 27.8381C21.325 29.2313 21.6164 30.4472 22.2496 31.4858C22.9083 32.5244 23.8075 33.4237 24.9474 34.1836C26.0874 34.9182 27.4046 35.5642 28.8991 36.1215C30.3937 36.6534 31.9896 37.1094 33.6868 37.4893L40.6783 39.1612C44.0727 39.9212 47.1884 40.9344 50.0256 42.201C52.8627 43.4676 55.3198 45.0255 57.397 46.8746C59.4742 48.7238 61.0827 50.9023 62.2227 53.4102C63.3879 55.918 63.9832 58.7931 64.0085 62.0355C63.9832 66.7978 62.7673 70.9268 60.3608 74.4226C57.9796 77.893 54.5346 80.5908 50.0256 82.516C45.5419 84.4158 40.1336 85.3658 33.8008 85.3658C27.5186 85.3658 22.047 84.4032 17.386 82.478C12.7504 80.5528 9.12796 77.703 6.51882 73.9286C3.93501 70.1289 2.57978 65.4299 2.45312 59.8317H18.3739C18.5513 62.4408 19.2985 64.6193 20.6158 66.3672C21.9583 68.0897 23.7442 69.3943 25.9734 70.2809C28.2279 71.1422 30.7737 71.5728 33.6108 71.5728C36.3973 71.5728 38.8164 71.1675 40.8683 70.3569C42.9454 69.5463 44.554 68.419 45.6939 66.9751C46.8338 65.5312 47.4038 63.872 47.4038 61.9975C47.4038 60.2496 46.8845 58.7804 45.8459 57.5898C44.8326 56.3993 43.3381 55.386 41.3622 54.5501C39.4117 53.7141 37.0179 52.9542 34.1808 52.2702L25.7074 50.1424C19.1465 48.5465 13.9663 46.0514 10.1665 42.657C6.36683 39.2626 4.47964 34.6902 4.50497 28.94C4.47964 24.2283 5.73355 20.112 8.26669 16.5909C10.8252 13.0698 14.3336 10.3214 18.7919 8.34553C23.2502 6.36967 28.3165 5.38175 33.9908 5.38175C39.7663 5.38175 44.8073 6.36967 49.1136 8.34553C53.4453 10.3214 56.8144 13.0698 59.2209 16.5909C61.6274 20.112 62.8686 24.1903 62.9446 28.826H47.1758ZM101.369 85.4038C95.3657 85.4038 90.1981 84.1879 85.8664 81.756C81.56 79.2989 78.2416 75.8285 75.9111 71.3448C73.5806 66.8358 72.4154 61.5036 72.4154 55.348C72.4154 49.3445 73.5806 44.0755 75.9111 39.5412C78.2416 35.0069 81.522 31.4731 85.7524 28.94C90.0081 26.4068 94.9984 25.1403 100.723 25.1403C104.574 25.1403 108.158 25.7609 111.476 27.0021C114.82 28.218 117.733 30.0546 120.216 32.5117C122.724 34.9689 124.674 38.0593 126.067 41.783C127.461 45.4814 128.157 49.8131 128.157 54.7781V59.2237H78.8749V49.1925H112.92C112.92 46.862 112.414 44.7975 111.4 42.9989C110.387 41.2004 108.981 39.7945 107.183 38.7813C105.41 37.7427 103.345 37.2234 100.989 37.2234C98.5321 37.2234 96.3536 37.7933 94.4538 38.9332C92.5792 40.0478 91.11 41.555 90.0461 43.4549C88.9822 45.3294 88.4375 47.4193 88.4122 49.7244V59.2617C88.4122 62.1495 88.9442 64.6447 90.0081 66.7472C91.0973 68.8497 92.6299 70.4709 94.6057 71.6108C96.5816 72.7507 98.9247 73.3207 101.635 73.3207C103.434 73.3207 105.08 73.0674 106.575 72.5607C108.069 72.0541 109.349 71.2942 110.413 70.2809C111.476 69.2676 112.287 68.0264 112.844 66.5572L127.815 67.5451C127.055 71.1422 125.497 74.2833 123.142 76.9684C120.811 79.6282 117.797 81.7054 114.098 83.1999C110.425 84.6692 106.182 85.4038 101.369 85.4038ZM138.72 84.2639V25.9002H154.413V36.0835H155.021C156.085 32.4611 157.871 29.7253 160.379 27.8761C162.887 26.0015 165.774 25.0643 169.042 25.0643C169.853 25.0643 170.727 25.1149 171.664 25.2163C172.601 25.3176 173.425 25.4569 174.134 25.6342V39.9972C173.374 39.7692 172.323 39.5665 170.98 39.3892C169.637 39.2119 168.409 39.1232 167.294 39.1232C164.913 39.1232 162.785 39.6425 160.911 40.6811C159.062 41.6944 157.592 43.1129 156.503 44.9368C155.439 46.7607 154.907 48.8632 154.907 51.2443V84.2639H138.72ZM238.691 25.9002L218.286 84.2639H200.048L179.643 25.9002H196.742L208.863 67.6591H209.471L221.554 25.9002H238.691ZM246.974 84.2639V25.9002H263.161V84.2639H246.974ZM255.106 18.3768C252.699 18.3768 250.635 17.5788 248.912 15.983C247.215 14.3617 246.366 12.4239 246.366 10.1694C246.366 7.94022 247.215 6.0277 248.912 4.43182C250.635 2.81061 252.699 2 255.106 2C257.512 2 259.564 2.81061 261.261 4.43182C262.984 6.0277 263.845 7.94022 263.845 10.1694C263.845 12.4239 262.984 14.3617 261.261 15.983C259.564 17.5788 257.512 18.3768 255.106 18.3768ZM302.498 85.4038C296.519 85.4038 291.377 84.1372 287.071 81.604C282.79 79.0456 279.497 75.4992 277.192 70.9649C274.912 66.4305 273.772 61.2122 273.772 55.31C273.772 49.3318 274.924 44.0882 277.23 39.5792C279.56 35.0449 282.866 31.5111 287.147 28.978C291.428 26.4195 296.519 25.1403 302.422 25.1403C307.513 25.1403 311.972 26.0649 315.797 27.9141C319.622 29.7633 322.649 32.3597 324.878 35.7035C327.107 39.0472 328.336 42.9736 328.564 47.4826H313.289C312.858 44.5695 311.718 42.2263 309.869 40.4531C308.045 38.6546 305.651 37.7553 302.688 37.7553C300.18 37.7553 297.989 38.4393 296.114 39.8072C294.265 41.1497 292.821 43.1129 291.783 45.6967C290.744 48.2805 290.225 51.409 290.225 55.082C290.225 58.8058 290.731 61.9722 291.745 64.5813C292.783 67.1905 294.24 69.179 296.114 70.5469C297.989 71.9148 300.18 72.5987 302.688 72.5987C304.537 72.5987 306.196 72.2188 307.665 71.4588C309.16 70.6989 310.388 69.597 311.351 68.1531C312.339 66.6838 312.985 64.9233 313.289 62.8715H328.564C328.31 67.3298 327.095 71.2562 324.916 74.6506C322.763 78.0197 319.786 80.6541 315.987 82.554C312.187 84.4538 307.691 85.4038 302.498 85.4038ZM365.525 85.4038C359.522 85.4038 354.354 84.1879 350.023 81.756C345.716 79.2989 342.398 75.8285 340.067 71.3448C337.737 66.8358 336.572 61.5036 336.572 55.348C336.572 49.3445 337.737 44.0755 340.067 39.5412C342.398 35.0069 345.678 31.4731 349.909 28.94C354.164 26.4068 359.155 25.1403 364.88 25.1403C368.73 25.1403 372.314 25.7609 375.633 27.0021C378.976 28.218 381.89 30.0546 384.372 32.5117C386.88 34.9689 388.83 38.0593 390.224 41.783C391.617 45.4814 392.313 49.8131 392.313 54.7781V59.2237H343.031V49.1925H377.077C377.077 46.862 376.57 44.7975 375.557 42.9989C374.543 41.2004 373.138 39.7945 371.339 38.7813C369.566 37.7427 367.501 37.2234 365.146 37.2234C362.688 37.2234 360.51 37.7933 358.61 38.9332C356.735 40.0478 355.266 41.555 354.202 43.4549C353.138 45.3294 352.594 47.4193 352.568 49.7244V59.2617C352.568 62.1495 353.1 64.6447 354.164 66.7472C355.254 68.8497 356.786 70.4709 358.762 71.6108C360.738 72.7507 363.081 73.3207 365.791 73.3207C367.59 73.3207 369.237 73.0674 370.731 72.5607C372.226 72.0541 373.505 71.2942 374.569 70.2809C375.633 69.2676 376.443 68.0264 377.001 66.5572L391.971 67.5451C391.212 71.1422 389.654 74.2833 387.298 76.9684C384.967 79.6282 381.953 81.7054 378.255 83.1999C374.581 84.6692 370.338 85.4038 365.525 85.4038ZM451.437 42.543L436.618 43.4549C436.365 42.1883 435.82 41.0484 434.984 40.0352C434.148 38.9966 433.046 38.1733 431.679 37.5653C430.336 36.9321 428.727 36.6154 426.853 36.6154C424.345 36.6154 422.23 37.1474 420.507 38.2113C418.785 39.2499 417.924 40.6431 417.924 42.391C417.924 43.7842 418.481 44.9621 419.595 45.9247C420.71 46.8873 422.623 47.6599 425.333 48.2425L435.896 50.3704C441.57 51.5356 445.801 53.4102 448.587 55.994C451.374 58.5778 452.767 61.9722 452.767 66.1772C452.767 70.0023 451.64 73.3587 449.385 76.2465C447.156 79.1342 444.091 81.3887 440.19 83.0099C436.314 84.6058 431.843 85.4038 426.777 85.4038C419.051 85.4038 412.895 83.7952 408.31 80.5781C403.751 77.3357 401.078 72.928 400.293 67.3551L416.214 66.5192C416.695 68.875 417.86 70.6735 419.709 71.9148C421.559 73.1307 423.927 73.7386 426.815 73.7386C429.652 73.7386 431.932 73.194 433.654 72.1048C435.402 70.9902 436.289 69.559 436.314 67.8111C436.289 66.3419 435.668 65.1386 434.452 64.2014C433.236 63.2388 431.362 62.5041 428.829 61.9975L418.721 59.9837C413.022 58.8438 408.779 56.8679 405.992 54.0561C403.231 51.2443 401.851 47.6599 401.851 43.3029C401.851 39.5539 402.864 36.3241 404.891 33.6136C406.942 30.9032 409.818 28.8133 413.516 27.3441C417.24 25.8749 421.597 25.1403 426.587 25.1403C433.958 25.1403 439.759 26.6982 443.99 29.8139C448.245 32.9297 450.728 37.1727 451.437 42.543ZM472.421 85.2518C469.913 85.2518 467.76 84.3652 465.961 82.592C464.188 80.7934 463.302 78.6403 463.302 76.1325C463.302 73.65 464.188 71.5221 465.961 69.7489C467.76 67.9757 469.913 67.0891 472.421 67.0891C474.853 67.0891 476.981 67.9757 478.805 69.7489C480.628 71.5221 481.54 73.65 481.54 76.1325C481.54 77.8043 481.11 79.3369 480.248 80.7301C479.412 82.098 478.311 83.1999 476.943 84.0359C475.575 84.8465 474.068 85.2518 472.421 85.2518Z" stroke="white" stroke-width="4" mask="url(#path-1-outside-1_765_2441)"/>
</svg>
