<svg width="480" height="85" viewBox="0 0 480 85" fill="none" xmlns="http://www.w3.org/2000/svg">
<mask id="path-1-outside-1_279_6746" maskUnits="userSpaceOnUse" x="-1.5" y="-2" width="484" height="89" fill="black">
<rect fill="white" x="-1.5" y="-2" width="484" height="89"/>
<path d="M45.4783 27.5621C45.1744 24.497 43.8698 22.1159 41.5646 20.4187C39.2595 18.7215 36.131 17.8729 32.1793 17.8729C29.4942 17.8729 27.227 18.2528 25.3778 19.0128C23.5286 19.7474 22.1101 20.7733 21.1222 22.0906C20.1596 23.4078 19.6783 24.9023 19.6783 26.5742C19.6276 27.9674 19.9189 29.1834 20.5522 30.2219C21.2108 31.2605 22.1101 32.1598 23.25 32.9197C24.3899 33.6544 25.7072 34.3003 27.2017 34.8576C28.6963 35.3896 30.2921 35.8455 31.9893 36.2255L38.9808 37.8974C42.3752 38.6573 45.491 39.6706 48.3281 40.9371C51.1652 42.2037 53.6224 43.7616 55.6996 45.6108C57.7768 47.46 59.3853 49.6385 60.5252 52.1463C61.6905 54.6541 62.2858 57.5292 62.3111 60.7717C62.2858 65.534 61.0698 69.663 58.6634 73.1587C56.2822 76.6291 52.8371 79.3269 48.3281 81.2521C43.8445 83.152 38.4362 84.1019 32.1033 84.1019C25.8211 84.1019 20.3496 83.1393 15.6886 81.2141C11.0529 79.2889 7.43052 76.4392 4.82138 72.6648C2.23757 68.8651 0.882339 64.1661 0.755682 58.5678H16.6765C16.8538 61.177 17.6011 63.3555 18.9183 65.1033C20.2609 66.8259 22.0468 68.1304 24.2759 69.017C26.5304 69.8783 29.0762 70.3089 31.9134 70.3089C34.6998 70.3089 37.119 69.9036 39.1708 69.093C41.248 68.2824 42.8565 67.1552 43.9965 65.7113C45.1364 64.2674 45.7063 62.6082 45.7063 60.7337C45.7063 58.9858 45.187 57.5166 44.1484 56.326C43.1352 55.1354 41.6406 54.1222 39.6648 53.2862C37.7143 52.4503 35.3204 51.6903 32.4833 51.0064L24.0099 48.8785C17.4491 47.2827 12.2688 44.7875 8.46911 41.3931C4.66939 37.9987 2.7822 33.4264 2.80753 27.6761C2.7822 22.9645 4.0361 18.8481 6.56925 15.3271C9.12772 11.806 12.6361 9.05753 17.0945 7.08167C21.5528 5.10582 26.6191 4.11789 32.2933 4.11789C38.0689 4.11789 43.1098 5.10582 47.4162 7.08167C51.7479 9.05753 55.117 11.806 57.5234 15.3271C59.9299 18.8481 61.1712 22.9265 61.2472 27.5621H45.4783ZM99.6718 84.1399C93.6682 84.1399 88.5006 82.924 84.1689 80.4922C79.8626 78.035 76.5442 74.5646 74.2137 70.081C71.8832 65.572 70.718 60.2397 70.718 54.0842C70.718 48.0806 71.8832 42.8117 74.2137 38.2773C76.5442 33.743 79.8246 30.2093 84.055 27.6761C88.3106 25.143 93.3009 23.8764 99.0258 23.8764C102.876 23.8764 106.461 24.497 109.779 25.7383C113.123 26.9542 116.036 28.7907 118.518 31.2479C121.026 33.705 122.977 36.7955 124.37 40.5192C125.763 44.2176 126.46 48.5492 126.46 53.5142V57.9599H77.1775V47.9286H111.223C111.223 45.5981 110.716 43.5336 109.703 41.7351C108.69 39.9366 107.284 38.5307 105.485 37.5174C103.712 36.4788 101.648 35.9595 99.2918 35.9595C96.8347 35.9595 94.6562 36.5295 92.7563 37.6694C90.8818 38.784 89.4126 40.2912 88.3486 42.191C87.2847 44.0656 86.7401 46.1554 86.7148 48.4606V57.9979C86.7148 60.8857 87.2467 63.3808 88.3106 65.4833C89.3999 67.5858 90.9324 69.207 92.9083 70.3469C94.8841 71.4869 97.2273 72.0568 99.9378 72.0568C101.736 72.0568 103.383 71.8035 104.877 71.2969C106.372 70.7902 107.651 70.0303 108.715 69.017C109.779 68.0038 110.59 66.7625 111.147 65.2933L126.118 66.2812C125.358 69.8783 123.8 73.0194 121.444 75.7045C119.114 78.3643 116.099 80.4415 112.401 81.9361C108.728 83.4053 104.485 84.1399 99.6718 84.1399ZM137.023 83V24.6364H152.716V34.8196H153.324C154.388 31.1972 156.174 28.4614 158.681 26.6122C161.189 24.7377 164.077 23.8004 167.345 23.8004C168.155 23.8004 169.029 23.8511 169.967 23.9524C170.904 24.0537 171.727 24.1931 172.436 24.3704V38.7333C171.676 38.5053 170.625 38.3027 169.283 38.1254C167.94 37.948 166.711 37.8594 165.597 37.8594C163.216 37.8594 161.088 38.3787 159.213 39.4173C157.364 40.4305 155.895 41.8491 154.806 43.6729C153.742 45.4968 153.21 47.5993 153.21 49.9805V83H137.023ZM236.994 24.6364L216.589 83H198.35L177.946 24.6364H195.045L207.166 66.3952H207.774L219.857 24.6364H236.994ZM245.277 83V24.6364H261.464V83H245.277ZM253.408 17.1129C251.002 17.1129 248.937 16.315 247.215 14.7191C245.518 13.0979 244.669 11.16 244.669 8.90554C244.669 6.67637 245.518 4.76385 247.215 3.16797C248.937 1.54675 251.002 0.736147 253.408 0.736147C255.815 0.736147 257.867 1.54675 259.564 3.16797C261.286 4.76385 262.148 6.67637 262.148 8.90554C262.148 11.16 261.286 13.0979 259.564 14.7191C257.867 16.315 255.815 17.1129 253.408 17.1129ZM300.8 84.1399C294.822 84.1399 289.68 82.8733 285.373 80.3402C281.092 77.7817 277.799 74.2353 275.494 69.701C273.214 65.1667 272.074 59.9484 272.074 54.0462C272.074 48.0679 273.227 42.8243 275.532 38.3153C277.863 33.781 281.168 30.2473 285.449 27.7141C289.73 25.1557 294.822 23.8764 300.724 23.8764C305.816 23.8764 310.274 24.801 314.099 26.6502C317.924 28.4994 320.951 31.0959 323.181 34.4396C325.41 37.7834 326.638 41.7098 326.866 46.2188H311.591C311.161 43.3056 310.021 40.9625 308.172 39.1893C306.348 37.3907 303.954 36.4915 300.99 36.4915C298.482 36.4915 296.291 37.1754 294.417 38.5433C292.568 39.8859 291.124 41.8491 290.085 44.4329C289.046 47.0167 288.527 50.1451 288.527 53.8182C288.527 57.5419 289.034 60.7083 290.047 63.3175C291.086 65.9266 292.542 67.9151 294.417 69.283C296.291 70.6509 298.482 71.3349 300.99 71.3349C302.839 71.3349 304.499 70.9549 305.968 70.195C307.462 69.435 308.691 68.3331 309.654 66.8892C310.642 65.42 311.287 63.6594 311.591 61.6076H326.866C326.613 66.0659 325.397 69.9923 323.219 73.3867C321.065 76.7558 318.089 79.3903 314.289 81.2901C310.49 83.19 305.993 84.1399 300.8 84.1399ZM363.828 84.1399C357.824 84.1399 352.657 82.924 348.325 80.4922C344.019 78.035 340.7 74.5646 338.37 70.081C336.039 65.572 334.874 60.2397 334.874 54.0842C334.874 48.0806 336.039 42.8117 338.37 38.2773C340.7 33.743 343.981 30.2093 348.211 27.6761C352.467 25.143 357.457 23.8764 363.182 23.8764C367.032 23.8764 370.617 24.497 373.935 25.7383C377.279 26.9542 380.192 28.7907 382.675 31.2479C385.182 33.705 387.133 36.7955 388.526 40.5192C389.919 44.2176 390.616 48.5492 390.616 53.5142V57.9599H341.334V47.9286H375.379C375.379 45.5981 374.873 43.5336 373.859 41.7351C372.846 39.9366 371.44 38.5307 369.642 37.5174C367.868 36.4788 365.804 35.9595 363.448 35.9595C360.991 35.9595 358.812 36.5295 356.913 37.6694C355.038 38.784 353.569 40.2912 352.505 42.191C351.441 44.0656 350.896 46.1554 350.871 48.4606V57.9979C350.871 60.8857 351.403 63.3808 352.467 65.4833C353.556 67.5858 355.089 69.207 357.065 70.3469C359.04 71.4869 361.384 72.0568 364.094 72.0568C365.893 72.0568 367.539 71.8035 369.034 71.2969C370.528 70.7902 371.807 70.0303 372.871 69.017C373.935 68.0038 374.746 66.7625 375.303 65.2933L390.274 66.2812C389.514 69.8783 387.956 73.0194 385.6 75.7045C383.27 78.3643 380.255 80.4415 376.557 81.9361C372.884 83.4053 368.641 84.1399 363.828 84.1399ZM449.74 41.2791L434.921 42.191C434.667 40.9245 434.123 39.7846 433.287 38.7713C432.451 37.7327 431.349 36.9094 429.981 36.3015C428.639 35.6682 427.03 35.3516 425.155 35.3516C422.648 35.3516 420.532 35.8835 418.81 36.9474C417.087 37.986 416.226 39.3793 416.226 41.1271C416.226 42.5204 416.783 43.6983 417.898 44.6609C419.013 45.6235 420.925 46.3961 423.636 46.9787L434.199 49.1065C439.873 50.2718 444.103 52.1463 446.89 54.7301C449.676 57.3139 451.07 60.7083 451.07 64.9134C451.07 68.7384 449.942 72.0948 447.688 74.9826C445.459 77.8704 442.393 80.1249 438.492 81.7461C434.617 83.342 430.146 84.1399 425.079 84.1399C417.353 84.1399 411.198 82.5314 406.613 79.3143C402.053 76.0719 399.381 71.6642 398.595 66.0913L414.516 65.2553C414.998 67.6112 416.163 69.4097 418.012 70.6509C419.861 71.8668 422.23 72.4748 425.117 72.4748C427.955 72.4748 430.234 71.9302 431.957 70.8409C433.705 69.7263 434.591 68.2951 434.617 66.5472C434.591 65.078 433.971 63.8748 432.755 62.9375C431.539 61.9749 429.664 61.2403 427.131 60.7337L417.024 58.7198C411.324 57.5799 407.081 55.604 404.295 52.7923C401.534 49.9805 400.153 46.3961 400.153 42.0391C400.153 38.29 401.167 35.0602 403.193 32.3498C405.245 29.6393 408.12 27.5495 411.818 26.0803C415.542 24.611 419.899 23.8764 424.889 23.8764C432.261 23.8764 438.062 25.4343 442.292 28.5501C446.548 31.6658 449.03 35.9089 449.74 41.2791ZM470.724 83.9879C468.216 83.9879 466.063 83.1013 464.264 81.3281C462.491 79.5296 461.604 77.3764 461.604 74.8686C461.604 72.3861 462.491 70.2583 464.264 68.4851C466.063 66.7119 468.216 65.8253 470.724 65.8253C473.155 65.8253 475.283 66.7119 477.107 68.4851C478.931 70.2583 479.843 72.3861 479.843 74.8686C479.843 76.5405 479.412 78.073 478.551 79.4663C477.715 80.8342 476.613 81.9361 475.245 82.772C473.877 83.5826 472.37 83.9879 470.724 83.9879Z"/>
</mask>
<path d="M45.4783 27.5621L43.4881 27.7595L43.6669 29.5621H45.4783V27.5621ZM25.3778 19.0128L26.1162 20.8715L26.1272 20.8671L26.1381 20.8627L25.3778 19.0128ZM21.1222 22.0905L19.5222 20.8905L19.5147 20.9005L19.5074 20.9105L21.1222 22.0905ZM19.6783 26.5742L21.6769 26.6469L21.6783 26.6106V26.5742H19.6783ZM20.5522 30.2219L18.8446 31.2632L18.8538 31.2782L18.8632 31.293L20.5522 30.2219ZM23.25 32.9197L22.1406 34.5838L22.1535 34.5925L22.1666 34.6009L23.25 32.9197ZM27.2017 34.8576L26.5029 36.7316L26.517 36.7368L26.5311 36.7418L27.2017 34.8576ZM31.9893 36.2255L32.4545 34.2803L32.4404 34.277L32.4263 34.2738L31.9893 36.2255ZM38.9808 37.8974L38.5157 39.8425L38.5298 39.8459L38.5439 39.8491L38.9808 37.8974ZM48.3281 40.9371L47.5128 42.7634H47.5128L48.3281 40.9371ZM55.6996 45.6108L57.0294 44.117V44.117L55.6996 45.6108ZM60.5252 52.1463L58.7045 52.9739L58.7079 52.9815L58.7114 52.9891L60.5252 52.1463ZM62.3111 60.7717L64.3111 60.7823L64.3111 60.7692L64.311 60.756L62.3111 60.7717ZM58.6634 73.1587L57.016 72.0247L57.0142 72.0272L58.6634 73.1587ZM48.3281 81.2521L49.1084 83.0936L49.1135 83.0915L48.3281 81.2521ZM15.6886 81.2141L14.9215 83.0612L14.925 83.0627L15.6886 81.2141ZM4.82138 72.6648L3.16753 73.7894L3.17184 73.7957L3.1762 73.802L4.82138 72.6648ZM0.755682 58.5678V56.5678H-1.29008L-1.24381 58.6131L0.755682 58.5678ZM16.6765 58.5678L18.6719 58.4322L18.5452 56.5678H16.6765V58.5678ZM18.9183 65.1033L17.3211 66.307L17.3309 66.32L17.3409 66.3328L18.9183 65.1033ZM24.2759 69.017L23.5368 70.8755L23.5495 70.8805L23.5622 70.8854L24.2759 69.017ZM39.1708 69.093L38.4437 67.2299L38.436 67.2329L39.1708 69.093ZM43.9965 65.7113L45.5662 66.9506L43.9965 65.7113ZM44.1484 56.326L42.6254 57.6222L42.6333 57.6315L42.6413 57.6407L44.1484 56.326ZM39.6648 53.2862L38.8769 55.1245L38.8855 55.1282L39.6648 53.2862ZM32.4833 51.0064L31.9962 52.9462L32.0054 52.9485L32.0146 52.9507L32.4833 51.0064ZM24.0099 48.8785L24.4971 46.9388L24.4899 46.937L24.4826 46.9352L24.0099 48.8785ZM8.46911 41.3931L7.13668 42.8846L8.46911 41.3931ZM2.80753 27.6761L4.80751 27.6849L4.80755 27.6752L4.8075 27.6654L2.80753 27.6761ZM6.56925 15.3271L4.95125 14.1514L4.94574 14.1591L6.56925 15.3271ZM47.4162 7.08167L46.5821 8.89947L46.5862 8.90131L47.4162 7.08167ZM57.5234 15.3271L55.8722 16.4556L55.8722 16.4556L57.5234 15.3271ZM61.2472 27.5621V29.5621H63.2802L63.2469 27.5294L61.2472 27.5621ZM47.4686 27.3648C47.1135 23.7841 45.5494 20.8689 42.7504 18.8081L40.3788 22.0292C42.1902 23.3629 43.2353 25.21 43.4881 27.7595L47.4686 27.3648ZM42.7504 18.8081C39.9926 16.7777 36.3988 15.8729 32.1793 15.8729V19.8729C35.8632 19.8729 38.5263 20.6653 40.3788 22.0292L42.7504 18.8081ZM32.1793 15.8729C29.3177 15.8729 26.7754 16.2762 24.6176 17.1629L26.1381 20.8627C27.6787 20.2295 29.6707 19.8729 32.1793 19.8729V15.8729ZM24.6395 17.1541C22.5195 17.9962 20.7732 19.2225 19.5222 20.8905L22.7222 23.2906C23.4469 22.3242 24.5378 21.4986 26.1162 20.8715L24.6395 17.1541ZM19.5074 20.9105C18.2879 22.5793 17.6783 24.4894 17.6783 26.5742H21.6783C21.6783 25.3153 22.0312 24.2363 22.7369 23.2706L19.5074 20.9105ZM17.6796 26.5015C17.6168 28.2277 17.9786 29.8429 18.8446 31.2632L22.2598 29.1807C21.8593 28.5239 21.6384 27.7072 21.6769 26.6469L17.6796 26.5015ZM18.8632 31.293C19.6877 32.5932 20.7948 33.6866 22.1406 34.5838L24.3594 31.2556C23.4254 30.633 22.734 29.9279 22.2412 29.1509L18.8632 31.293ZM22.1666 34.6009C23.4464 35.4256 24.8965 36.1326 26.5029 36.7316L27.9005 32.9836C26.5178 32.4681 25.3335 31.8831 24.3334 31.2386L22.1666 34.6009ZM26.5311 36.7418C28.109 37.3034 29.7835 37.7812 31.5524 38.1772L32.4263 34.2738C30.8008 33.9099 29.2836 33.4757 27.8724 32.9734L26.5311 36.7418ZM31.5242 38.1707L38.5157 39.8425L39.446 35.9522L32.4545 34.2803L31.5242 38.1707ZM38.5439 39.8491C41.8235 40.5833 44.8108 41.5571 47.5128 42.7634L49.1434 39.1109C46.1712 37.784 42.927 36.7313 39.4178 35.9457L38.5439 39.8491ZM47.5128 42.7634C50.1841 43.956 52.4628 45.407 54.3697 47.1046L57.0294 44.117C54.782 42.1162 52.1464 40.4515 49.1434 39.1109L47.5128 42.7634ZM54.3697 47.1046C56.2407 48.7702 57.6811 50.7225 58.7045 52.9739L62.3459 51.3187C61.0895 48.5545 59.3128 46.1498 57.0294 44.117L54.3697 47.1046ZM58.7114 52.9891C59.7372 55.1967 60.2877 57.7818 60.3111 60.7873L64.311 60.756C64.2838 57.2766 63.6437 54.1115 62.339 51.3035L58.7114 52.9891ZM60.3111 60.761C60.2876 65.1728 59.1676 68.8991 57.016 72.0247L60.3107 74.2928C62.9721 70.4269 64.2839 65.8951 64.3111 60.7823L60.3111 60.761ZM57.0142 72.0272C54.8814 75.1357 51.7612 77.6117 47.5428 79.4128L49.1135 83.0915C53.9131 81.0422 57.683 78.1226 60.3125 74.2903L57.0142 72.0272ZM47.5478 79.4106C43.3731 81.1796 38.245 82.1019 32.1033 82.1019V86.1019C38.6274 86.1019 44.3158 85.1244 49.1084 83.0936L47.5478 79.4106ZM32.1033 82.1019C26.0209 82.1019 20.8194 81.1695 16.4521 79.3656L14.925 83.0627C19.8797 85.1091 25.6214 86.1019 32.1033 86.1019V82.1019ZM16.4556 79.3671C12.1401 77.5749 8.83684 74.9564 6.46656 71.5275L3.1762 73.802C6.02419 77.922 9.96569 81.003 14.9215 83.0612L16.4556 79.3671ZM6.47523 71.5402C4.15157 68.123 2.87502 63.8201 2.75517 58.5226L-1.24381 58.6131C-1.11035 64.512 0.323574 69.6071 3.16753 73.7894L6.47523 71.5402ZM0.755682 60.5678H16.6765V56.5678H0.755682V60.5678ZM14.6811 58.7034C14.8795 61.6232 15.7281 64.1933 17.3211 66.307L20.5155 63.8996C19.4741 62.5177 18.8281 60.7307 18.6719 58.4322L14.6811 58.7034ZM17.3409 66.3328C18.9231 68.3629 21.0107 69.8708 23.5368 70.8755L25.0151 67.1586C23.0828 66.3901 21.5986 65.2888 20.4958 63.8738L17.3409 66.3328ZM23.5622 70.8854C26.0808 71.8475 28.8743 72.3089 31.9134 72.3089V68.3089C29.2782 68.3089 26.9801 67.9091 24.9897 67.1487L23.5622 70.8854ZM31.9134 72.3089C34.8878 72.3089 37.5672 71.877 39.9057 70.9531L38.436 67.2329C36.6707 67.9303 34.5118 68.3089 31.9134 68.3089V72.3089ZM39.8979 70.9562C42.2362 70.0437 44.1634 68.7274 45.5662 66.9506L42.4267 64.472C41.5496 65.583 40.2597 66.5212 38.4437 67.2299L39.8979 70.9562ZM45.5662 66.9506C46.9905 65.1465 47.7063 63.0487 47.7063 60.7337H43.7063C43.7063 62.1677 43.2823 63.3883 42.4267 64.472L45.5662 66.9506ZM47.7063 60.7337C47.7063 58.5576 47.0465 56.6057 45.6556 55.0113L42.6413 57.6407C43.3276 58.4275 43.7063 59.414 43.7063 60.7337H47.7063ZM45.6715 55.0298C44.3954 53.5303 42.6058 52.3589 40.4441 51.4443L38.8855 55.1282C40.6754 55.8854 41.875 56.7405 42.6254 57.6222L45.6715 55.0298ZM40.4526 51.4479C38.3687 50.5548 35.8609 49.7633 32.952 49.0621L32.0146 52.9507C34.78 53.6173 37.0598 54.3457 38.8769 55.1245L40.4526 51.4479ZM32.9704 49.0666L24.4971 46.9388L23.5228 50.8183L31.9962 52.9462L32.9704 49.0666ZM24.4826 46.9352C18.1412 45.3927 13.2894 43.0175 9.80153 39.9016L7.13668 42.8846C11.2482 46.5576 16.757 49.1726 23.5372 50.8219L24.4826 46.9352ZM9.80153 39.9016C6.48636 36.94 4.78434 32.9445 4.80751 27.6849L0.807548 27.6673C0.780055 33.9083 2.85242 39.0574 7.13668 42.8846L9.80153 39.9016ZM4.8075 27.6654C4.78424 23.3381 5.92812 19.6429 8.19276 16.4951L4.94574 14.1591C2.14409 18.0534 0.780159 22.5909 0.807558 27.6869L4.8075 27.6654ZM8.18722 16.5027C10.5146 13.2997 13.7288 10.7609 17.9048 8.91015L16.2841 5.25319C11.5434 7.35419 7.74085 10.3123 4.95127 14.1514L8.18722 16.5027ZM17.9048 8.91015C22.0696 7.0644 26.8529 6.1179 32.2933 6.1179V2.1179C26.3852 2.1179 21.036 3.14725 16.2841 5.25319L17.9048 8.91015ZM32.2933 6.1179C37.8427 6.1179 42.5883 7.06699 46.5821 8.89947L48.2502 5.26388C43.6314 3.14465 38.295 2.1179 32.2933 2.1179V6.1179ZM46.5862 8.90131C50.6259 10.744 53.6947 13.2694 55.8722 16.4556L59.1746 14.1985C56.5392 10.3426 52.8699 7.37107 48.2462 5.26204L46.5862 8.90131ZM55.8722 16.4556C58.0385 19.6252 59.1773 23.3152 59.2474 27.5949L63.2469 27.5294C63.1651 22.5378 61.8213 18.071 59.1746 14.1985L55.8722 16.4556ZM61.2472 25.5621H45.4783V29.5621H61.2472V25.5621ZM84.1689 80.4922L83.1777 82.2293L83.1899 82.2362L84.1689 80.4922ZM74.2137 70.081L72.437 70.9993L72.4391 71.0034L74.2137 70.081ZM74.2137 38.2773L72.4349 37.3631L74.2137 38.2773ZM84.055 27.6761L83.032 25.9575L83.0275 25.9602L84.055 27.6761ZM109.779 25.7383L109.078 27.6115L109.087 27.6147L109.096 27.6179L109.779 25.7383ZM118.518 31.2479L117.111 32.6693L117.119 32.6764L118.518 31.2479ZM124.37 40.5192L122.497 41.22L122.498 41.2242L124.37 40.5192ZM126.46 57.9599V59.9599H128.46V57.9599H126.46ZM77.1775 57.9599H75.1775V59.9599H77.1775V57.9599ZM77.1775 47.9286V45.9286H75.1775V47.9286H77.1775ZM111.223 47.9286V49.9286H113.223V47.9286H111.223ZM109.703 41.7351L107.961 42.7168V42.7168L109.703 41.7351ZM105.485 37.5174L104.475 39.2432L104.489 39.2517L104.504 39.2599L105.485 37.5174ZM92.7563 37.6694L93.7785 39.3885L93.7853 39.3844L92.7563 37.6694ZM88.3486 42.191L90.088 43.1783L90.0936 43.1683L88.3486 42.191ZM86.7148 48.4606L84.7149 48.4386L84.7148 48.4496V48.4606H86.7148ZM88.3106 65.4833L86.5261 66.3863L86.5304 66.3948L86.5348 66.4033L88.3106 65.4833ZM104.877 71.2969L104.235 69.4027L104.877 71.2969ZM108.715 69.017L107.336 67.5688L108.715 69.017ZM111.147 65.2933L111.279 63.2977L109.802 63.2002L109.277 64.584L111.147 65.2933ZM126.118 66.2812L128.075 66.6947L128.551 64.4375L126.25 64.2856L126.118 66.2812ZM121.444 75.7045L119.941 74.3855L119.94 74.3865L121.444 75.7045ZM112.401 81.9361L113.144 83.793L113.15 83.7904L112.401 81.9361ZM99.6718 82.1399C93.9399 82.1399 89.1242 80.9804 85.148 78.7482L83.1899 82.2362C87.8771 84.8676 93.3966 86.1399 99.6718 86.1399V82.1399ZM85.1601 78.7551C81.1945 76.4924 78.145 73.3079 75.9883 69.1586L72.4391 71.0034C74.9434 75.8213 78.5307 79.5777 83.1778 82.2293L85.1601 78.7551ZM75.9904 69.1627C73.8347 64.9918 72.7179 59.9874 72.7179 54.0842H68.7179C68.7179 60.492 69.9317 66.1522 72.437 70.9993L75.9904 69.1627ZM72.7179 54.0842C72.7179 48.3423 73.8311 43.3969 75.9925 39.1916L72.4349 37.3631C69.9353 42.2264 68.7179 47.8189 68.7179 54.0842H72.7179ZM75.9925 39.1916C78.1584 34.9775 81.1837 31.7266 85.0824 29.392L83.0275 25.9602C78.4655 28.692 74.93 32.5085 72.4349 37.3631L75.9925 39.1916ZM85.0779 29.3947C88.9786 27.0729 93.604 25.8764 99.0258 25.8764V21.8764C92.9978 21.8764 87.6427 23.2131 83.032 25.9575L85.0779 29.3947ZM99.0258 25.8764C102.658 25.8764 106.003 26.4611 109.078 27.6115L110.48 23.865C106.919 22.533 103.095 21.8764 99.0258 21.8764V25.8764ZM109.096 27.6179C112.173 28.737 114.838 30.4192 117.111 32.6693L119.925 29.8264C117.234 27.1623 114.072 25.1714 110.463 23.8587L109.096 27.6179ZM117.119 32.6764C119.391 34.903 121.193 37.7342 122.497 41.22L126.243 39.8183C124.761 35.8567 122.661 32.507 119.918 29.8193L117.119 32.6764ZM122.498 41.2242C123.788 44.6478 124.46 48.7308 124.46 53.5142H128.46C128.46 48.3676 127.738 43.7874 126.242 39.8141L122.498 41.2242ZM124.46 53.5142V57.9599H128.46V53.5142H124.46ZM126.46 55.9599H77.1775V59.9599H126.46V55.9599ZM79.1775 57.9599V47.9286H75.1775V57.9599H79.1775ZM77.1775 49.9286H111.223V45.9286H77.1775V49.9286ZM113.223 47.9286C113.223 45.2993 112.648 42.8886 111.446 40.7534L107.961 42.7168C108.784 44.1787 109.223 45.8969 109.223 47.9286H113.223ZM111.446 40.7534C110.253 38.6365 108.584 36.9675 106.467 35.7749L104.504 39.2599C105.984 40.0938 107.127 41.2366 107.961 42.7168L111.446 40.7534ZM106.496 35.7916C104.374 34.5485 101.95 33.9595 99.2918 33.9595V37.9595C101.345 37.9595 103.051 38.4091 104.475 39.2432L106.496 35.7916ZM99.2918 33.9595C96.5128 33.9595 93.9711 34.6081 91.7273 35.9544L93.7853 39.3844C95.3412 38.4508 97.1565 37.9595 99.2918 37.9595V33.9595ZM91.7342 35.9503C89.5582 37.2441 87.8394 39.007 86.6036 41.2138L90.0936 43.1683C90.9857 41.5754 92.2054 40.3238 93.7785 39.3885L91.7342 35.9503ZM86.6093 41.2038C85.3666 43.3933 84.7437 45.8191 84.7149 48.4386L88.7146 48.4826C88.7365 46.4917 89.2028 44.7379 90.088 43.1783L86.6093 41.2038ZM84.7148 48.4606V57.9979H88.7148V48.4606H84.7148ZM84.7148 57.9979C84.7148 61.1298 85.2921 63.9477 86.5261 66.3863L90.0952 64.5803C89.2013 62.8139 88.7148 60.6415 88.7148 57.9979H84.7148ZM86.5348 66.4033C87.7928 68.8316 89.5889 70.7409 91.9088 72.0793L93.9077 68.6146C92.276 67.6732 91.0069 66.34 90.0865 64.5633L86.5348 66.4033ZM91.9088 72.0793C94.2413 73.425 96.9427 74.0568 99.9378 74.0568V70.0568C97.5119 70.0568 95.527 69.5488 93.9077 68.6146L91.9088 72.0793ZM99.9378 74.0568C101.925 74.0568 103.791 73.7768 105.519 73.191L104.235 69.4027C102.974 69.8302 101.548 70.0568 99.9378 70.0568V74.0568ZM105.519 73.191C107.269 72.5981 108.805 71.6936 110.094 70.4653L107.336 67.5688C106.498 68.367 105.475 68.9824 104.235 69.4027L105.519 73.191ZM110.094 70.4653C111.39 69.2314 112.361 67.7319 113.017 66.0026L109.277 64.584C108.818 65.7932 108.168 66.7762 107.336 67.5688L110.094 70.4653ZM111.015 67.289L125.986 68.2769L126.25 64.2856L111.279 63.2977L111.015 67.289ZM124.161 65.8678C123.47 69.1394 122.063 71.9661 119.941 74.3855L122.948 77.0236C125.537 74.0727 127.246 70.6173 128.075 66.6947L124.161 65.8678ZM119.94 74.3865C117.841 76.7823 115.097 78.6893 111.651 80.0818L113.15 83.7904C117.101 82.1937 120.387 79.9464 122.948 77.0226L119.94 74.3865ZM111.658 80.0791C108.266 81.4358 104.284 82.1399 99.6718 82.1399V86.1399C104.686 86.1399 109.189 85.3748 113.144 83.793L111.658 80.0791ZM137.023 83H135.023V85H137.023V83ZM137.023 24.6364V22.6364H135.023V24.6364H137.023ZM152.716 24.6364H154.716V22.6364H152.716V24.6364ZM152.716 34.8196H150.716V36.8196H152.716V34.8196ZM153.324 34.8196V36.8196H154.821L155.243 35.3832L153.324 34.8196ZM158.681 26.6122L159.868 28.222L159.879 28.2142L158.681 26.6122ZM169.967 23.9524L170.182 21.964H170.181L169.967 23.9524ZM172.436 24.3704H174.436V22.8088L172.921 22.4301L172.436 24.3704ZM172.436 38.7333L171.862 40.649L174.436 41.4214V38.7333H172.436ZM159.213 39.4173L160.174 41.1712L160.183 41.1667L159.213 39.4173ZM154.806 43.6729L153.089 42.6475L153.083 42.6563L153.078 42.6652L154.806 43.6729ZM153.21 83V85H155.21V83H153.21ZM139.023 83V24.6364H135.023V83H139.023ZM137.023 26.6364H152.716V22.6364H137.023V26.6364ZM150.716 24.6364V34.8196H154.716V24.6364H150.716ZM152.716 36.8196H153.324V32.8196H152.716V36.8196ZM155.243 35.3832C156.21 32.089 157.782 29.7605 159.868 28.2219L157.494 25.0025C154.565 27.1623 152.565 30.3054 151.405 34.256L155.243 35.3832ZM159.879 28.2142C162.025 26.6099 164.488 25.8004 167.345 25.8004V21.8004C163.666 21.8004 160.353 22.8655 157.484 25.0103L159.879 28.2142ZM167.345 25.8004C168.073 25.8004 168.875 25.846 169.752 25.9408L170.181 21.964C169.184 21.8562 168.238 21.8004 167.345 21.8004V25.8004ZM169.752 25.9408C170.622 26.035 171.352 26.1608 171.951 26.3107L172.921 22.4301C172.102 22.2253 171.185 22.0725 170.182 21.964L169.752 25.9408ZM170.436 24.3704V38.7333H174.436V24.3704H170.436ZM173.011 36.8177C172.102 36.545 170.93 36.3256 169.544 36.1426L169.021 40.1081C170.32 40.2798 171.251 40.4657 171.862 40.649L173.011 36.8177ZM169.544 36.1426C168.133 35.9561 166.815 35.8594 165.597 35.8594V39.8594C166.608 39.8594 167.747 39.9399 169.021 40.1081L169.544 36.1426ZM165.597 35.8594C162.915 35.8594 160.447 36.4472 158.244 37.6678L160.183 41.1667C161.729 40.3101 163.516 39.8594 165.597 39.8594V35.8594ZM158.252 37.6633C156.088 38.8491 154.359 40.5202 153.089 42.6475L156.523 44.6984C157.431 43.178 158.64 42.012 160.174 41.1712L158.252 37.6633ZM153.078 42.6652C151.814 44.8325 151.21 47.2914 151.21 49.9805H155.21C155.21 47.9073 155.67 46.1611 156.533 44.6807L153.078 42.6652ZM151.21 49.9805V83H155.21V49.9805H151.21ZM153.21 81H137.023V85H153.21V81ZM236.994 24.6364L238.881 25.2964L239.811 22.6364H236.994V24.6364ZM216.589 83V85H218.009L218.477 83.66L216.589 83ZM198.35 83L196.462 83.66L196.931 85H198.35V83ZM177.946 24.6364V22.6364H175.128L176.058 25.2964L177.946 24.6364ZM195.045 24.6364L196.965 24.0788L196.547 22.6364H195.045V24.6364ZM207.166 66.3952L205.245 66.9528L205.664 68.3952H207.166V66.3952ZM207.774 66.3952V68.3952H209.277L209.695 66.9511L207.774 66.3952ZM219.857 24.6364V22.6364H218.353L217.936 24.0805L219.857 24.6364ZM235.106 23.9763L214.701 82.34L218.477 83.66L238.881 25.2964L235.106 23.9763ZM216.589 81H198.35V85H216.589V81ZM200.238 82.34L179.834 23.9763L176.058 25.2964L196.462 83.66L200.238 82.34ZM177.946 26.6364H195.045V22.6364H177.946V26.6364ZM193.124 25.1939L205.245 66.9528L209.086 65.8377L196.965 24.0788L193.124 25.1939ZM207.166 68.3952H207.774V64.3952H207.166V68.3952ZM209.695 66.9511L221.778 25.1923L217.936 24.0805L205.853 65.8393L209.695 66.9511ZM219.857 26.6364H236.994V22.6364H219.857V26.6364ZM245.277 83H243.277V85H245.277V83ZM245.277 24.6364V22.6364H243.277V24.6364H245.277ZM261.464 24.6364H263.464V22.6364H261.464V24.6364ZM261.464 83V85H263.464V83H261.464ZM247.215 14.7191L245.833 16.1653L245.844 16.1759L245.856 16.1862L247.215 14.7191ZM247.215 3.16797L248.585 4.62501L248.585 4.62437L247.215 3.16797ZM259.564 3.16797L258.182 4.61419L258.193 4.62473L258.205 4.63509L259.564 3.16797ZM259.564 14.7191L260.934 16.1761L260.935 16.1755L259.564 14.7191ZM247.277 83V24.6364H243.277V83H247.277ZM245.277 26.6364H261.464V22.6364H245.277V26.6364ZM259.464 24.6364V83H263.464V24.6364H259.464ZM261.464 81H245.277V85H261.464V81ZM253.408 15.1129C251.492 15.1129 249.917 14.496 248.574 13.252L245.856 16.1862C247.958 18.134 250.512 19.1129 253.408 19.1129V15.1129ZM248.596 13.2729C247.276 12.0116 246.669 10.589 246.669 8.90554H242.669C242.669 11.7311 243.759 14.1842 245.833 16.1653L248.596 13.2729ZM246.669 8.90554C246.669 7.25554 247.269 5.86208 248.585 4.62501L245.845 1.71093C243.766 3.66562 242.669 6.0972 242.669 8.90554H246.669ZM248.585 4.62437C249.93 3.359 251.501 2.73615 253.408 2.73615V-1.26385C250.502 -1.26385 247.945 -0.265491 245.844 1.71157L248.585 4.62437ZM253.408 2.73615C255.315 2.73615 256.868 3.35829 258.182 4.61419L260.945 1.72175C258.866 -0.264782 256.315 -1.26385 253.408 -1.26385V2.73615ZM258.205 4.63509C259.543 5.87522 260.148 7.26591 260.148 8.90554H264.148C264.148 6.08683 263.03 3.65247 260.923 1.70084L258.205 4.63509ZM260.148 8.90554C260.148 10.5788 259.536 11.9985 258.193 13.2627L260.935 16.1755C263.036 14.1973 264.148 11.7413 264.148 8.90554H260.148ZM258.194 13.2621C256.881 14.4966 255.324 15.1129 253.408 15.1129V19.1129C256.305 19.1129 258.852 18.1333 260.934 16.1761L258.194 13.2621ZM285.373 80.3402L284.347 82.057L284.359 82.0641L285.373 80.3402ZM275.494 69.701L273.707 70.5994L273.711 70.6074L275.494 69.701ZM275.532 38.3153L273.753 37.4011L273.751 37.4049L275.532 38.3153ZM285.449 27.7141L286.468 29.4354L286.475 29.4309L285.449 27.7141ZM314.099 26.6502L314.97 24.8496L314.099 26.6502ZM323.181 34.4396L321.516 35.549L323.181 34.4396ZM326.866 46.2188V48.2188H328.97L328.864 46.1178L326.866 46.2188ZM311.591 46.2188L309.613 46.5112L309.865 48.2188H311.591V46.2188ZM308.172 39.1893L306.767 40.6133L306.777 40.6232L306.787 40.6328L308.172 39.1893ZM294.417 38.5433L295.592 40.1618L295.596 40.1589L294.417 38.5433ZM290.047 63.3175L288.183 64.0415L288.186 64.0493L288.189 64.0571L290.047 63.3175ZM294.417 69.283L295.596 67.6674L294.417 69.283ZM305.968 70.195L305.061 68.4121L305.049 68.4185L305.968 70.195ZM309.654 66.8892L307.994 65.7732L307.989 65.7798L309.654 66.8892ZM311.591 61.6076V59.6076H309.866L309.613 61.3145L311.591 61.6076ZM326.866 61.6076L328.863 61.7211L328.983 59.6076H326.866V61.6076ZM323.219 73.3867L321.535 72.3065L321.533 72.3097L323.219 73.3867ZM314.289 81.2901L313.395 79.5013L314.289 81.2901ZM300.8 82.1399C295.108 82.1399 290.331 80.9361 286.387 78.6163L284.359 82.0641C289.029 84.8106 294.536 86.1399 300.8 86.1399V82.1399ZM286.399 78.6234C282.449 76.2624 279.415 73 277.277 68.7946L273.711 70.6074C276.184 75.4707 279.736 79.3011 284.347 82.057L286.399 78.6234ZM277.281 68.8026C275.162 64.5891 274.074 59.6872 274.074 54.0462H270.074C270.074 60.2096 271.266 65.7442 273.707 70.5994L277.281 68.8026ZM274.074 54.0462C274.074 48.3276 275.176 43.4062 277.313 39.2257L273.751 37.4049C271.278 42.2424 270.074 47.8083 270.074 54.0462H274.074ZM277.311 39.2296C279.474 35.0217 282.52 31.7716 286.468 29.4354L284.431 25.9929C279.817 28.723 276.252 32.5403 273.753 37.4011L277.311 39.2296ZM286.475 29.4309C290.394 27.0893 295.116 25.8764 300.724 25.8764V21.8764C294.528 21.8764 289.067 23.222 284.423 25.9974L286.475 29.4309ZM300.724 25.8764C305.573 25.8764 309.724 26.7564 313.229 28.4508L314.97 24.8496C310.825 22.8457 306.058 21.8764 300.724 21.8764V25.8764ZM313.229 28.4508C316.751 30.1539 319.497 32.5196 321.516 35.549L324.845 33.3302C322.406 29.6722 319.097 26.845 314.97 24.8496L313.229 28.4508ZM321.516 35.549C323.522 38.5571 324.657 42.1253 324.869 46.3197L328.864 46.1178C328.62 41.2942 327.298 37.0097 324.845 33.3302L321.516 35.549ZM326.866 44.2188H311.591V48.2188H326.866V44.2188ZM313.57 45.9263C313.085 42.6428 311.772 39.8708 309.556 37.7457L306.787 40.6328C308.27 42.0541 309.237 43.9685 309.613 46.5112L313.57 45.9263ZM309.576 37.7652C307.319 35.5394 304.39 34.4915 300.99 34.4915V38.4915C303.518 38.4915 305.377 39.2421 306.767 40.6133L309.576 37.7652ZM300.99 34.4915C298.095 34.4915 295.483 35.2895 293.238 36.9277L295.596 40.1589C297.1 39.0613 298.87 38.4915 300.99 38.4915V34.4915ZM293.242 36.9249C291.028 38.5324 289.377 40.8307 288.229 43.687L291.941 45.1788C292.87 42.8675 294.108 41.2393 295.592 40.1618L293.242 36.9249ZM288.229 43.687C287.07 46.5703 286.527 49.9668 286.527 53.8182H290.527C290.527 50.3235 291.023 47.463 291.941 45.1788L288.229 43.687ZM286.527 53.8182C286.527 57.7124 287.056 61.1391 288.183 64.0415L291.911 62.5935C291.012 60.2776 290.527 57.3714 290.527 53.8182H286.527ZM288.189 64.0571C289.337 66.9424 291 69.2658 293.238 70.8986L295.596 67.6674C294.084 66.5644 292.834 64.9109 291.905 62.5778L288.189 64.0571ZM293.238 70.8986C295.483 72.5368 298.095 73.3349 300.99 73.3349V69.3349C298.87 69.3349 297.1 68.765 295.596 67.6674L293.238 70.8986ZM300.99 73.3349C303.121 73.3349 305.101 72.8948 306.887 71.9714L305.049 68.4185C303.896 69.015 302.558 69.3349 300.99 69.3349V73.3349ZM306.874 71.9777C308.686 71.0565 310.172 69.7179 311.318 67.9986L307.989 65.7798C307.21 66.9483 306.239 67.8135 305.061 68.4122L306.874 71.9777ZM311.313 68.0052C312.494 66.2499 313.23 64.1969 313.57 61.9007L309.613 61.3145C309.345 63.122 308.789 64.5901 307.994 65.7732L311.313 68.0052ZM311.591 63.6076H326.866V59.6076H311.591V63.6076ZM324.87 61.4941C324.634 65.6463 323.508 69.2321 321.535 72.3065L324.902 74.467C327.286 70.7525 328.592 66.4856 328.863 61.7211L324.87 61.4941ZM321.533 72.3097C319.587 75.3553 316.892 77.7524 313.395 79.5013L315.184 83.079C319.285 81.0281 322.544 78.1563 324.904 74.4637L321.533 72.3097ZM313.395 79.5013C309.928 81.2348 305.751 82.1399 300.8 82.1399V86.1399C306.236 86.1399 311.051 85.1452 315.184 83.079L313.395 79.5013ZM348.325 80.4922L347.334 82.2293L347.346 82.2362L348.325 80.4922ZM338.37 70.081L336.593 70.9993L336.595 71.0034L338.37 70.081ZM338.37 38.2773L336.591 37.3631L338.37 38.2773ZM348.211 27.6761L347.188 25.9575L347.184 25.9602L348.211 27.6761ZM373.935 25.7383L373.235 27.6115L373.243 27.6147L373.252 27.6179L373.935 25.7383ZM382.675 31.2479L381.268 32.6693L381.275 32.6764L382.675 31.2479ZM388.526 40.5192L386.653 41.22L386.655 41.2242L388.526 40.5192ZM390.616 57.9599V59.9599H392.616V57.9599H390.616ZM341.334 57.9599H339.334V59.9599H341.334V57.9599ZM341.334 47.9286V45.9286H339.334V47.9286H341.334ZM375.379 47.9286V49.9286H377.379V47.9286H375.379ZM373.859 41.7351L372.117 42.7168V42.7168L373.859 41.7351ZM369.642 37.5174L368.631 39.2432L368.645 39.2517L368.66 39.2599L369.642 37.5174ZM356.913 37.6694L357.935 39.3885L357.942 39.3844L356.913 37.6694ZM352.505 42.191L354.244 43.1783L354.25 43.1683L352.505 42.191ZM350.871 48.4606L348.871 48.4386L348.871 48.4496V48.4606H350.871ZM352.467 65.4833L350.682 66.3863L350.687 66.3948L350.691 66.4033L352.467 65.4833ZM369.034 71.2969L368.392 69.4027L369.034 71.2969ZM372.871 69.017L371.492 67.5688L372.871 69.017ZM375.303 65.2933L375.435 63.2977L373.958 63.2002L373.433 64.584L375.303 65.2933ZM390.274 66.2812L392.231 66.6947L392.708 64.4375L390.406 64.2856L390.274 66.2812ZM385.6 75.7045L384.097 74.3855L384.096 74.3865L385.6 75.7045ZM376.557 81.9361L377.3 83.793L377.306 83.7904L376.557 81.9361ZM363.828 82.1399C358.096 82.1399 353.28 80.9804 349.304 78.7482L347.346 82.2362C352.033 84.8676 357.553 86.1399 363.828 86.1399V82.1399ZM349.316 78.7551C345.351 76.4924 342.301 73.3079 340.145 69.1586L336.595 71.0034C339.1 75.8213 342.687 79.5777 347.334 82.2293L349.316 78.7551ZM340.147 69.1627C337.991 64.9918 336.874 59.9874 336.874 54.0842H332.874C332.874 60.492 334.088 66.1522 336.593 70.9993L340.147 69.1627ZM336.874 54.0842C336.874 48.3423 337.987 43.3969 340.149 39.1916L336.591 37.3631C334.092 42.2264 332.874 47.8189 332.874 54.0842H336.874ZM340.149 39.1916C342.315 34.9775 345.34 31.7266 349.239 29.392L347.184 25.9602C342.622 28.692 339.086 32.5085 336.591 37.3631L340.149 39.1916ZM349.234 29.3947C353.135 27.0729 357.76 25.8764 363.182 25.8764V21.8764C357.154 21.8764 351.799 23.2131 347.188 25.9575L349.234 29.3947ZM363.182 25.8764C366.814 25.8764 370.159 26.4611 373.235 27.6115L374.636 23.865C371.075 22.533 367.251 21.8764 363.182 21.8764V25.8764ZM373.252 27.6179C376.329 28.737 378.994 30.4192 381.268 32.6693L384.082 29.8264C381.39 27.1623 378.229 25.1714 374.619 23.8587L373.252 27.6179ZM381.275 32.6764C383.547 34.903 385.349 37.7342 386.653 41.22L390.399 39.8183C388.917 35.8567 386.817 32.507 384.074 29.8193L381.275 32.6764ZM386.655 41.2242C387.944 44.6478 388.616 48.7308 388.616 53.5142H392.616C392.616 48.3676 391.895 43.7874 390.398 39.8141L386.655 41.2242ZM388.616 53.5142V57.9599H392.616V53.5142H388.616ZM390.616 55.9599H341.334V59.9599H390.616V55.9599ZM343.334 57.9599V47.9286H339.334V57.9599H343.334ZM341.334 49.9286H375.379V45.9286H341.334V49.9286ZM377.379 47.9286C377.379 45.2993 376.805 42.8886 375.602 40.7534L372.117 42.7168C372.94 44.1787 373.379 45.8969 373.379 47.9286H377.379ZM375.602 40.7534C374.409 38.6365 372.74 36.9675 370.623 35.7749L368.66 39.2599C370.14 40.0938 371.283 41.2366 372.117 42.7168L375.602 40.7534ZM370.652 35.7916C368.53 34.5485 366.106 33.9595 363.448 33.9595V37.9595C365.501 37.9595 367.207 38.4091 368.631 39.2432L370.652 35.7916ZM363.448 33.9595C360.669 33.9595 358.127 34.6081 355.884 35.9544L357.942 39.3844C359.497 38.4508 361.313 37.9595 363.448 37.9595V33.9595ZM355.89 35.9503C353.714 37.2441 351.996 39.007 350.76 41.2138L354.25 43.1683C355.142 41.5754 356.362 40.3238 357.935 39.3885L355.89 35.9503ZM350.766 41.2038C349.523 43.3933 348.9 45.8191 348.871 48.4386L352.871 48.4826C352.893 46.4917 353.359 44.7379 354.244 43.1783L350.766 41.2038ZM348.871 48.4606V57.9979H352.871V48.4606H348.871ZM348.871 57.9979C348.871 61.1298 349.448 63.9477 350.682 66.3863L354.251 64.5803C353.358 62.8139 352.871 60.6415 352.871 57.9979H348.871ZM350.691 66.4033C351.949 68.8316 353.745 70.7409 356.065 72.0793L358.064 68.6146C356.432 67.6732 355.163 66.34 354.243 64.5633L350.691 66.4033ZM356.065 72.0793C358.398 73.425 361.099 74.0568 364.094 74.0568V70.0568C361.668 70.0568 359.683 69.5488 358.064 68.6146L356.065 72.0793ZM364.094 74.0568C366.081 74.0568 367.948 73.7768 369.676 73.191L368.392 69.4027C367.13 69.8302 365.704 70.0568 364.094 70.0568V74.0568ZM369.676 73.191C371.425 72.5981 372.961 71.6936 374.251 70.4653L371.492 67.5688C370.654 68.367 369.632 68.9824 368.392 69.4027L369.676 73.191ZM374.251 70.4653C375.546 69.2314 376.517 67.7319 377.173 66.0026L373.433 64.584C372.975 65.7932 372.324 66.7762 371.492 67.5688L374.251 70.4653ZM375.171 67.289L390.142 68.2769L390.406 64.2856L375.435 63.2977L375.171 67.289ZM388.317 65.8678C387.626 69.1394 386.22 71.9661 384.097 74.3855L387.104 77.0236C389.693 74.0727 391.402 70.6173 392.231 66.6947L388.317 65.8678ZM384.096 74.3865C381.997 76.7823 379.253 78.6893 375.808 80.0818L377.306 83.7904C381.257 82.1937 384.543 79.9464 387.105 77.0226L384.096 74.3865ZM375.814 80.0791C372.423 81.4358 368.44 82.1399 363.828 82.1399V86.1399C368.842 86.1399 373.345 85.3748 377.3 83.793L375.814 80.0791ZM449.74 41.2791L449.862 43.2753L452.003 43.1436L451.722 41.0172L449.74 41.2791ZM434.921 42.191L432.96 42.5833L433.302 44.2945L435.044 44.1873L434.921 42.191ZM433.287 38.7713L431.729 40.0253L431.736 40.0347L431.744 40.0441L433.287 38.7713ZM429.981 36.3015L429.128 38.1104L429.148 38.12L429.169 38.1291L429.981 36.3015ZM418.81 36.9474L419.843 38.6602L419.852 38.6547L419.861 38.649L418.81 36.9474ZM417.898 44.6609L416.591 46.1745V46.1745L417.898 44.6609ZM423.636 46.9787L423.215 48.934L423.228 48.9368L423.241 48.9393L423.636 46.9787ZM434.199 49.1065L434.601 47.1474L434.594 47.1459L434.199 49.1065ZM446.89 54.7301L445.53 56.1966L446.89 54.7301ZM447.688 74.9826L446.111 73.7518L446.105 73.7605L447.688 74.9826ZM438.492 81.7461L439.254 83.5955L439.26 83.593L438.492 81.7461ZM406.613 79.3143L405.454 80.9442L405.464 80.9515L406.613 79.3143ZM398.595 66.0913L398.491 64.094L396.31 64.2085L396.615 66.3703L398.595 66.0913ZM414.516 65.2553L416.476 64.855L416.131 63.1678L414.411 63.2581L414.516 65.2553ZM418.012 70.6509L416.897 72.3115L416.905 72.3168L416.913 72.322L418.012 70.6509ZM431.957 70.8409L433.026 72.5313L433.032 72.5272L431.957 70.8409ZM434.617 66.5472L436.617 66.5762L436.617 66.5445L436.616 66.5127L434.617 66.5472ZM432.755 62.9375L431.513 64.5056L431.524 64.5136L431.534 64.5215L432.755 62.9375ZM427.131 60.7337L427.524 58.7725L427.522 58.7722L427.131 60.7337ZM417.024 58.7198L416.632 60.681L416.633 60.6813L417.024 58.7198ZM404.295 52.7923L402.868 54.1936L402.874 54.2001L404.295 52.7923ZM403.193 32.3498L401.598 31.1426L401.591 31.1522L403.193 32.3498ZM411.818 26.0803L411.084 24.2198L411.08 24.2215L411.818 26.0803ZM442.292 28.5501L441.106 30.1604L441.111 30.1638L442.292 28.5501ZM449.617 39.2829L434.798 40.1948L435.044 44.1873L449.862 43.2753L449.617 39.2829ZM436.882 41.7988C436.563 40.203 435.872 38.7618 434.83 37.4985L431.744 40.0441C432.374 40.8073 432.772 41.6459 432.96 42.5833L436.882 41.7988ZM434.845 37.5173C433.786 36.2019 432.416 35.195 430.793 34.4739L429.169 38.1291C430.282 38.6239 431.116 39.2636 431.729 40.0253L434.845 37.5173ZM430.834 34.4926C429.164 33.7049 427.25 33.3516 425.155 33.3516V37.3516C426.81 37.3516 428.113 37.6315 429.128 38.1104L430.834 34.4926ZM425.155 33.3516C422.365 33.3516 419.865 33.9451 417.759 35.2458L419.861 38.649C421.2 37.8219 422.931 37.3516 425.155 37.3516V33.3516ZM417.777 35.2347C415.562 36.5705 414.226 38.5614 414.226 41.1271H418.226C418.226 40.1972 418.613 39.4016 419.843 38.6602L417.777 35.2347ZM414.226 41.1271C414.226 43.1383 415.065 44.8567 416.591 46.1745L419.205 43.1472C418.502 42.5399 418.226 41.9024 418.226 41.1271H414.226ZM416.591 46.1745C418.097 47.4753 420.419 48.3329 423.215 48.934L424.056 45.0234C421.431 44.4592 419.928 43.7716 419.205 43.1472L416.591 46.1745ZM423.241 48.9393L433.804 51.0671L434.594 47.1459L424.031 45.0181L423.241 48.9393ZM433.796 51.0657C439.286 52.193 443.117 53.9593 445.53 56.1966L448.25 53.2636C445.09 50.3333 440.46 48.3506 434.601 47.1474L433.796 51.0657ZM445.53 56.1966C447.862 58.3594 449.07 61.1991 449.07 64.9134H453.07C453.07 60.2176 451.49 56.2684 448.25 53.2636L445.53 56.1966ZM449.07 64.9134C449.07 68.3135 448.079 71.2319 446.111 73.7518L449.264 76.2133C451.806 72.9577 453.07 69.1633 453.07 64.9134H449.07ZM446.105 73.7605C444.12 76.3316 441.356 78.3903 437.725 79.8992L439.26 83.593C443.431 81.8594 446.797 79.4092 449.271 76.2047L446.105 73.7605ZM437.731 79.8967C434.142 81.3747 429.938 82.1399 425.079 82.1399V86.1399C430.354 86.1399 435.092 85.3092 439.254 83.5955L437.731 79.8967ZM425.079 82.1399C417.613 82.1399 411.904 80.5837 407.762 77.6771L405.464 80.9515C410.492 84.479 417.094 86.1399 425.079 86.1399V82.1399ZM407.772 77.6844C403.663 74.7624 401.285 70.8448 400.576 65.8122L396.615 66.3703C397.476 72.4836 400.443 77.3813 405.454 80.9442L407.772 77.6844ZM398.7 68.0885L414.621 67.2526L414.411 63.2581L398.491 64.094L398.7 68.0885ZM412.557 65.6557C413.134 68.4811 414.575 70.7527 416.897 72.3115L419.127 68.9903C417.75 68.0666 416.861 66.7412 416.476 64.855L412.557 65.6557ZM416.913 72.322C419.175 73.809 421.957 74.4748 425.117 74.4748V70.4748C422.503 70.4748 420.548 69.9247 419.111 68.9798L416.913 72.322ZM425.117 74.4748C428.191 74.4748 430.881 73.8874 433.026 72.5313L430.888 69.1505C429.587 69.9729 427.719 70.4748 425.117 70.4748V74.4748ZM433.032 72.5272C435.226 71.1286 436.58 69.1296 436.617 66.5762L432.617 66.5182C432.603 67.4605 432.184 68.324 430.882 69.1546L433.032 72.5272ZM436.616 66.5127C436.58 64.4047 435.648 62.6428 433.976 61.3535L431.534 64.5215C432.293 65.1068 432.603 65.7513 432.617 66.5817L436.616 66.5127ZM433.996 61.3694C432.419 60.1211 430.185 59.3049 427.524 58.7725L426.739 62.6948C429.144 63.1757 430.658 63.8287 431.513 64.5056L433.996 61.3694ZM427.522 58.7722L417.415 56.7584L416.633 60.6813L426.74 62.6951L427.522 58.7722ZM417.416 56.7587C411.934 55.6622 408.119 53.8099 405.716 51.3845L402.874 54.2001C406.044 57.3981 410.715 59.4976 416.632 60.681L417.416 56.7587ZM405.722 51.391C403.368 48.9942 402.153 45.9325 402.153 42.0391H398.153C398.153 46.8596 399.699 50.9667 402.868 54.1936L405.722 51.391ZM402.153 42.0391C402.153 38.6727 403.055 35.8748 404.795 33.5474L401.591 31.1522C399.278 34.2457 398.153 37.9073 398.153 42.0391H402.153ZM404.788 33.5569C406.584 31.1843 409.139 29.2966 412.557 27.939L411.08 24.2215C407.101 25.8024 403.906 28.0943 401.598 31.1426L404.788 33.5569ZM412.552 27.9407C415.993 26.5833 420.091 25.8764 424.889 25.8764V21.8764C419.708 21.8764 415.092 22.6387 411.084 24.2198L412.552 27.9407ZM424.889 25.8764C432.001 25.8764 437.333 27.3817 441.106 30.1604L443.478 26.9397C438.79 23.4869 432.52 21.8764 424.889 21.8764V25.8764ZM441.111 30.1638C444.913 32.9475 447.117 36.6953 447.757 41.541L451.722 41.0172C450.944 35.1224 448.183 30.3842 443.474 26.9363L441.111 30.1638ZM464.264 81.3281L462.84 82.7323L462.85 82.7424L462.86 82.7523L464.264 81.3281ZM464.264 68.4851L462.86 67.0609L462.855 67.0659L462.85 67.0709L464.264 68.4851ZM477.107 68.4851L475.713 69.9191L477.107 68.4851ZM478.551 79.4663L476.85 78.4146L476.844 78.4234L478.551 79.4663ZM475.245 82.772L476.265 84.4926L476.277 84.4857L476.288 84.4786L475.245 82.772ZM470.724 81.9879C468.745 81.9879 467.095 81.3111 465.668 79.9039L462.86 82.7523C465.03 84.8915 467.686 85.9879 470.724 85.9879V81.9879ZM465.688 79.924C464.281 78.4967 463.604 76.8467 463.604 74.8686H459.604C459.604 77.9061 460.701 80.5625 462.84 82.7323L465.688 79.924ZM463.604 74.8686C463.604 72.9226 464.276 71.3017 465.678 69.8993L462.85 67.0709C460.706 69.2149 459.604 71.8497 459.604 74.8686H463.604ZM465.668 69.9093C467.095 68.5021 468.745 67.8253 470.724 67.8253V63.8253C467.686 63.8253 465.03 64.9217 462.86 67.0609L465.668 69.9093ZM470.724 67.8253C472.609 67.8253 474.243 68.4903 475.713 69.9191L478.501 67.0511C476.323 64.9335 473.702 63.8253 470.724 63.8253V67.8253ZM475.713 69.9191C477.16 71.3262 477.843 72.9411 477.843 74.8686H481.843C481.843 71.8311 480.702 69.1904 478.501 67.0511L475.713 69.9191ZM477.843 74.8686C477.843 76.1771 477.511 77.3442 476.85 78.4146L480.252 80.5179C481.313 78.8018 481.843 76.9039 481.843 74.8686H477.843ZM476.844 78.4234C476.174 79.5205 475.299 80.395 474.202 81.0655L476.288 84.4786C477.927 83.4772 479.256 82.1478 480.258 80.5092L476.844 78.4234ZM474.226 81.0514C473.178 81.6724 472.025 81.9879 470.724 81.9879V85.9879C472.716 85.9879 474.577 85.4928 476.265 84.4926L474.226 81.0514Z" fill="white" mask="url(#path-1-outside-1_279_6746)"/>
</svg>
